  0
SECTION
  2
HEADER
  9
$ACADVER
  1
AC1009
  9
$DWGCODEPAGE
  3
ansi_1252
  9
$INSBASE
 10
0.0
 20
0.0
 30
0.0
  9
$EXTMIN
 10
218.2412579438902
 20
-256.5920879128619
 30
11.0
  9
$EXTMAX
 10
273.5166091860511
 20
-212.9264077116881
 30
11.0
  9
$LIMMIN
 10
0.0
 20
0.0
  9
$LIMMAX
 10
12.0
 20
9.0
  9
$ORTHOMODE
 70
     0
  9
$REGENMODE
 70
     1
  9
$FILLMODE
 70
     1
  9
$QTEXTMODE
 70
     0
  9
$MIRRTEXT
 70
     1
  9
$DRAGMODE
 70
     2
  9
$LTSCALE
 40
1.0
  9
$OSMODE
 70
    37
  9
$ATTMODE
 70
     1
  9
$TEXTSIZE
 40
0.2
  9
$TRACEWID
 40
0.05
  9
$TEXTSTYLE
  7
STANDARD
  9
$CLAYER
  8
DEFAULT
  9
$CELTYPE
  6
BYLAYER
  9
$CECOLOR
 62
   256
  9
$DIMSCALE
 40
1.0
  9
$DIMASZ
 40
0.18
  9
$DIMEXO
 40
0.0625
  9
$DIMDLI
 40
0.38
  9
$DIMRND
 40
0.0
  9
$DIMDLE
 40
0.0
  9
$DIMEXE
 40
0.18
  9
$DIMTP
 40
0.0
  9
$DIMTM
 40
0.0
  9
$DIMTXT
 40
0.18
  9
$DIMCEN
 40
0.09
  9
$DIMTSZ
 40
0.0
  9
$DIMTOL
 70
     0
  9
$DIMLIM
 70
     0
  9
$DIMTIH
 70
     1
  9
$DIMTOH
 70
     1
  9
$DIMSE1
 70
     0
  9
$DIMSE2
 70
     0
  9
$DIMTAD
 70
     0
  9
$DIMZIN
 70
     0
  9
$DIMBLK
  1

  9
$DIMASO
 70
     1
  9
$DIMSHO
 70
     1
  9
$DIMPOST
  1

  9
$DIMAPOST
  1

  9
$DIMALT
 70
     0
  9
$DIMALTD
 70
     2
  9
$DIMALTF
 40
25.4
  9
$DIMLFAC
 40
1.0
  9
$DIMTOFL
 70
     0
  9
$DIMTVP
 40
0.0
  9
$DIMTIX
 70
     0
  9
$DIMSOXD
 70
     0
  9
$DIMSAH
 70
     0
  9
$DIMBLK1
  1

  9
$DIMBLK2
  1

  9
$DIMSTYLE
  2
STANDARD_ACAD
  9
$DIMCLRD
 70
     0
  9
$DIMCLRE
 70
     0
  9
$DIMCLRT
 70
     0
  9
$DIMTFAC
 40
1.0
  9
$DIMGAP
 40
0.09
  9
$LUNITS
 70
     2
  9
$LUPREC
 70
     3
  9
$SKETCHINC
 40
0.1
  9
$FILLETRAD
 40
0.0
  9
$AUNITS
 70
     0
  9
$AUPREC
 70
     0
  9
$MENU
  1
.
  9
$ELEVATION
 40
0.0
  9
$PELEVATION
 40
0.0
  9
$THICKNESS
 40
0.0
  9
$LIMCHECK
 70
     0
  9
$CHAMFERA
 40
0.0
  9
$CHAMFERB
 40
0.0
  9
$SKPOLY
 70
     0
  9
$TDCREATE
 40
2461106.754437824
  9
$TDUPDATE
 40
2461106.754480023
  9
$TDINDWG
 40
0.0000000116
  9
$TDUSRTIMER
 40
0.0000000116
  9
$USRTIMER
 70
     1
  9
$ANGBASE
 50
0.0
  9
$ANGDIR
 70
     0
  9
$PDMODE
 70
     0
  9
$PDSIZE
 40
0.0
  9
$PLINEWID
 40
0.0
  9
$COORDS
 70
     1
  9
$SPLFRAME
 70
     0
  9
$SPLINETYPE
 70
     6
  9
$SPLINESEGS
 70
     8
  9
$ATTDIA
 70
     0
  9
$ATTREQ
 70
     1
  9
$HANDLING
 70
     1
  9
$HANDSEED
  5
277
  9
$SURFTAB1
 70
     6
  9
$SURFTAB2
 70
     6
  9
$SURFTYPE
 70
     6
  9
$SURFU
 70
     6
  9
$SURFV
 70
     6
  9
$UCSNAME
  2

  9
$UCSORG
 10
0.0
 20
0.0
 30
0.0
  9
$UCSXDIR
 10
1.0
 20
0.0
 30
0.0
  9
$UCSYDIR
 10
0.0
 20
1.0
 30
0.0
  9
$PUCSNAME
  2

  9
$PUCSORG
 10
0.0
 20
0.0
 30
0.0
  9
$PUCSXDIR
 10
1.0
 20
0.0
 30
0.0
  9
$PUCSYDIR
 10
0.0
 20
1.0
 30
0.0
  9
$USERI1
 70
     0
  9
$USERI2
 70
     0
  9
$USERI3
 70
     0
  9
$USERI4
 70
     0
  9
$USERI5
 70
     0
  9
$USERR1
 40
0.0
  9
$USERR2
 40
0.0
  9
$USERR3
 40
0.0
  9
$USERR4
 40
0.0
  9
$USERR5
 40
0.0
  9
$WORLDVIEW
 70
     1
  9
$SHADEDGE
 70
     3
  9
$SHADEDIF
 70
    70
  9
$TILEMODE
 70
     1
  9
$MAXACTVP
 70
    64
  9
$PLIMCHECK
 70
     0
  9
$PEXTMIN
 10
1.000000000000000E+20
 20
1.000000000000000E+20
 30
1.000000000000000E+20
  9
$PEXTMAX
 10
-1.000000000000000E+20
 20
-1.000000000000000E+20
 30
-1.000000000000000E+20
  9
$PLIMMIN
 10
0.0
 20
0.0
  9
$PLIMMAX
 10
12.0
 20
9.0
  9
$UNITMODE
 70
     0
  9
$VISRETAIN
 70
     1
  9
$PLINEGEN
 70
     0
  9
$PSLTSCALE
 70
     1
  0
ENDSEC
  0
SECTION
  2
TABLES
  0
TABLE
  2
VPORT
 70
     1
  0
VPORT
  2
*ACTIVE
 70
     0
 10
0.0
 20
0.0
 11
1.0
 21
1.0
 12
10.42990654205607
 22
4.5
 13
0.0
 23
0.0
 14
0.5
 24
0.5
 15
0.5
 25
0.5
 16
0.0
 26
0.0
 36
1.0
 17
0.0
 27
0.0
 37
0.0
 40
9.0
 41
1.972972972850329
 42
50.0
 43
0.0
 44
0.0
 50
0.0
 51
0.0
 71
     0
 72
   100
 73
     1
 74
     3
 75
     0
 76
     0
 77
     0
 78
     0
  0
ENDTAB
  0
TABLE
  2
LTYPE
 70
     1
  0
LTYPE
  2
CONTINUOUS
 70
     0
  3
Solid line
 72
    65
 73
     0
 40
0.0
  0
ENDTAB
  0
TABLE
  2
LAYER
 70
     2
  0
LAYER
  2
0
 70
     0
 62
     7
  6
CONTINUOUS
  0
LAYER
  2
DEFAULT
 70
     0
 62
     7
  6
CONTINUOUS
  0
ENDTAB
  0
TABLE
  2
STYLE
 70
     1
  0
STYLE
  2
STANDARD
 70
     0
 40
0.0
 41
1.0
 50
0.0
 71
     0
 42
0.2
  3
txt
  4

  0
ENDTAB
  0
TABLE
  2
VIEW
 70
     0
  0
ENDTAB
  0
TABLE
  2
UCS
 70
     0
  0
ENDTAB
  0
TABLE
  2
APPID
 70
     2
  0
APPID
  2
ACAD
 70
     0
  0
APPID
  2
RHINO
 70
     0
  0
ENDTAB
  0
TABLE
  2
DIMSTYLE
 70
     1
  0
DIMSTYLE
  2
STANDARD_ACAD
 70
     0
  3

  4

  5

  6

  7

 40
1.0
 41
0.18
 42
0.0625
 43
0.38
 44
0.18
 45
0.0
 46
0.0
 47
0.0
 48
0.0
140
0.18
141
0.09
142
0.0
143
25.4
144
1.0
145
0.0
146
1.0
147
0.09
 71
     0
 72
     0
 73
     1
 74
     1
 75
     0
 76
     0
 77
     0
 78
     0
170
     0
171
     2
172
     0
173
     0
174
     0
175
     0
176
     0
177
     0
178
     0
  0
ENDTAB
  0
ENDSEC
  0
SECTION
  2
BLOCKS
  0
BLOCK
  8
0
  2
$MODEL_SPACE
 70
     0
 10
0.0
 20
0.0
 30
0.0
  3
$MODEL_SPACE
  1

  0
ENDBLK
  5
21
  8
0
  0
BLOCK
 67
     1
  8
0
  2
$PAPER_SPACE
 70
     0
 10
0.0
 20
0.0
 30
0.0
  3
$PAPER_SPACE
  1

  0
ENDBLK
  5
1D
 67
     1
  8
0
  0
ENDSEC
  0
SECTION
  2
ENTITIES
  0
POLYLINE
  5
60
  8
DEFAULT
 66
     1
 10
0.0
 20
0.0
 30
11.0
 70
     1
  0
VERTEX
  5
61
  8
DEFAULT
 10
270.8902376701756
 20
-240.9140017352891
 30
11.0
  0
VERTEX
  5
62
  8
DEFAULT
 10
270.5943802834042
 20
-241.8141510188553
 30
11.0
  0
VERTEX
  5
63
  8
DEFAULT
 10
270.3018518342955
 20
-242.6379653347637
 30
11.0
  0
VERTEX
  5
64
  8
DEFAULT
 10
270.0095313974067
 20
-243.4035447268919
 30
11.0
  0
VERTEX
  5
65
  8
DEFAULT
 10
269.7142980472958
 20
-244.1289892391175
 30
11.0
  0
VERTEX
  5
66
  8
DEFAULT
 10
269.4136849097187
 20
-244.8289231822548
 30
11.0
  0
VERTEX
  5
67
  8
DEFAULT
 10
269.1078413152252
 20
-245.504067934864
 30
11.0
  0
VERTEX
  5
68
  8
DEFAULT
 10
268.7975706455633
 20
-246.151669142442
 30
11.0
  0
VERTEX
  5
69
  8
DEFAULT
 10
268.4836762824811
 20
-246.7689724504858
 30
11.0
  0
VERTEX
  5
6A
  8
DEFAULT
 10
268.1667484841478
 20
-247.3544695220054
 30
11.0
  0
VERTEX
  5
6B
  8
DEFAULT
 10
267.8465250144162
 20
-247.9116360900645
 30
11.0
  0
VERTEX
  5
6C
  8
DEFAULT
 10
267.5225305135601
 20
-248.4451939052396
 30
11.0
  0
VERTEX
  5
6D
  8
DEFAULT
 10
267.1942896218534
 20
-248.9598647181077
 30
11.0
  0
VERTEX
  5
6E
  8
DEFAULT
 10
266.8623243243587
 20
-249.4584028831719
 30
11.0
  0
VERTEX
  5
6F
  8
DEFAULT
 10
266.5311459852935
 20
-249.9356931706405
 30
11.0
  0
VERTEX
  5
70
  8
DEFAULT
 10
266.206263313664
 20
-250.3846529546485
 30
11.0
  0
VERTEX
  5
71
  8
DEFAULT
 10
265.8931850184764
 20
-250.7981996093308
 30
11.0
  0
VERTEX
  5
72
  8
DEFAULT
 10
265.594392936891
 20
-251.1724596478476
 30
11.0
  0
VERTEX
  5
73
  8
DEFAULT
 10
265.4475353899945
 20
-251.3474575739994
 30
11.0
  0
VERTEX
  5
74
  8
DEFAULT
 10
265.300261418684
 20
-251.5163961394614
 30
11.0
  0
VERTEX
  5
75
  8
DEFAULT
 10
265.1509894577006
 20
-251.6807968702697
 30
11.0
  0
VERTEX
  5
76
  8
DEFAULT
 10
264.9981379417857
 20
-251.8421812924603
 30
11.0
  0
VERTEX
  5
77
  8
DEFAULT
 10
264.8401253056805
 20
-252.002070932069
 30
11.0
  0
VERTEX
  5
78
  8
DEFAULT
 10
264.6753699841265
 20
-252.161987315132
 30
11.0
  0
VERTEX
  5
79
  8
DEFAULT
 10
264.5027218512244
 20
-252.3230066502564
 30
11.0
  0
VERTEX
  5
7A
  8
DEFAULT
 10
264.3227565385134
 20
-252.4844238763336
 30
11.0
  0
VERTEX
  5
7B
  8
DEFAULT
 10
264.1364811168926
 20
-252.6450886148263
 30
11.0
  0
VERTEX
  5
7C
  8
DEFAULT
 10
263.9449026572609
 20
-252.8038504871972
 30
11.0
  0
VERTEX
  5
7D
  8
DEFAULT
 10
263.7490282305173
 20
-252.9595591149088
 30
11.0
  0
VERTEX
  5
7E
  8
DEFAULT
 10
263.5498649075605
 20
-253.1110641194239
 30
11.0
  0
VERTEX
  5
7F
  8
DEFAULT
 10
263.3484197592896
 20
-253.2572151222051
 30
11.0
  0
VERTEX
  5
80
  8
DEFAULT
 10
263.1456998566035
 20
-253.3968617447151
 30
11.0
  0
VERTEX
  5
81
  8
DEFAULT
 10
262.9426153491747
 20
-253.5291307521731
 30
11.0
  0
VERTEX
  5
82
  8
DEFAULT
 10
262.7396887017704
 20
-253.6542574848255
 30
11.0
  0
VERTEX
  5
83
  8
DEFAULT
 10
262.5373454579316
 20
-253.7727544266751
 30
11.0
  0
VERTEX
  5
84
  8
DEFAULT
 10
262.3360111611989
 20
-253.8851340617249
 30
11.0
  0
VERTEX
  5
85
  8
DEFAULT
 10
261.9380715832154
 20
-254.093591347437
 30
11.0
  0
VERTEX
  5
86
  8
DEFAULT
 10
261.5492743161466
 20
-254.2837292139853
 30
11.0
  0
VERTEX
  5
87
  8
DEFAULT
 10
261.1693746228724
 20
-254.4597877318739
 30
11.0
  0
VERTEX
  5
88
  8
DEFAULT
 10
260.7835314244858
 20
-254.6265677655285
 30
11.0
  0
VERTEX
  5
89
  8
DEFAULT
 10
260.373254556633
 20
-254.7890103778555
 30
11.0
  0
VERTEX
  5
8A
  8
DEFAULT
 10
259.9200538549602
 20
-254.9520566317609
 30
11.0
  0
VERTEX
  5
8B
  8
DEFAULT
 10
259.4118960907925
 20
-255.1188740953226
 30
11.0
  0
VERTEX
  5
8C
  8
DEFAULT
 10
258.86257577817
 20
-255.2855363573036
 30
11.0
  0
VERTEX
  5
8D
  8
DEFAULT
 10
258.292344366812
 20
-255.4463435116388
 30
11.0
  0
VERTEX
  5
8E
  8
DEFAULT
 10
257.7214533064375
 20
-255.5955956522625
 30
11.0
  0
VERTEX
  5
8F
  8
DEFAULT
 10
257.1644212575778
 20
-255.728878442301
 30
11.0
  0
VERTEX
  5
90
  8
DEFAULT
 10
256.6128357240132
 20
-255.8469198216461
 30
11.0
  0
VERTEX
  5
91
  8
DEFAULT
 10
256.0525514203358
 20
-255.9517332993809
 30
11.0
  0
VERTEX
  5
92
  8
DEFAULT
 10
255.4694230611382
 20
-256.0453323845888
 30
11.0
  0
VERTEX
  5
93
  8
DEFAULT
 10
254.8518526516661
 20
-256.1297783716493
 30
11.0
  0
VERTEX
  5
94
  8
DEFAULT
 10
252.7885899628169
 20
-256.3509132407781
 30
11.0
  0
VERTEX
  5
95
  8
DEFAULT
 10
251.2990073681693
 20
-256.4841866433862
 30
11.0
  0
VERTEX
  5
96
  8
DEFAULT
 10
249.9887953930048
 20
-256.5739649606244
 30
11.0
  0
VERTEX
  5
97
  8
DEFAULT
 10
249.4813178785233
 20
-256.590868098769
 30
11.0
  0
VERTEX
  5
98
  8
DEFAULT
 10
249.0372009932108
 20
-256.5920879128619
 30
11.0
  0
VERTEX
  5
99
  8
DEFAULT
 10
246.1037323985428
 20
-256.5193158550302
 30
11.0
  0
VERTEX
  5
9A
  8
DEFAULT
 10
245.3447997716812
 20
-256.4772232039491
 30
11.0
  0
VERTEX
  5
9B
  8
DEFAULT
 10
244.5828853398531
 20
-256.4139967657512
 30
11.0
  0
VERTEX
  5
9C
  8
DEFAULT
 10
243.8234686066602
 20
-256.3320917858125
 30
11.0
  0
VERTEX
  5
9D
  8
DEFAULT
 10
242.3155157003139
 20
-256.1291122559987
 30
11.0
  0
VERTEX
  5
9E
  8
DEFAULT
 10
241.5654537223823
 20
-256.0136819232724
 30
11.0
  0
VERTEX
  5
9F
  8
DEFAULT
 10
240.80195968615
 20
-255.879706241126
 30
11.0
  0
VERTEX
  5
A0
  8
DEFAULT
 10
240.0065632365807
 20
-255.7146688604154
 30
11.0
  0
VERTEX
  5
A1
  8
DEFAULT
 10
239.5911296208458
 20
-255.6165906739911
 30
11.0
  0
VERTEX
  5
A2
  8
DEFAULT
 10
239.1607940186382
 20
-255.5060534319968
 30
11.0
  0
VERTEX
  5
A3
  8
DEFAULT
 10
238.7141503516579
 20
-255.3819127071452
 30
11.0
  0
VERTEX
  5
A4
  8
DEFAULT
 10
238.2534034059236
 20
-255.2447045375725
 30
11.0
  0
VERTEX
  5
A5
  8
DEFAULT
 10
237.3020296865864
 20
-254.9349104822305
 30
11.0
  0
VERTEX
  5
A6
  8
DEFAULT
 10
236.3315328774132
 20
-254.5843205019052
 30
11.0
  0
VERTEX
  5
A7
  8
DEFAULT
 10
235.3667729951908
 20
-254.200583832531
 30
11.0
  0
VERTEX
  5
A8
  8
DEFAULT
 10
234.8936624406806
 20
-253.9983704374396
 30
11.0
  0
VERTEX
  5
A9
  8
DEFAULT
 10
234.427404326695
 20
-253.7889062041187
 30
11.0
  0
VERTEX
  5
AA
  8
DEFAULT
 10
233.9672018578241
 20
-253.5713146576176
 30
11.0
  0
VERTEX
  5
AB
  8
DEFAULT
 10
233.512258238658
 20
-253.3447193229854
 30
11.0
  0
VERTEX
  5
AC
  8
DEFAULT
 10
233.0617766737871
 20
-253.1082437252713
 30
11.0
  0
VERTEX
  5
AD
  8
DEFAULT
 10
232.6149603678012
 20
-252.8610113895245
 30
11.0
  0
VERTEX
  5
AE
  8
DEFAULT
 10
232.1710125252908
 20
-252.6021458407942
 30
11.0
  0
VERTEX
  5
AF
  8
DEFAULT
 10
231.7291363508461
 20
-252.3307706041295
 30
11.0
  0
VERTEX
  5
B0
  8
DEFAULT
 10
231.2889727319372
 20
-252.0464123092594
 30
11.0
  0
VERTEX
  5
B1
  8
DEFAULT
 10
230.8519132875555
 20
-251.7502100046322
 30
11.0
  0
VERTEX
  5
B2
  8
DEFAULT
 10
230.4197873195725
 20
-251.4437058433754
 30
11.0
  0
VERTEX
  5
B3
  8
DEFAULT
 10
229.9944241298596
 20
-251.1284419786172
 30
11.0
  0
VERTEX
  5
B4
  8
DEFAULT
 10
229.5776530202884
 20
-250.8059605634853
 30
11.0
  0
VERTEX
  5
B5
  8
DEFAULT
 10
229.1713032927302
 20
-250.4778037511075
 30
11.0
  0
VERTEX
  5
B6
  8
DEFAULT
 10
228.7772042490566
 20
-250.1455136946119
 30
11.0
  0
VERTEX
  5
B7
  8
DEFAULT
 10
228.3971851911391
 20
-249.8106325471262
 30
11.0
  0
VERTEX
  5
B8
  8
DEFAULT
 10
228.0325381000853
 20
-249.4743522440245
 30
11.0
  0
VERTEX
  5
B9
  8
DEFAULT
 10
227.6824056739478
 20
-249.1364638496654
 30
11.0
  0
VERTEX
  5
BA
  8
DEFAULT
 10
227.3453932900154
 20
-248.7964082106537
 30
11.0
  0
VERTEX
  5
BB
  8
DEFAULT
 10
227.020106325577
 20
-248.4536261735942
 30
11.0
  0
VERTEX
  5
BC
  8
DEFAULT
 10
226.7051501579213
 20
-248.1075585850917
 30
11.0
  0
VERTEX
  5
BD
  8
DEFAULT
 10
226.3991301643372
 20
-247.757646291751
 30
11.0
  0
VERTEX
  5
BE
  8
DEFAULT
 10
225.808320208539
 20
-247.0440509769741
 30
11.0
  0
VERTEX
  5
BF
  8
DEFAULT
 10
225.2365376445455
 20
-246.3051144106154
 30
11.0
  0
VERTEX
  5
C0
  8
DEFAULT
 10
224.9543223297765
 20
-245.919866387375
 30
11.0
  0
VERTEX
  5
C1
  8
DEFAULT
 10
224.6727163309304
 20
-245.5201004080804
 30
11.0
  0
VERTEX
  5
C2
  8
DEFAULT
 10
224.3903386513354
 20
-245.1028178757215
 30
11.0
  0
VERTEX
  5
C3
  8
DEFAULT
 10
224.1058082943199
 20
-244.6650201932881
 30
11.0
  0
VERTEX
  5
C4
  8
DEFAULT
 10
223.5247655613403
 20
-243.7158849901575
 30
11.0
  0
VERTEX
  5
C5
  8
DEFAULT
 10
222.9250293433415
 20
-242.6611616719202
 30
11.0
  0
VERTEX
  5
C6
  8
DEFAULT
 10
222.3279975905676
 20
-241.5391397090578
 30
11.0
  0
VERTEX
  5
C7
  8
DEFAULT
 10
221.7615574379863
 20
-240.4005642213648
 30
11.0
  0
VERTEX
  5
C8
  8
DEFAULT
 10
221.2535960205652
 20
-239.2961803286354
 30
11.0
  0
VERTEX
  5
C9
  8
DEFAULT
 10
221.0293486955127
 20
-238.7714234647604
 30
11.0
  0
VERTEX
  5
CA
  8
DEFAULT
 10
220.8247134996358
 20
-238.2667762262044
 30
11.0
  0
VERTEX
  5
CB
  8
DEFAULT
 10
220.4663621419839
 20
-237.313312411568
 30
11.0
  0
VERTEX
  5
CC
  8
DEFAULT
 10
220.1627072407592
 20
-236.4267924577632
 30
11.0
  0
VERTEX
  5
CD
  8
DEFAULT
 10
219.657741815657
 20
-234.8107013456937
 30
11.0
  0
VERTEX
  5
CE
  8
DEFAULT
 10
219.4343248908814
 20
-234.015754858893
 30
11.0
  0
VERTEX
  5
CF
  8
DEFAULT
 10
219.2213916207371
 20
-233.1570015758517
 30
11.0
  0
VERTEX
  5
D0
  8
DEFAULT
 10
219.0126703111763
 20
-232.1780625949969
 30
11.0
  0
VERTEX
  5
D1
  8
DEFAULT
 10
218.8054996230395
 20
-231.0462057896889
 30
11.0
  0
VERTEX
  5
D2
  8
DEFAULT
 10
218.6116596367185
 20
-229.8232861330212
 30
11.0
  0
VERTEX
  5
D3
  8
DEFAULT
 10
218.4465407874933
 20
-228.5948053730199
 30
11.0
  0
VERTEX
  5
D4
  8
DEFAULT
 10
218.3255335106439
 20
-227.4462652577115
 30
11.0
  0
VERTEX
  5
D5
  8
DEFAULT
 10
218.2858162623959
 20
-226.9263312236496
 30
11.0
  0
VERTEX
  5
D6
  8
DEFAULT
 10
218.2595085575373
 20
-226.4442794197161
 30
11.0
  0
VERTEX
  5
D7
  8
DEFAULT
 10
218.2451444375436
 20
-225.9966314778596
 30
11.0
  0
VERTEX
  5
D8
  8
DEFAULT
 10
218.2412579438902
 20
-225.5799090300288
 30
11.0
  0
VERTEX
  5
D9
  8
DEFAULT
 10
218.2463831180528
 20
-225.1906337081721
 30
11.0
  0
VERTEX
  5
DA
  8
DEFAULT
 10
218.2590540015067
 20
-224.8253271442381
 30
11.0
  0
VERTEX
  5
DB
  8
DEFAULT
 10
218.3011690621906
 20
-224.1527068179329
 30
11.0
  0
VERTEX
  5
DC
  8
DEFAULT
 10
218.3281469808506
 20
-223.8388985386287
 30
11.0
  0
VERTEX
  5
DD
  8
DEFAULT
 10
218.3596007255781
 20
-223.5379188600616
 30
11.0
  0
VERTEX
  5
DE
  8
DEFAULT
 10
218.396858288723
 20
-223.2490627292002
 30
11.0
  0
VERTEX
  5
DF
  8
DEFAULT
 10
218.4412476626348
 20
-222.9716250930131
 30
11.0
  0
VERTEX
  5
E0
  8
DEFAULT
 10
218.4665317762376
 20
-222.8369678813501
 30
11.0
  0
VERTEX
  5
E1
  8
DEFAULT
 10
218.4940968396634
 20
-222.7049008984689
 30
11.0
  0
VERTEX
  5
E2
  8
DEFAULT
 10
218.5241088519557
 20
-222.5753360127406
 30
11.0
  0
VERTEX
  5
E3
  8
DEFAULT
 10
218.5567338121583
 20
-222.4481850925363
 30
11.0
  0
VERTEX
  5
E4
  8
DEFAULT
 10
218.592137719315
 20
-222.3233600062269
 30
11.0
  0
VERTEX
  5
E5
  8
DEFAULT
 10
218.6304865724694
 20
-222.2007726221837
 30
11.0
  0
VERTEX
  5
E6
  8
DEFAULT
 10
218.6719463706654
 20
-222.0803348087776
 30
11.0
  0
VERTEX
  5
E7
  8
DEFAULT
 10
218.7166831129464
 20
-221.9619584343799
 30
11.0
  0
VERTEX
  5
E8
  8
DEFAULT
 10
218.7648064406564
 20
-221.8455592813749
 30
11.0
  0
VERTEX
  5
E9
  8
DEFAULT
 10
218.8162005643388
 20
-221.7310687882015
 30
11.0
  0
VERTEX
  5
EA
  8
DEFAULT
 10
218.8706933368372
 20
-221.6184223073118
 30
11.0
  0
VERTEX
  5
EB
  8
DEFAULT
 10
218.9281126109952
 20
-221.5075551911579
 30
11.0
  0
VERTEX
  5
EC
  8
DEFAULT
 10
218.9882862396563
 20
-221.3984027921921
 30
11.0
  0
VERTEX
  5
ED
  8
DEFAULT
 10
219.0510420756641
 20
-221.2909004628665
 30
11.0
  0
VERTEX
  5
EE
  8
DEFAULT
 10
219.1162079718621
 20
-221.1849835556333
 30
11.0
  0
VERTEX
  5
EF
  8
DEFAULT
 10
219.1836117810939
 20
-221.0805874229448
 30
11.0
  0
VERTEX
  5
F0
  8
DEFAULT
 10
219.253081356203
 20
-220.9776474172531
 30
11.0
  0
VERTEX
  5
F1
  8
DEFAULT
 10
219.324444550033
 20
-220.8760988910103
 30
11.0
  0
VERTEX
  5
F2
  8
DEFAULT
 10
219.4721632052299
 20
-220.6769176866803
 30
11.0
  0
VERTEX
  5
F3
  8
DEFAULT
 10
219.625390569433
 20
-220.4825266295724
 30
11.0
  0
VERTEX
  5
F4
  8
DEFAULT
 10
219.7827494653909
 20
-220.292408539304
 30
11.0
  0
VERTEX
  5
F5
  8
DEFAULT
 10
219.9432807875175
 20
-220.1059886068026
 30
11.0
  0
VERTEX
  5
F6
  8
DEFAULT
 10
220.1076977168895
 20
-219.9224615082364
 30
11.0
  0
VERTEX
  5
F7
  8
DEFAULT
 10
220.2771315062494
 20
-219.7409642910835
 30
11.0
  0
VERTEX
  5
F8
  8
DEFAULT
 10
220.4527134083395
 20
-219.560634002822
 30
11.0
  0
VERTEX
  5
F9
  8
DEFAULT
 10
220.635574675902
 20
-219.38060769093
 30
11.0
  0
VERTEX
  5
FA
  8
DEFAULT
 10
220.8268465616795
 20
-219.2000224028857
 30
11.0
  0
VERTEX
  5
FB
  8
DEFAULT
 10
221.0276603184141
 20
-219.0180151861674
 30
11.0
  0
VERTEX
  5
FC
  8
DEFAULT
 10
221.2391471988484
 20
-218.833723088253
 30
11.0
  0
VERTEX
  5
FD
  8
DEFAULT
 10
221.4619302117389
 20
-218.6467056964848
 30
11.0
  0
VERTEX
  5
FE
  8
DEFAULT
 10
221.6945993898995
 20
-218.4582127576614
 30
11.0
  0
VERTEX
  5
FF
  8
DEFAULT
 10
222.1819233973438
 20
-218.0834893854993
 30
11.0
  0
VERTEX
  5
100
  8
DEFAULT
 10
222.4327418042838
 20
-217.9006035254858
 30
11.0
  0
VERTEX
  5
101
  8
DEFAULT
 10
222.6857735318067
 20
-217.7229312650675
 30
11.0
  0
VERTEX
  5
102
  8
DEFAULT
 10
222.9391003687407
 20
-217.552144890907
 30
11.0
  0
VERTEX
  5
103
  8
DEFAULT
 10
223.1908041039139
 20
-217.3899166896669
 30
11.0
  0
VERTEX
  5
104
  8
DEFAULT
 10
223.439822380077
 20
-217.237356023329
 30
11.0
  0
VERTEX
  5
105
  8
DEFAULT
 10
223.6885162556703
 20
-217.0933205551518
 30
11.0
  0
VERTEX
  5
106
  8
DEFAULT
 10
223.9401026430566
 20
-216.9561050237133
 30
11.0
  0
VERTEX
  5
107
  8
DEFAULT
 10
224.1977984545987
 20
-216.8240041675911
 30
11.0
  0
VERTEX
  5
108
  8
DEFAULT
 10
224.4648206026594
 20
-216.695312725363
 30
11.0
  0
VERTEX
  5
109
  8
DEFAULT
 10
224.7443859996014
 20
-216.5683254356068
 30
11.0
  0
VERTEX
  5
10A
  8
DEFAULT
 10
225.3540141895809
 20
-216.3126422678214
 30
11.0
  0
VERTEX
  5
10B
  8
DEFAULT
 10
226.0427640875752
 20
-216.0475754867986
 30
11.0
  0
VERTEX
  5
10C
  8
DEFAULT
 10
226.7880998131656
 20
-215.7807975708683
 30
11.0
  0
VERTEX
  5
10D
  8
DEFAULT
 10
227.5578312500695
 20
-215.5242439123018
 30
11.0
  0
VERTEX
  5
10E
  8
DEFAULT
 10
228.3197682820037
 20
-215.2898499033706
 30
11.0
  0
VERTEX
  5
10F
  8
DEFAULT
 10
229.0500634311674
 20
-215.0858861951584
 30
11.0
  0
VERTEX
  5
110
  8
DEFAULT
 10
229.7582397736863
 20
-214.9059644739988
 30
11.0
  0
VERTEX
  5
111
  8
DEFAULT
 10
232.686461970164
 20
-214.2492545955096
 30
11.0
  0
VERTEX
  5
112
  8
DEFAULT
 10
233.4555826752248
 20
-214.0948402894743
 30
11.0
  0
VERTEX
  5
113
  8
DEFAULT
 10
234.2184077128499
 20
-213.9572906649514
 30
11.0
  0
VERTEX
  5
114
  8
DEFAULT
 10
234.9653624221475
 20
-213.8417258347711
 30
11.0
  0
VERTEX
  5
115
  8
DEFAULT
 10
237.1479916262601
 20
-213.5663589374646
 30
11.0
  0
VERTEX
  5
116
  8
DEFAULT
 10
240.1405322140273
 20
-213.2082943612589
 30
11.0
  0
VERTEX
  5
117
  8
DEFAULT
 10
241.7931449158973
 20
-213.0724128724385
 30
11.0
  0
VERTEX
  5
118
  8
DEFAULT
 10
243.6409233082739
 20
-212.9774532219501
 30
11.0
  0
VERTEX
  5
119
  8
DEFAULT
 10
245.780800281459
 20
-212.9264077116881
 30
11.0
  0
VERTEX
  5
11A
  8
DEFAULT
 10
248.395248250049
 20
-212.9468291859955
 30
11.0
  0
VERTEX
  5
11B
  8
DEFAULT
 10
251.5876938088342
 20
-213.0676554230038
 30
11.0
  0
VERTEX
  5
11C
  8
DEFAULT
 10
255.0598407490854
 20
-213.2988033935491
 30
11.0
  0
VERTEX
  5
11D
  8
DEFAULT
 10
258.4121887346386
 20
-213.6312538816898
 30
11.0
  0
VERTEX
  5
11E
  8
DEFAULT
 10
261.2421437231101
 20
-213.9992637316679
 30
11.0
  0
VERTEX
  5
11F
  8
DEFAULT
 10
262.353345941915
 20
-214.1747687764384
 30
11.0
  0
VERTEX
  5
120
  8
DEFAULT
 10
263.2917337057063
 20
-214.3480420272916
 30
11.0
  0
VERTEX
  5
121
  8
DEFAULT
 10
264.1159326759752
 20
-214.5279428850284
 30
11.0
  0
VERTEX
  5
122
  8
DEFAULT
 10
264.8845685142131
 20
-214.7233307504503
 30
11.0
  0
VERTEX
  5
123
  8
DEFAULT
 10
265.2649820627527
 20
-214.8296053586382
 30
11.0
  0
VERTEX
  5
124
  8
DEFAULT
 10
265.6451571596409
 20
-214.9431009031167
 30
11.0
  0
VERTEX
  5
125
  8
DEFAULT
 10
266.0240897208615
 20
-215.0649517180549
 30
11.0
  0
VERTEX
  5
126
  8
DEFAULT
 10
266.4007756623982
 20
-215.1962921376217
 30
11.0
  0
VERTEX
  5
127
  8
DEFAULT
 10
266.7742109002346
 20
-215.3382564959863
 30
11.0
  0
VERTEX
  5
128
  8
DEFAULT
 10
267.1433913503544
 20
-215.4919791273176
 30
11.0
  0
VERTEX
  5
129
  8
DEFAULT
 10
267.3260722537653
 20
-215.5736042747737
 30
11.0
  0
VERTEX
  5
12A
  8
DEFAULT
 10
267.507312928741
 20
-215.6585943657848
 30
11.0
  0
VERTEX
  5
12B
  8
DEFAULT
 10
267.6869878647793
 20
-215.7470911921222
 30
11.0
  0
VERTEX
  5
12C
  8
DEFAULT
 10
267.8649715513783
 20
-215.8392365455569
 30
11.0
  0
VERTEX
  5
12D
  8
DEFAULT
 10
268.0411248181198
 20
-215.9350916837573
 30
11.0
  0
VERTEX
  5
12E
  8
DEFAULT
 10
268.2152538549215
 20
-216.0343957279805
 30
11.0
  0
VERTEX
  5
12F
  8
DEFAULT
 10
268.3871511917848
 20
-216.1368072653808
 30
11.0
  0
VERTEX
  5
130
  8
DEFAULT
 10
268.5566093587114
 20
-216.2419848831125
 30
11.0
  0
VERTEX
  5
131
  8
DEFAULT
 10
268.887378302761
 20
-216.4592727081873
 30
11.0
  0
VERTEX
  5
132
  8
DEFAULT
 10
269.205900927083
 20
-216.6835279004395
 30
11.0
  0
VERTEX
  5
133
  8
DEFAULT
 10
269.5105174716898
 20
-216.9120191571033
 30
11.0
  0
VERTEX
  5
134
  8
DEFAULT
 10
269.7995681765943
 20
-217.1420151754135
 30
11.0
  0
VERTEX
  5
135
  8
DEFAULT
 10
270.071393281809
 20
-217.3707846526042
 30
11.0
  0
VERTEX
  5
136
  8
DEFAULT
 10
270.3243330273468
 20
-217.5955962859101
 30
11.0
  0
VERTEX
  5
137
  8
DEFAULT
 10
270.5572018194738
 20
-217.8141296224524
 30
11.0
  0
VERTEX
  5
138
  8
DEFAULT
 10
270.7707107294716
 20
-218.0257076089001
 30
11.0
  0
VERTEX
  5
139
  8
DEFAULT
 10
270.9660449948752
 20
-218.2300640418089
 30
11.0
  0
VERTEX
  5
13A
  8
DEFAULT
 10
271.1443898532196
 20
-218.4269327177346
 30
11.0
  0
VERTEX
  5
13B
  8
DEFAULT
 10
271.3069305420402
 20
-218.6160474332328
 30
11.0
  0
VERTEX
  5
13C
  8
DEFAULT
 10
271.4548522988716
 20
-218.7971419848595
 30
11.0
  0
VERTEX
  5
13D
  8
DEFAULT
 10
271.5893403612492
 20
-218.9699501691703
 30
11.0
  0
VERTEX
  5
13E
  8
DEFAULT
 10
271.7115799667081
 20
-219.1342057827211
 30
11.0
  0
VERTEX
  5
13F
  8
DEFAULT
 10
271.8228228050696
 20
-219.2901135721712
 30
11.0
  0
VERTEX
  5
140
  8
DEFAULT
 10
271.9245863752992
 20
-219.4397620845951
 30
11.0
  0
VERTEX
  5
141
  8
DEFAULT
 10
272.0184546286494
 20
-219.5857108171708
 30
11.0
  0
VERTEX
  5
142
  8
DEFAULT
 10
272.106011516372
 20
-219.7305192670763
 30
11.0
  0
VERTEX
  5
143
  8
DEFAULT
 10
272.188840989719
 20
-219.8767469314896
 30
11.0
  0
VERTEX
  5
144
  8
DEFAULT
 10
272.2685269999427
 20
-220.0269533075889
 30
11.0
  0
VERTEX
  5
145
  8
DEFAULT
 10
272.346653498295
 20
-220.1836978925521
 30
11.0
  0
VERTEX
  5
146
  8
DEFAULT
 10
272.424804436028
 20
-220.3495401835574
 30
11.0
  0
VERTEX
  5
147
  8
DEFAULT
 10
272.5041913777438
 20
-220.5265435703514
 30
11.0
  0
VERTEX
  5
148
  8
DEFAULT
 10
272.5845363414444
 20
-220.7147870129558
 30
11.0
  0
VERTEX
  5
149
  8
DEFAULT
 10
272.665188958482
 20
-220.913853363961
 30
11.0
  0
VERTEX
  5
14A
  8
DEFAULT
 10
272.7454988602084
 20
-221.1233254759573
 30
11.0
  0
VERTEX
  5
14B
  8
DEFAULT
 10
272.8248156779761
 20
-221.342786201535
 30
11.0
  0
VERTEX
  5
14C
  8
DEFAULT
 10
272.9024890431371
 20
-221.5718183932845
 30
11.0
  0
VERTEX
  5
14D
  8
DEFAULT
 10
272.9778685870434
 20
-221.8100049037962
 30
11.0
  0
VERTEX
  5
14E
  8
DEFAULT
 10
273.0503039410471
 20
-222.0569285856604
 30
11.0
  0
VERTEX
  5
14F
  8
DEFAULT
 10
273.1191790629809
 20
-222.3124357144653
 30
11.0
  0
VERTEX
  5
150
  8
DEFAULT
 10
273.1840152166
 20
-222.5774262577904
 30
11.0
  0
VERTEX
  5
151
  8
DEFAULT
 10
273.2443679921396
 20
-222.853063606213
 30
11.0
  0
VERTEX
  5
152
  8
DEFAULT
 10
273.2997929798354
 20
-223.1405111503106
 30
11.0
  0
VERTEX
  5
153
  8
DEFAULT
 10
273.3498457699231
 20
-223.4409322806605
 30
11.0
  0
VERTEX
  5
154
  8
DEFAULT
 10
273.3940819526381
 20
-223.7554903878402
 30
11.0
  0
VERTEX
  5
155
  8
DEFAULT
 10
273.432057118216
 20
-224.0853488624269
 30
11.0
  0
VERTEX
  5
156
  8
DEFAULT
 10
273.4633268568923
 20
-224.431671094998
 30
11.0
  0
VERTEX
  5
157
  8
DEFAULT
 10
273.4875115376333
 20
-224.7954457849653
 30
11.0
  0
VERTEX
  5
158
  8
DEFAULT
 10
273.5044906443273
 20
-225.1769628670781
 30
11.0
  0
VERTEX
  5
159
  8
DEFAULT
 10
273.5142084395935
 20
-225.57633758492
 30
11.0
  0
VERTEX
  5
15A
  8
DEFAULT
 10
273.5166091860511
 20
-225.9936851820747
 30
11.0
  0
VERTEX
  5
15B
  8
DEFAULT
 10
273.4992365830163
 20
-226.8827599886572
 30
11.0
  0
VERTEX
  5
15C
  8
DEFAULT
 10
273.4519269361758
 20
-227.8451092354949
 30
11.0
  0
VERTEX
  5
15D
  8
DEFAULT
 10
273.3744586787833
 20
-228.8778998094206
 30
11.0
  0
VERTEX
  5
15E
  8
DEFAULT
 10
273.2675075732981
 20
-229.9632783499202
 30
11.0
  0
VERTEX
  5
15F
  8
DEFAULT
 10
273.1319737144802
 20
-231.0796364346431
 30
11.0
  0
VERTEX
  5
160
  8
DEFAULT
 10
272.9687571970901
 20
-232.2053656412387
 30
11.0
  0
VERTEX
  5
161
  8
DEFAULT
 10
272.7788788428828
 20
-233.323328034219
 30
11.0
  0
VERTEX
  5
162
  8
DEFAULT
 10
272.5638423815928
 20
-234.4342676255471
 30
11.0
  0
VERTEX
  5
163
  8
DEFAULT
 10
272.3252722699494
 20
-235.5433989140486
 30
11.0
  0
VERTEX
  5
164
  8
DEFAULT
 10
272.0647929646818
 20
-236.6559363985493
 30
11.0
  0
VERTEX
  5
165
  8
DEFAULT
 10
271.4913501912188
 20
-238.8707833836298
 30
11.0
  0
VERTEX
  5
166
  8
DEFAULT
 10
271.1909108241447
 20
-239.9267281019321
 30
11.0
  0
SEQEND
  5
167
  8
DEFAULT
  0
POLYLINE
  5
168
  8
DEFAULT
 66
     1
 10
0.0
 20
0.0
 30
11.0
 70
     1
  0
VERTEX
  5
169
  8
DEFAULT
 10
269.9437925636639
 20
-240.6810647924595
 30
11.0
  0
VERTEX
  5
16A
  8
DEFAULT
 10
269.6591306412707
 20
-241.5471517551582
 30
11.0
  0
VERTEX
  5
16B
  8
DEFAULT
 10
269.3776716870537
 20
-242.3397923223607
 30
11.0
  0
VERTEX
  5
16C
  8
DEFAULT
 10
269.0964128737193
 20
-243.0764016187723
 30
11.0
  0
VERTEX
  5
16D
  8
DEFAULT
 10
268.8123513739735
 20
-243.7743947690982
 30
11.0
  0
VERTEX
  5
16E
  8
DEFAULT
 10
268.5231136619353
 20
-244.4478426893142
 30
11.0
  0
VERTEX
  5
16F
  8
DEFAULT
 10
268.228843417375
 20
-245.0974394604772
 30
11.0
  0
VERTEX
  5
170
  8
DEFAULT
 10
267.9303136214756
 20
-245.7205349549148
 30
11.0
  0
VERTEX
  5
171
  8
DEFAULT
 10
267.6282972554202
 20
-246.3144790449543
 30
11.0
  0
VERTEX
  5
172
  8
DEFAULT
 10
267.323362241568
 20
-246.8778204702038
 30
11.0
  0
VERTEX
  5
173
  8
DEFAULT
 10
267.0152562669835
 20
-247.4139034393928
 30
11.0
  0
VERTEX
  5
174
  8
DEFAULT
 10
266.7035219599074
 20
-247.9272710285314
 30
11.0
  0
VERTEX
  5
175
  8
DEFAULT
 10
266.3877019485806
 20
-248.4224663136298
 30
11.0
  0
VERTEX
  5
176
  8
DEFAULT
 10
266.068298465761
 20
-248.9021394223604
 30
11.0
  0
VERTEX
  5
177
  8
DEFAULT
 10
265.7496521622764
 20
-249.3613686890456
 30
11.0
  0
VERTEX
  5
178
  8
DEFAULT
 10
265.437063293472
 20
-249.7933394996703
 30
11.0
  0
VERTEX
  5
179
  8
DEFAULT
 10
265.1358321146928
 20
-250.1912372402195
 30
11.0
  0
VERTEX
  5
17A
  8
DEFAULT
 10
264.8483465485282
 20
-250.5513349994871
 30
11.0
  0
VERTEX
  5
17B
  8
DEFAULT
 10
264.707046200838
 20
-250.7197108734743
 30
11.0
  0
VERTEX
  5
17C
  8
DEFAULT
 10
264.5653451865444
 20
-250.8822566775037
 30
11.0
  0
VERTEX
  5
17D
  8
DEFAULT
 10
264.4217217879988
 20
-251.0404363619301
 30
11.0
  0
VERTEX
  5
17E
  8
DEFAULT
 10
264.2746542875525
 20
-251.1957138771087
 30
11.0
  0
VERTEX
  5
17F
  8
DEFAULT
 10
264.1226209675568
 20
-251.3495531733942
 30
11.0
  0
VERTEX
  5
180
  8
DEFAULT
 10
263.9641001103631
 20
-251.5034182011417
 30
11.0
  0
VERTEX
  5
181
  8
DEFAULT
 10
263.7979851116949
 20
-251.6583444444212
 30
11.0
  0
VERTEX
  5
182
  8
DEFAULT
 10
263.6248298207641
 20
-251.8136535221628
 30
11.0
  0
VERTEX
  5
183
  8
DEFAULT
 10
263.4456032001553
 20
-251.9682385870119
 30
11.0
  0
VERTEX
  5
184
  8
DEFAULT
 10
263.2612742124528
 20
-252.1209927916137
 30
11.0
  0
VERTEX
  5
185
  8
DEFAULT
 10
263.0728118202408
 20
-252.2708092886135
 30
11.0
  0
VERTEX
  5
186
  8
DEFAULT
 10
262.8811849861037
 20
-252.4165812306567
 30
11.0
  0
VERTEX
  5
187
  8
DEFAULT
 10
262.6873626726257
 20
-252.5572017703883
 30
11.0
  0
VERTEX
  5
188
  8
DEFAULT
 10
262.4923138423912
 20
-252.6915640604539
 30
11.0
  0
VERTEX
  5
189
  8
DEFAULT
 10
262.2969142043298
 20
-252.8188279099285
 30
11.0
  0
VERTEX
  5
18A
  8
DEFAULT
 10
262.1016664527517
 20
-252.939219753608
 30
11.0
  0
VERTEX
  5
18B
  8
DEFAULT
 10
261.9069800283124
 20
-253.053232682718
 30
11.0
  0
VERTEX
  5
18C
  8
DEFAULT
 10
261.7132643716677
 20
-253.1613597884841
 30
11.0
  0
VERTEX
  5
18D
  8
DEFAULT
 10
261.330383124384
 20
-253.3619288948879
 30
11.0
  0
VERTEX
  5
18E
  8
DEFAULT
 10
260.9562982361451
 20
-253.5448718026247
 30
11.0
  0
VERTEX
  5
18F
  8
DEFAULT
 10
260.5907742308662
 20
-253.7142681347656
 30
11.0
  0
VERTEX
  5
190
  8
DEFAULT
 10
260.2195316271453
 20
-253.8747370874425
 30
11.0
  0
VERTEX
  5
191
  8
DEFAULT
 10
259.824779942251
 20
-254.0310327500527
 30
11.0
  0
VERTEX
  5
192
  8
DEFAULT
 10
259.3887286934518
 20
-254.1879092119935
 30
11.0
  0
VERTEX
  5
193
  8
DEFAULT
 10
258.8997999984289
 20
-254.3484141782018
 30
11.0
  0
VERTEX
  5
194
  8
DEFAULT
 10
258.3712663765134
 20
-254.5087698157732
 30
11.0
  0
VERTEX
  5
195
  8
DEFAULT
 10
257.822612947449
 20
-254.6634919073429
 30
11.0
  0
VERTEX
  5
196
  8
DEFAULT
 10
257.2733248309793
 20
-254.8070962355461
 30
11.0
  0
VERTEX
  5
197
  8
DEFAULT
 10
256.7373712906826
 20
-254.9353355053116
 30
11.0
  0
VERTEX
  5
198
  8
DEFAULT
 10
256.2066581654763
 20
-255.0489101107422
 30
11.0
  0
VERTEX
  5
199
  8
DEFAULT
 10
255.6675754381122
 20
-255.1497573682345
 30
11.0
  0
VERTEX
  5
19A
  8
DEFAULT
 10
255.1065130913423
 20
-255.2398145941848
 30
11.0
  0
VERTEX
  5
19B
  8
DEFAULT
 10
254.5123120071919
 20
-255.3210650820545
 30
11.0
  0
VERTEX
  5
19C
  8
DEFAULT
 10
252.5271247187506
 20
-255.5338320426544
 30
11.0
  0
VERTEX
  5
19D
  8
DEFAULT
 10
251.0939090414841
 20
-255.6620622802169
 30
11.0
  0
VERTEX
  5
19E
  8
DEFAULT
 10
249.8332764655561
 20
-255.7484433189096
 30
11.0
  0
VERTEX
  5
19F
  8
DEFAULT
 10
249.3450022790636
 20
-255.7647068296883
 30
11.0
  0
VERTEX
  5
1A0
  8
DEFAULT
 10
248.9176911082323
 20
-255.7658804851054
 30
11.0
  0
VERTEX
  5
1A1
  8
DEFAULT
 10
246.0952271550726
 20
-255.6958621762677
 30
11.0
  0
VERTEX
  5
1A2
  8
DEFAULT
 10
245.365013105368
 20
-255.6553623425264
 30
11.0
  0
VERTEX
  5
1A3
  8
DEFAULT
 10
244.6319300844228
 20
-255.5945284399496
 30
11.0
  0
VERTEX
  5
1A4
  8
DEFAULT
 10
243.901250247332
 20
-255.5157228055952
 30
11.0
  0
VERTEX
  5
1A5
  8
DEFAULT
 10
242.4503594046752
 20
-255.3204241727173
 30
11.0
  0
VERTEX
  5
1A6
  8
DEFAULT
 10
241.728680331923
 20
-255.2093618099522
 30
11.0
  0
VERTEX
  5
1A7
  8
DEFAULT
 10
240.9940774799834
 20
-255.0804558676334
 30
11.0
  0
VERTEX
  5
1A8
  8
DEFAULT
 10
240.2287794258433
 20
-254.9216636246123
 30
11.0
  0
VERTEX
  5
1A9
  8
DEFAULT
 10
239.8290661282564
 20
-254.8272967899793
 30
11.0
  0
VERTEX
  5
1AA
  8
DEFAULT
 10
239.4150147464894
 20
-254.7209423597401
 30
11.0
  0
VERTEX
  5
1AB
  8
DEFAULT
 10
238.985272409295
 20
-254.6014992125902
 30
11.0
  0
VERTEX
  5
1AC
  8
DEFAULT
 10
238.541960471943
 20
-254.4694831025823
 30
11.0
  0
VERTEX
  5
1AD
  8
DEFAULT
 10
237.6265874443627
 20
-254.1714118855612
 30
11.0
  0
VERTEX
  5
1AE
  8
DEFAULT
 10
236.6928149589416
 20
-253.834088491813
 30
11.0
  0
VERTEX
  5
1AF
  8
DEFAULT
 10
235.7645623108728
 20
-253.4648727044741
 30
11.0
  0
VERTEX
  5
1B0
  8
DEFAULT
 10
235.3093546129307
 20
-253.2703112152089
 30
11.0
  0
VERTEX
  5
1B1
  8
DEFAULT
 10
234.8607400540482
 20
-253.0687732648456
 30
11.0
  0
VERTEX
  5
1B2
  8
DEFAULT
 10
234.4179519901485
 20
-252.8594155449
 30
11.0
  0
VERTEX
  5
1B3
  8
DEFAULT
 10
233.9802237771552
 20
-252.6413947468877
 30
11.0
  0
VERTEX
  5
1B4
  8
DEFAULT
 10
233.5467887709913
 20
-252.4138675623243
 30
11.0
  0
VERTEX
  5
1B5
  8
DEFAULT
 10
233.1168803275803
 20
-252.1759906827254
 30
11.0
  0
VERTEX
  5
1B6
  8
DEFAULT
 10
232.6897318028454
 20
-251.9269207996068
 30
11.0
  0
VERTEX
  5
1B7
  8
DEFAULT
 10
232.2645765527099
 20
-251.6658146044838
 30
11.0
  0
VERTEX
  5
1B8
  8
DEFAULT
 10
231.8410690537304
 20
-251.3922166397701
 30
11.0
  0
VERTEX
  5
1B9
  8
DEFAULT
 10
231.4205482649967
 20
-251.1072228514702
 30
11.0
  0
VERTEX
  5
1BA
  8
DEFAULT
 10
231.0047742662318
 20
-250.8123170364861
 30
11.0
  0
VERTEX
  5
1BB
  8
DEFAULT
 10
230.5955071371588
 20
-250.5089829917204
 30
11.0
  0
VERTEX
  5
1BC
  8
DEFAULT
 10
230.1945069575007
 20
-250.1987045140751
 30
11.0
  0
VERTEX
  5
1BD
  8
DEFAULT
 10
229.8035338069806
 20
-249.8829654004526
 30
11.0
  0
VERTEX
  5
1BE
  8
DEFAULT
 10
229.4243477653215
 20
-249.5632494477552
 30
11.0
  0
VERTEX
  5
1BF
  8
DEFAULT
 10
229.0587089122465
 20
-249.241040452885
 30
11.0
  0
VERTEX
  5
1C0
  8
DEFAULT
 10
228.7078603393336
 20
-248.9174852474918
 30
11.0
  0
VERTEX
  5
1C1
  8
DEFAULT
 10
228.3709771855812
 20
-248.5923828022149
 30
11.0
  0
VERTEX
  5
1C2
  8
DEFAULT
 10
228.0467176018425
 20
-248.2651951224409
 30
11.0
  0
VERTEX
  5
1C3
  8
DEFAULT
 10
227.7337397389709
 20
-247.9353842135566
 30
11.0
  0
VERTEX
  5
1C4
  8
DEFAULT
 10
227.4307017478196
 20
-247.6024120809486
 30
11.0
  0
VERTEX
  5
1C5
  8
DEFAULT
 10
227.1362617792421
 20
-247.2657407300036
 30
11.0
  0
VERTEX
  5
1C6
  8
DEFAULT
 10
226.5678085132213
 20
-246.5791483946493
 30
11.0
  0
VERTEX
  5
1C7
  8
DEFAULT
 10
226.0176626282951
 20
-245.8681737395908
 30
11.0
  0
VERTEX
  5
1C8
  8
DEFAULT
 10
225.7461265517157
 20
-245.4975037891443
 30
11.0
  0
VERTEX
  5
1C9
  8
DEFAULT
 10
225.4751767340897
 20
-245.1128652529385
 30
11.0
  0
VERTEX
  5
1CA
  8
DEFAULT
 10
225.2034844366905
 20
-244.7113730031128
 30
11.0
  0
VERTEX
  5
1CB
  8
DEFAULT
 10
224.9297209207914
 20
-244.2901419118064
 30
11.0
  0
VERTEX
  5
1CC
  8
DEFAULT
 10
224.3706652785864
 20
-243.3769226933084
 30
11.0
  0
VERTEX
  5
1CD
  8
DEFAULT
 10
223.7936235267903
 20
-242.3621108928028
 30
11.0
  0
VERTEX
  5
1CE
  8
DEFAULT
 10
223.2191839012361
 20
-241.2825470786243
 30
11.0
  0
VERTEX
  5
1CF
  8
DEFAULT
 10
222.674178266886
 20
-240.1870561373523
 30
11.0
  0
VERTEX
  5
1D0
  8
DEFAULT
 10
222.1854384887023
 20
-239.1244629555658
 30
11.0
  0
VERTEX
  5
1D1
  8
DEFAULT
 10
221.9696768498343
 20
-238.61956328316
 30
11.0
  0
VERTEX
  5
1D2
  8
DEFAULT
 10
221.7727852025332
 20
-238.134012272839
 30
11.0
  0
VERTEX
  5
1D3
  8
DEFAULT
 10
221.4279941277705
 20
-237.216628240726
 30
11.0
  0
VERTEX
  5
1D4
  8
DEFAULT
 10
221.1358297546919
 20
-236.363654863776
 30
11.0
  0
VERTEX
  5
1D5
  8
DEFAULT
 10
220.6499725982411
 20
-234.8087178458277
 30
11.0
  0
VERTEX
  5
1D6
  8
DEFAULT
 10
220.4350099366837
 20
-234.043852727529
 30
11.0
  0
VERTEX
  5
1D7
  8
DEFAULT
 10
220.23013422044
 20
-233.2175953097924
 30
11.0
  0
VERTEX
  5
1D8
  8
DEFAULT
 10
220.0293110810472
 20
-232.2757001107684
 30
11.0
  0
VERTEX
  5
1D9
  8
DEFAULT
 10
219.829979886406
 20
-231.1866736119244
 30
11.0
  0
VERTEX
  5
1DA
  8
DEFAULT
 10
219.6434749498724
 20
-230.010030147996
 30
11.0
  0
VERTEX
  5
1DB
  8
DEFAULT
 10
219.4846043211661
 20
-228.8280360170357
 30
11.0
  0
VERTEX
  5
1DC
  8
DEFAULT
 10
219.3681760500067
 20
-227.7229575170959
 30
11.0
  0
VERTEX
  5
1DD
  8
DEFAULT
 10
219.329961732082
 20
-227.2226981750229
 30
11.0
  0
VERTEX
  5
1DE
  8
DEFAULT
 10
219.3046495304145
 20
-226.7588875712105
 30
11.0
  0
VERTEX
  5
1DF
  8
DEFAULT
 10
219.2908289594444
 20
-226.328178961651
 30
11.0
  0
VERTEX
  5
1E0
  8
DEFAULT
 10
219.2870895336122
 20
-225.9272256023366
 30
11.0
  0
VERTEX
  5
1E1
  8
DEFAULT
 10
219.2920207673584
 20
-225.5526807492599
 30
11.0
  0
VERTEX
  5
1E2
  8
DEFAULT
 10
219.3042121751234
 20
-225.201197658413
 30
11.0
  0
VERTEX
  5
1E3
  8
DEFAULT
 10
219.3447335704713
 20
-224.554029787378
 30
11.0
  0
VERTEX
  5
1E4
  8
DEFAULT
 10
219.3706906245497
 20
-224.2520962476261
 30
11.0
  0
VERTEX
  5
1E5
  8
DEFAULT
 10
219.400954136096
 20
-223.9625058647826
 30
11.0
  0
VERTEX
  5
1E6
  8
DEFAULT
 10
219.436801845238
 20
-223.6845802655492
 30
11.0
  0
VERTEX
  5
1E7
  8
DEFAULT
 10
219.4795114921036
 20
-223.4176410766275
 30
11.0
  0
VERTEX
  5
1E8
  8
DEFAULT
 10
219.5038388359726
 20
-223.2880793943778
 30
11.0
  0
VERTEX
  5
1E9
  8
DEFAULT
 10
219.5303608168205
 20
-223.1610099247192
 30
11.0
  0
VERTEX
  5
1EA
  8
DEFAULT
 10
219.5592371521632
 20
-223.0363478709893
 30
11.0
  0
VERTEX
  5
1EB
  8
DEFAULT
 10
219.5906275595167
 20
-222.9140084365259
 30
11.0
  0
VERTEX
  5
1EC
  8
DEFAULT
 10
219.6246917563969
 20
-222.7939068246666
 30
11.0
  0
VERTEX
  5
1ED
  8
DEFAULT
 10
219.6615894603199
 20
-222.6759582387492
 30
11.0
  0
VERTEX
  5
1EE
  8
DEFAULT
 10
219.7014803888016
 20
-222.5600778821114
 30
11.0
  0
VERTEX
  5
1EF
  8
DEFAULT
 10
219.744524259358
 20
-222.4461809580909
 30
11.0
  0
VERTEX
  5
1F0
  8
DEFAULT
 10
219.7908265644225
 20
-222.3341864359297
 30
11.0
  0
VERTEX
  5
1F1
  8
DEFAULT
 10
219.8402758960982
 20
-222.2240283484871
 30
11.0
  0
VERTEX
  5
1F2
  8
DEFAULT
 10
219.8927066214055
 20
-222.1156444945268
 30
11.0
  0
VERTEX
  5
1F3
  8
DEFAULT
 10
219.9479531073648
 20
-222.0089726728125
 30
11.0
  0
VERTEX
  5
1F4
  8
DEFAULT
 10
220.0058497209967
 20
-221.9039506821077
 30
11.0
  0
VERTEX
  5
1F5
  8
DEFAULT
 10
220.0662308293216
 20
-221.8005163211762
 30
11.0
  0
VERTEX
  5
1F6
  8
DEFAULT
 10
220.12893079936
 20
-221.6986073887816
 30
11.0
  0
VERTEX
  5
1F7
  8
DEFAULT
 10
220.1937839981323
 20
-221.5981616836875
 30
11.0
  0
VERTEX
  5
1F8
  8
DEFAULT
 10
220.260624792659
 20
-221.4991170046576
 30
11.0
  0
VERTEX
  5
1F9
  8
DEFAULT
 10
220.3292875499606
 20
-221.4014111504557
 30
11.0
  0
VERTEX
  5
1FA
  8
DEFAULT
 10
220.4714164209703
 20
-221.2097671115898
 30
11.0
  0
VERTEX
  5
1FB
  8
DEFAULT
 10
220.618845547325
 20
-221.0227319571992
 30
11.0
  0
VERTEX
  5
1FC
  8
DEFAULT
 10
220.7702498651886
 20
-220.8398080773931
 30
11.0
  0
VERTEX
  5
1FD
  8
DEFAULT
 10
220.9247065622465
 20
-220.6604424143034
 30
11.0
  0
VERTEX
  5
1FE
  8
DEFAULT
 10
221.0829018322709
 20
-220.4838601181531
 30
11.0
  0
VERTEX
  5
1FF
  8
DEFAULT
 10
221.2459241205561
 20
-220.3092308911881
 30
11.0
  0
VERTEX
  5
200
  8
DEFAULT
 10
221.4148618723961
 20
-220.1357244356541
 30
11.0
  0
VERTEX
  5
201
  8
DEFAULT
 10
221.590803533085
 20
-219.962510453797
 30
11.0
  0
VERTEX
  5
202
  8
DEFAULT
 10
221.7748375479168
 20
-219.7887586478624
 30
11.0
  0
VERTEX
  5
203
  8
DEFAULT
 10
221.9680523621856
 20
-219.6136387200963
 30
11.0
  0
VERTEX
  5
204
  8
DEFAULT
 10
222.1715364211856
 20
-219.4363203727442
 30
11.0
  0
VERTEX
  5
205
  8
DEFAULT
 10
222.3858891585568
 20
-219.2563798586923
 30
11.0
  0
VERTEX
  5
206
  8
DEFAULT
 10
222.6097539613242
 20
-219.0750196333873
 30
11.0
  0
VERTEX
  5
207
  8
DEFAULT
 10
223.0786372645308
 20
-218.7144760733654
 30
11.0
  0
VERTEX
  5
208
  8
DEFAULT
 10
223.3199645157119
 20
-218.5385107508224
 30
11.0
  0
VERTEX
  5
209
  8
DEFAULT
 10
223.5634213337727
 20
-218.3675617413738
 30
11.0
  0
VERTEX
  5
20A
  8
DEFAULT
 10
223.8071620940842
 20
-218.2032380511066
 30
11.0
  0
VERTEX
  5
20B
  8
DEFAULT
 10
224.0493411720171
 20
-218.0471486861076
 30
11.0
  0
VERTEX
  5
20C
  8
DEFAULT
 10
224.2889364107136
 20
-217.9003610292731
 30
11.0
  0
VERTEX
  5
20D
  8
DEFAULT
 10
224.5282195244001
 20
-217.7617759707368
 30
11.0
  0
VERTEX
  5
20E
  8
DEFAULT
 10
224.7702856950741
 20
-217.6297527774417
 30
11.0
  0
VERTEX
  5
20F
  8
DEFAULT
 10
225.0182301047329
 20
-217.5026507163307
 30
11.0
  0
VERTEX
  5
210
  8
DEFAULT
 10
225.2751479353742
 20
-217.378829054347
 30
11.0
  0
VERTEX
  5
211
  8
DEFAULT
 10
225.5441343689955
 20
-217.2566470584335
 30
11.0
  0
VERTEX
  5
212
  8
DEFAULT
 10
226.130693773168
 20
-217.0106391325891
 30
11.0
  0
VERTEX
  5
213
  8
DEFAULT
 10
226.7933808608582
 20
-216.7556026764372
 30
11.0
  0
VERTEX
  5
214
  8
DEFAULT
 10
227.5105125261861
 20
-216.4989198360001
 30
11.0
  0
VERTEX
  5
215
  8
DEFAULT
 10
228.2511167508994
 20
-216.2520743593956
 30
11.0
  0
VERTEX
  5
216
  8
DEFAULT
 10
228.9842215167459
 20
-216.0265499947416
 30
11.0
  0
VERTEX
  5
217
  8
DEFAULT
 10
229.686881752287
 20
-215.8303044255106
 30
11.0
  0
VERTEX
  5
218
  8
DEFAULT
 10
230.3682601733389
 20
-215.6571910765945
 30
11.0
  0
VERTEX
  5
219
  8
DEFAULT
 10
233.1856762559324
 20
-215.0253315901527
 30
11.0
  0
VERTEX
  5
21A
  8
DEFAULT
 10
233.9256928593515
 20
-214.8767604367308
 30
11.0
  0
VERTEX
  5
21B
  8
DEFAULT
 10
234.6596520280906
 20
-214.7444157926831
 30
11.0
  0
VERTEX
  5
21C
  8
DEFAULT
 10
235.3783414135735
 20
-214.633224021948
 30
11.0
  0
VERTEX
  5
21D
  8
DEFAULT
 10
237.4783782992313
 20
-214.3682772136019
 30
11.0
  0
VERTEX
  5
21E
  8
DEFAULT
 10
240.3576789171731
 20
-214.0237620682613
 30
11.0
  0
VERTEX
  5
21F
  8
DEFAULT
 10
241.9477555206999
 20
-213.8930224364158
 30
11.0
  0
VERTEX
  5
220
  8
DEFAULT
 10
243.7256125993098
 20
-213.8016561299909
 30
11.0
  0
VERTEX
  5
221
  8
DEFAULT
 10
245.7845150303737
 20
-213.7525422199435
 30
11.0
  0
VERTEX
  5
222
  8
DEFAULT
 10
248.3000303361008
 20
-213.7721909304182
 30
11.0
  0
VERTEX
  5
223
  8
DEFAULT
 10
251.3716713717247
 20
-213.8884450124192
 30
11.0
  0
VERTEX
  5
224
  8
DEFAULT
 10
254.7124296797379
 20
-214.1108461712031
 30
11.0
  0
VERTEX
  5
225
  8
DEFAULT
 10
257.937922314931
 20
-214.4307164846923
 30
11.0
  0
VERTEX
  5
226
  8
DEFAULT
 10
260.6607896940275
 20
-214.7848005672214
 30
11.0
  0
VERTEX
  5
227
  8
DEFAULT
 10
261.7299431913408
 20
-214.9536643700802
 30
11.0
  0
VERTEX
  5
228
  8
DEFAULT
 10
262.6328216616272
 20
-215.1203808317696
 30
11.0
  0
VERTEX
  5
229
  8
DEFAULT
 10
263.4258323275821
 20
-215.2934741067505
 30
11.0
  0
VERTEX
  5
22A
  8
DEFAULT
 10
264.1653824119009
 20
-215.4814683494843
 30
11.0
  0
VERTEX
  5
22B
  8
DEFAULT
 10
264.5314008277782
 20
-215.5837214471625
 30
11.0
  0
VERTEX
  5
22C
  8
DEFAULT
 10
264.8971898151929
 20
-215.6929222355115
 30
11.0
  0
VERTEX
  5
22D
  8
DEFAULT
 10
265.2617832854171
 20
-215.8101621246486
 30
11.0
  0
VERTEX
  5
22E
  8
DEFAULT
 10
265.6242151497233
 20
-215.9365325246911
 30
11.0
  0
VERTEX
  5
22F
  8
DEFAULT
 10
265.9835193193841
 20
-216.0731248457563
 30
11.0
  0
VERTEX
  5
230
  8
DEFAULT
 10
266.3387297056715
 20
-216.2210304979614
 30
11.0
  0
VERTEX
  5
231
  8
DEFAULT
 10
266.5144978273229
 20
-216.2995668889031
 30
11.0
  0
VERTEX
  5
232
  8
DEFAULT
 10
266.6888802198581
 20
-216.3813408914238
 30
11.0
  0
VERTEX
  5
233
  8
DEFAULT
 10
266.8617561221863
 20
-216.4664889317881
 30
11.0
  0
VERTEX
  5
234
  8
DEFAULT
 10
267.0330047732164
 20
-216.5551474362608
 30
11.0
  0
VERTEX
  5
235
  8
DEFAULT
 10
267.2024922688429
 20
-216.6473753444741
 30
11.0
  0
VERTEX
  5
236
  8
DEFAULT
 10
267.3700321329015
 20
-216.7429216495317
 30
11.0
  0
VERTEX
  5
237
  8
DEFAULT
 10
267.5354247462136
 20
-216.8414578579047
 30
11.0
  0
VERTEX
  5
238
  8
DEFAULT
 10
267.6984704896003
 20
-216.9426554760645
 30
11.0
  0
VERTEX
  5
239
  8
DEFAULT
 10
268.0167228898822
 20
-217.1517209676293
 30
11.0
  0
VERTEX
  5
23A
  8
DEFAULT
 10
268.323192380317
 20
-217.3674901759962
 30
11.0
  0
VERTEX
  5
23B
  8
DEFAULT
 10
268.6162820074743
 20
-217.5873351529352
 30
11.0
  0
VERTEX
  5
23C
  8
DEFAULT
 10
268.8943948179237
 20
-217.8086279502164
 30
11.0
  0
VERTEX
  5
23D
  8
DEFAULT
 10
269.1559338582349
 20
-218.0287406196098
 30
11.0
  0
VERTEX
  5
23E
  8
DEFAULT
 10
269.3993021749775
 20
-218.2450452128855
 30
11.0
  0
VERTEX
  5
23F
  8
DEFAULT
 10
269.6233590381698
 20
-218.4553090848341
 30
11.0
  0
VERTEX
  5
240
  8
DEFAULT
 10
269.8287886116251
 20
-218.6588808023279
 30
11.0
  0
VERTEX
  5
241
  8
DEFAULT
 10
270.0167312826054
 20
-218.8555042352597
 30
11.0
  0
VERTEX
  5
242
  8
DEFAULT
 10
270.1883274383725
 20
-219.0449232535224
 30
11.0
  0
VERTEX
  5
243
  8
DEFAULT
 10
270.3447174661885
 20
-219.2268817270088
 30
11.0
  0
VERTEX
  5
244
  8
DEFAULT
 10
270.4870417533153
 20
-219.4011235256116
 30
11.0
  0
VERTEX
  5
245
  8
DEFAULT
 10
270.6164406870149
 20
-219.5673925192237
 30
11.0
  0
VERTEX
  5
246
  8
DEFAULT
 10
270.7340546545491
 20
-219.725432577738
 30
11.0
  0
VERTEX
  5
247
  8
DEFAULT
 10
270.8410879808621
 20
-219.8754407000475
 30
11.0
  0
VERTEX
  5
248
  8
DEFAULT
 10
270.939000741626
 20
-220.019426401046
 30
11.0
  0
VERTEX
  5
249
  8
DEFAULT
 10
271.029316950195
 20
-220.1598523246277
 30
11.0
  0
VERTEX
  5
24A
  8
DEFAULT
 10
271.1135606199234
 20
-220.2991811146867
 30
11.0
  0
VERTEX
  5
24B
  8
DEFAULT
 10
271.1932557641654
 20
-220.4398754151171
 30
11.0
  0
VERTEX
  5
24C
  8
DEFAULT
 10
271.2699263962753
 20
-220.5843978698131
 30
11.0
  0
VERTEX
  5
24D
  8
DEFAULT
 10
271.3450965296071
 20
-220.7352111226687
 30
11.0
  0
VERTEX
  5
24E
  8
DEFAULT
 10
271.4202901775153
 20
-220.8947778175782
 30
11.0
  0
VERTEX
  5
24F
  8
DEFAULT
 10
271.4966730580927
 20
-221.0650832640798
 30
11.0
  0
VERTEX
  5
250
  8
DEFAULT
 10
271.573977708388
 20
-221.246203434289
 30
11.0
  0
VERTEX
  5
251
  8
DEFAULT
 10
271.6515783701882
 20
-221.4377369659656
 30
11.0
  0
VERTEX
  5
252
  8
DEFAULT
 10
271.7288492852807
 20
-221.6392824968693
 30
11.0
  0
VERTEX
  5
253
  8
DEFAULT
 10
271.8051646954527
 20
-221.8504386647599
 30
11.0
  0
VERTEX
  5
254
  8
DEFAULT
 10
271.8798988424915
 20
-222.0708041073971
 30
11.0
  0
VERTEX
  5
255
  8
DEFAULT
 10
271.9524259681842
 20
-222.2999774625406
 30
11.0
  0
VERTEX
  5
256
  8
DEFAULT
 10
272.0221203143182
 20
-222.5375573679501
 30
11.0
  0
VERTEX
  5
257
  8
DEFAULT
 10
272.0883891502216
 20
-222.7833959162604
 30
11.0
  0
VERTEX
  5
258
  8
DEFAULT
 10
272.1507718553863
 20
-223.038359019606
 30
11.0
  0
VERTEX
  5
259
  8
DEFAULT
 10
272.208840836845
 20
-223.3035660449962
 30
11.0
  0
VERTEX
  5
25A
  8
DEFAULT
 10
272.2621685016308
 20
-223.5801363594405
 30
11.0
  0
VERTEX
  5
25B
  8
DEFAULT
 10
272.3103272567762
 20
-223.8691893299483
 30
11.0
  0
VERTEX
  5
25C
  8
DEFAULT
 10
272.3528895093142
 20
-224.1718443235291
 30
11.0
  0
VERTEX
  5
25D
  8
DEFAULT
 10
272.3894276662775
 20
-224.4892207071923
 30
11.0
  0
VERTEX
  5
25E
  8
DEFAULT
 10
272.4195141346989
 20
-224.8224378479472
 30
11.0
  0
VERTEX
  5
25F
  8
DEFAULT
 10
272.4427836490664
 20
-225.1724470320819
 30
11.0
  0
VERTEX
  5
260
  8
DEFAULT
 10
272.459120253688
 20
-225.5395272229984
 30
11.0
  0
VERTEX
  5
261
  8
DEFAULT
 10
272.4684703203268
 20
-225.9237893033769
 30
11.0
  0
VERTEX
  5
262
  8
DEFAULT
 10
272.4707802207462
 20
-226.3253441558979
 30
11.0
  0
VERTEX
  5
263
  8
DEFAULT
 10
272.4540650099792
 20
-227.1807757080893
 30
11.0
  0
VERTEX
  5
264
  8
DEFAULT
 10
272.4085455954925
 20
-228.1067089410161
 30
11.0
  0
VERTEX
  5
265
  8
DEFAULT
 10
272.3340087947912
 20
-229.100417948628
 30
11.0
  0
VERTEX
  5
266
  8
DEFAULT
 10
272.2311047989783
 20
-230.1447249549009
 30
11.0
  0
VERTEX
  5
267
  8
DEFAULT
 10
272.1006996425566
 20
-231.2188392163169
 30
11.0
  0
VERTEX
  5
268
  8
DEFAULT
 10
271.9436593600285
 20
-232.3019699893582
 30
11.0
  0
VERTEX
  5
269
  8
DEFAULT
 10
271.760966144492
 20
-233.3776278508095
 30
11.0
  0
VERTEX
  5
26A
  8
DEFAULT
 10
271.5540668234257
 20
-234.4465286586658
 30
11.0
  0
VERTEX
  5
26B
  8
DEFAULT
 10
271.3245243829037
 20
-235.5136895912244
 30
11.0
  0
VERTEX
  5
26C
  8
DEFAULT
 10
271.0739018089998
 20
-236.5841278267827
 30
11.0
  0
VERTEX
  5
26D
  8
DEFAULT
 10
270.5221585381697
 20
-238.7151633485254
 30
11.0
  0
VERTEX
  5
26E
  8
DEFAULT
 10
270.233088021029
 20
-239.7311503304059
 30
11.0
  0
SEQEND
  5
26F
  8
DEFAULT
  0
ENDSEC
  0
EOF
