ISO-10303-21;
HEADER;
/* Generated by software containing ST-Developer
 * from STEP Tools, Inc. (www.steptools.com) 
 */
/* OPTION: using custom schema-name function */

FILE_DESCRIPTION(
/* description */ (''),
/* implementation_level */ '2;1');

FILE_NAME(
/* name */ 'Hinge_A_SLA',
/* time_stamp */ '2026-03-18T17:40:10+03:00',
/* author */ (''),
/* organization */ (''),
/* preprocessor_version */ 'ST-DEVELOPER v16.5',
/* originating_system */ 'Rhino 7.23',
/* authorisation */ '');

FILE_SCHEMA (('CONFIG_CONTROL_DESIGN'));
ENDSEC;

DATA;
#10=SHAPE_REPRESENTATION_RELATIONSHIP('','',#812,#12);
#11=MANIFOLD_SOLID_BREP('brep_1',#13);
#12=ADVANCED_BREP_SHAPE_REPRESENTATION('brep_rep_0',(#11,#847),#811);
#13=CLOSED_SHELL('',(#16,#17,#18,#19,#20,#21,#22,#23,#24,#25,#26,#27,#28,
#29,#30,#31,#32,#33,#34,#35,#36,#37,#38,#39,#40,#41,#42,#43,#44,#45,#46,
#47,#48,#49,#50,#51,#52,#53,#54,#55,#56,#57));
#14=FACE_BOUND('',#104,.T.);
#15=FACE_BOUND('',#106,.T.);
#16=ADVANCED_FACE('',(#58),#704,.T.);
#17=ADVANCED_FACE('',(#59),#705,.T.);
#18=ADVANCED_FACE('',(#60),#706,.T.);
#19=ADVANCED_FACE('',(#61,#14),#707,.T.);
#20=ADVANCED_FACE('',(#62,#15),#708,.T.);
#21=ADVANCED_FACE('',(#63),#709,.T.);
#22=ADVANCED_FACE('',(#64),#695,.T.);
#23=ADVANCED_FACE('',(#65),#696,.T.);
#24=ADVANCED_FACE('',(#66),#684,.F.);
#25=ADVANCED_FACE('',(#67),#710,.T.);
#26=ADVANCED_FACE('',(#68),#685,.F.);
#27=ADVANCED_FACE('',(#69),#711,.T.);
#28=ADVANCED_FACE('',(#70),#686,.T.);
#29=ADVANCED_FACE('',(#71),#712,.T.);
#30=ADVANCED_FACE('',(#72),#687,.T.);
#31=ADVANCED_FACE('',(#73),#713,.T.);
#32=ADVANCED_FACE('',(#74),#688,.T.);
#33=ADVANCED_FACE('',(#75),#714,.T.);
#34=ADVANCED_FACE('',(#76),#689,.T.);
#35=ADVANCED_FACE('',(#77),#715,.T.);
#36=ADVANCED_FACE('',(#78),#690,.F.);
#37=ADVANCED_FACE('',(#79),#716,.T.);
#38=ADVANCED_FACE('',(#80),#691,.F.);
#39=ADVANCED_FACE('',(#81),#692,.F.);
#40=ADVANCED_FACE('',(#82),#697,.T.);
#41=ADVANCED_FACE('',(#83),#693,.T.);
#42=ADVANCED_FACE('',(#84),#694,.F.);
#43=ADVANCED_FACE('',(#85),#717,.T.);
#44=ADVANCED_FACE('',(#86),#718,.T.);
#45=ADVANCED_FACE('',(#87),#719,.T.);
#46=ADVANCED_FACE('',(#88),#698,.T.);
#47=ADVANCED_FACE('',(#89),#720,.T.);
#48=ADVANCED_FACE('',(#90),#699,.T.);
#49=ADVANCED_FACE('',(#91),#700,.T.);
#50=ADVANCED_FACE('',(#92),#701,.T.);
#51=ADVANCED_FACE('',(#93),#721,.T.);
#52=ADVANCED_FACE('',(#94),#722,.T.);
#53=ADVANCED_FACE('',(#95),#723,.T.);
#54=ADVANCED_FACE('',(#96),#724,.T.);
#55=ADVANCED_FACE('',(#97),#725,.T.);
#56=ADVANCED_FACE('',(#98),#702,.T.);
#57=ADVANCED_FACE('',(#99),#703,.T.);
#58=FACE_OUTER_BOUND('',#100,.T.);
#59=FACE_OUTER_BOUND('',#101,.T.);
#60=FACE_OUTER_BOUND('',#102,.T.);
#61=FACE_OUTER_BOUND('',#103,.T.);
#62=FACE_OUTER_BOUND('',#105,.T.);
#63=FACE_OUTER_BOUND('',#107,.T.);
#64=FACE_OUTER_BOUND('',#108,.T.);
#65=FACE_OUTER_BOUND('',#109,.T.);
#66=FACE_OUTER_BOUND('',#110,.T.);
#67=FACE_OUTER_BOUND('',#111,.T.);
#68=FACE_OUTER_BOUND('',#112,.T.);
#69=FACE_OUTER_BOUND('',#113,.T.);
#70=FACE_OUTER_BOUND('',#114,.T.);
#71=FACE_OUTER_BOUND('',#115,.T.);
#72=FACE_OUTER_BOUND('',#116,.T.);
#73=FACE_OUTER_BOUND('',#117,.T.);
#74=FACE_OUTER_BOUND('',#118,.T.);
#75=FACE_OUTER_BOUND('',#119,.T.);
#76=FACE_OUTER_BOUND('',#120,.T.);
#77=FACE_OUTER_BOUND('',#121,.T.);
#78=FACE_OUTER_BOUND('',#122,.T.);
#79=FACE_OUTER_BOUND('',#123,.T.);
#80=FACE_OUTER_BOUND('',#124,.T.);
#81=FACE_OUTER_BOUND('',#125,.T.);
#82=FACE_OUTER_BOUND('',#126,.T.);
#83=FACE_OUTER_BOUND('',#127,.T.);
#84=FACE_OUTER_BOUND('',#128,.T.);
#85=FACE_OUTER_BOUND('',#129,.T.);
#86=FACE_OUTER_BOUND('',#130,.T.);
#87=FACE_OUTER_BOUND('',#131,.T.);
#88=FACE_OUTER_BOUND('',#132,.T.);
#89=FACE_OUTER_BOUND('',#133,.T.);
#90=FACE_OUTER_BOUND('',#134,.T.);
#91=FACE_OUTER_BOUND('',#135,.T.);
#92=FACE_OUTER_BOUND('',#136,.T.);
#93=FACE_OUTER_BOUND('',#137,.T.);
#94=FACE_OUTER_BOUND('',#138,.T.);
#95=FACE_OUTER_BOUND('',#139,.T.);
#96=FACE_OUTER_BOUND('',#140,.T.);
#97=FACE_OUTER_BOUND('',#141,.T.);
#98=FACE_OUTER_BOUND('',#142,.T.);
#99=FACE_OUTER_BOUND('',#143,.T.);
#100=EDGE_LOOP('',(#144,#145,#146,#147));
#101=EDGE_LOOP('',(#148,#149,#150,#151));
#102=EDGE_LOOP('',(#152,#153,#154,#155));
#103=EDGE_LOOP('',(#156,#157,#158,#159,#160,#161,#162,#163,#164,#165,#166,
#167));
#104=EDGE_LOOP('',(#168,#169));
#105=EDGE_LOOP('',(#170,#171,#172,#173,#174,#175,#176,#177,#178,#179,#180,
#181));
#106=EDGE_LOOP('',(#182,#183));
#107=EDGE_LOOP('',(#184,#185,#186,#187));
#108=EDGE_LOOP('',(#188,#189,#190,#191));
#109=EDGE_LOOP('',(#192,#193,#194,#195));
#110=EDGE_LOOP('',(#196,#197,#198,#199));
#111=EDGE_LOOP('',(#200,#201,#202,#203));
#112=EDGE_LOOP('',(#204,#205,#206,#207));
#113=EDGE_LOOP('',(#208,#209,#210,#211));
#114=EDGE_LOOP('',(#212,#213,#214,#215));
#115=EDGE_LOOP('',(#216,#217,#218,#219));
#116=EDGE_LOOP('',(#220,#221,#222,#223));
#117=EDGE_LOOP('',(#224,#225,#226,#227));
#118=EDGE_LOOP('',(#228,#229,#230,#231));
#119=EDGE_LOOP('',(#232,#233,#234,#235));
#120=EDGE_LOOP('',(#236,#237,#238,#239));
#121=EDGE_LOOP('',(#240,#241,#242,#243));
#122=EDGE_LOOP('',(#244,#245,#246,#247));
#123=EDGE_LOOP('',(#248,#249,#250,#251));
#124=EDGE_LOOP('',(#252,#253,#254,#255));
#125=EDGE_LOOP('',(#256,#257,#258,#259));
#126=EDGE_LOOP('',(#260,#261,#262,#263));
#127=EDGE_LOOP('',(#264,#265,#266,#267));
#128=EDGE_LOOP('',(#268,#269,#270,#271));
#129=EDGE_LOOP('',(#272,#273,#274,#275));
#130=EDGE_LOOP('',(#276,#277,#278,#279));
#131=EDGE_LOOP('',(#280,#281,#282,#283));
#132=EDGE_LOOP('',(#284,#285,#286,#287));
#133=EDGE_LOOP('',(#288,#289,#290,#291));
#134=EDGE_LOOP('',(#292,#293,#294,#295));
#135=EDGE_LOOP('',(#296,#297,#298,#299));
#136=EDGE_LOOP('',(#300,#301,#302,#303));
#137=EDGE_LOOP('',(#304,#305,#306,#307,#308,#309,#310,#311,#312,#313,#314,
#315,#316,#317,#318,#319,#320,#321,#322,#323,#324,#325,#326,#327,#328,#329));
#138=EDGE_LOOP('',(#330,#331,#332,#333));
#139=EDGE_LOOP('',(#334,#335,#336,#337,#338,#339,#340,#341,#342,#343,#344,
#345,#346,#347,#348,#349,#350,#351,#352,#353,#354,#355,#356,#357,#358,#359));
#140=EDGE_LOOP('',(#360,#361,#362,#363));
#141=EDGE_LOOP('',(#364,#365,#366,#367));
#142=EDGE_LOOP('',(#368,#369,#370,#371));
#143=EDGE_LOOP('',(#372,#373,#374,#375));
#144=ORIENTED_EDGE('',*,*,#431,.F.);
#145=ORIENTED_EDGE('',*,*,#400,.F.);
#146=ORIENTED_EDGE('',*,*,#424,.T.);
#147=ORIENTED_EDGE('',*,*,#434,.F.);
#148=ORIENTED_EDGE('',*,*,#458,.T.);
#149=ORIENTED_EDGE('',*,*,#401,.F.);
#150=ORIENTED_EDGE('',*,*,#473,.F.);
#151=ORIENTED_EDGE('',*,*,#435,.F.);
#152=ORIENTED_EDGE('',*,*,#488,.T.);
#153=ORIENTED_EDGE('',*,*,#487,.T.);
#154=ORIENTED_EDGE('',*,*,#377,.T.);
#155=ORIENTED_EDGE('',*,*,#376,.T.);
#156=ORIENTED_EDGE('',*,*,#376,.F.);
#157=ORIENTED_EDGE('',*,*,#386,.T.);
#158=ORIENTED_EDGE('',*,*,#397,.T.);
#159=ORIENTED_EDGE('',*,*,#394,.T.);
#160=ORIENTED_EDGE('',*,*,#378,.T.);
#161=ORIENTED_EDGE('',*,*,#385,.T.);
#162=ORIENTED_EDGE('',*,*,#379,.T.);
#163=ORIENTED_EDGE('',*,*,#484,.T.);
#164=ORIENTED_EDGE('',*,*,#480,.T.);
#165=ORIENTED_EDGE('',*,*,#425,.T.);
#166=ORIENTED_EDGE('',*,*,#478,.T.);
#167=ORIENTED_EDGE('',*,*,#490,.T.);
#168=ORIENTED_EDGE('',*,*,#391,.T.);
#169=ORIENTED_EDGE('',*,*,#399,.T.);
#170=ORIENTED_EDGE('',*,*,#486,.T.);
#171=ORIENTED_EDGE('',*,*,#470,.T.);
#172=ORIENTED_EDGE('',*,*,#476,.T.);
#173=ORIENTED_EDGE('',*,*,#485,.T.);
#174=ORIENTED_EDGE('',*,*,#481,.T.);
#175=ORIENTED_EDGE('',*,*,#383,.T.);
#176=ORIENTED_EDGE('',*,*,#380,.T.);
#177=ORIENTED_EDGE('',*,*,#393,.T.);
#178=ORIENTED_EDGE('',*,*,#396,.T.);
#179=ORIENTED_EDGE('',*,*,#387,.T.);
#180=ORIENTED_EDGE('',*,*,#487,.F.);
#181=ORIENTED_EDGE('',*,*,#491,.T.);
#182=ORIENTED_EDGE('',*,*,#398,.T.);
#183=ORIENTED_EDGE('',*,*,#389,.T.);
#184=ORIENTED_EDGE('',*,*,#378,.F.);
#185=ORIENTED_EDGE('',*,*,#381,.T.);
#186=ORIENTED_EDGE('',*,*,#380,.F.);
#187=ORIENTED_EDGE('',*,*,#382,.T.);
#188=ORIENTED_EDGE('',*,*,#383,.F.);
#189=ORIENTED_EDGE('',*,*,#384,.T.);
#190=ORIENTED_EDGE('',*,*,#385,.F.);
#191=ORIENTED_EDGE('',*,*,#382,.F.);
#192=ORIENTED_EDGE('',*,*,#386,.F.);
#193=ORIENTED_EDGE('',*,*,#377,.F.);
#194=ORIENTED_EDGE('',*,*,#387,.F.);
#195=ORIENTED_EDGE('',*,*,#388,.T.);
#196=ORIENTED_EDGE('',*,*,#426,.F.);
#197=ORIENTED_EDGE('',*,*,#402,.F.);
#198=ORIENTED_EDGE('',*,*,#458,.F.);
#199=ORIENTED_EDGE('',*,*,#436,.F.);
#200=ORIENTED_EDGE('',*,*,#437,.T.);
#201=ORIENTED_EDGE('',*,*,#459,.T.);
#202=ORIENTED_EDGE('',*,*,#403,.T.);
#203=ORIENTED_EDGE('',*,*,#426,.T.);
#204=ORIENTED_EDGE('',*,*,#427,.F.);
#205=ORIENTED_EDGE('',*,*,#404,.F.);
#206=ORIENTED_EDGE('',*,*,#459,.F.);
#207=ORIENTED_EDGE('',*,*,#438,.F.);
#208=ORIENTED_EDGE('',*,*,#439,.T.);
#209=ORIENTED_EDGE('',*,*,#460,.T.);
#210=ORIENTED_EDGE('',*,*,#405,.T.);
#211=ORIENTED_EDGE('',*,*,#427,.T.);
#212=ORIENTED_EDGE('',*,*,#440,.T.);
#213=ORIENTED_EDGE('',*,*,#461,.T.);
#214=ORIENTED_EDGE('',*,*,#406,.T.);
#215=ORIENTED_EDGE('',*,*,#460,.F.);
#216=ORIENTED_EDGE('',*,*,#441,.T.);
#217=ORIENTED_EDGE('',*,*,#462,.T.);
#218=ORIENTED_EDGE('',*,*,#407,.T.);
#219=ORIENTED_EDGE('',*,*,#461,.F.);
#220=ORIENTED_EDGE('',*,*,#442,.T.);
#221=ORIENTED_EDGE('',*,*,#463,.T.);
#222=ORIENTED_EDGE('',*,*,#408,.T.);
#223=ORIENTED_EDGE('',*,*,#462,.F.);
#224=ORIENTED_EDGE('',*,*,#443,.T.);
#225=ORIENTED_EDGE('',*,*,#464,.T.);
#226=ORIENTED_EDGE('',*,*,#409,.T.);
#227=ORIENTED_EDGE('',*,*,#463,.F.);
#228=ORIENTED_EDGE('',*,*,#444,.T.);
#229=ORIENTED_EDGE('',*,*,#465,.T.);
#230=ORIENTED_EDGE('',*,*,#410,.T.);
#231=ORIENTED_EDGE('',*,*,#464,.F.);
#232=ORIENTED_EDGE('',*,*,#445,.T.);
#233=ORIENTED_EDGE('',*,*,#466,.T.);
#234=ORIENTED_EDGE('',*,*,#411,.T.);
#235=ORIENTED_EDGE('',*,*,#465,.F.);
#236=ORIENTED_EDGE('',*,*,#446,.T.);
#237=ORIENTED_EDGE('',*,*,#467,.T.);
#238=ORIENTED_EDGE('',*,*,#412,.T.);
#239=ORIENTED_EDGE('',*,*,#466,.F.);
#240=ORIENTED_EDGE('',*,*,#447,.T.);
#241=ORIENTED_EDGE('',*,*,#468,.T.);
#242=ORIENTED_EDGE('',*,*,#413,.T.);
#243=ORIENTED_EDGE('',*,*,#467,.F.);
#244=ORIENTED_EDGE('',*,*,#428,.F.);
#245=ORIENTED_EDGE('',*,*,#414,.F.);
#246=ORIENTED_EDGE('',*,*,#468,.F.);
#247=ORIENTED_EDGE('',*,*,#448,.F.);
#248=ORIENTED_EDGE('',*,*,#449,.T.);
#249=ORIENTED_EDGE('',*,*,#469,.T.);
#250=ORIENTED_EDGE('',*,*,#415,.T.);
#251=ORIENTED_EDGE('',*,*,#428,.T.);
#252=ORIENTED_EDGE('',*,*,#424,.F.);
#253=ORIENTED_EDGE('',*,*,#416,.F.);
#254=ORIENTED_EDGE('',*,*,#469,.F.);
#255=ORIENTED_EDGE('',*,*,#450,.F.);
#256=ORIENTED_EDGE('',*,*,#390,.F.);
#257=ORIENTED_EDGE('',*,*,#391,.F.);
#258=ORIENTED_EDGE('',*,*,#392,.F.);
#259=ORIENTED_EDGE('',*,*,#389,.F.);
#260=ORIENTED_EDGE('',*,*,#393,.F.);
#261=ORIENTED_EDGE('',*,*,#381,.F.);
#262=ORIENTED_EDGE('',*,*,#394,.F.);
#263=ORIENTED_EDGE('',*,*,#395,.T.);
#264=ORIENTED_EDGE('',*,*,#388,.F.);
#265=ORIENTED_EDGE('',*,*,#396,.F.);
#266=ORIENTED_EDGE('',*,*,#395,.F.);
#267=ORIENTED_EDGE('',*,*,#397,.F.);
#268=ORIENTED_EDGE('',*,*,#398,.F.);
#269=ORIENTED_EDGE('',*,*,#392,.T.);
#270=ORIENTED_EDGE('',*,*,#399,.F.);
#271=ORIENTED_EDGE('',*,*,#390,.T.);
#272=ORIENTED_EDGE('',*,*,#451,.T.);
#273=ORIENTED_EDGE('',*,*,#472,.T.);
#274=ORIENTED_EDGE('',*,*,#417,.F.);
#275=ORIENTED_EDGE('',*,*,#470,.F.);
#276=ORIENTED_EDGE('',*,*,#479,.T.);
#277=ORIENTED_EDGE('',*,*,#425,.F.);
#278=ORIENTED_EDGE('',*,*,#477,.F.);
#279=ORIENTED_EDGE('',*,*,#430,.T.);
#280=ORIENTED_EDGE('',*,*,#452,.T.);
#281=ORIENTED_EDGE('',*,*,#429,.F.);
#282=ORIENTED_EDGE('',*,*,#418,.T.);
#283=ORIENTED_EDGE('',*,*,#432,.T.);
#284=ORIENTED_EDGE('',*,*,#453,.T.);
#285=ORIENTED_EDGE('',*,*,#430,.F.);
#286=ORIENTED_EDGE('',*,*,#419,.T.);
#287=ORIENTED_EDGE('',*,*,#429,.T.);
#288=ORIENTED_EDGE('',*,*,#454,.T.);
#289=ORIENTED_EDGE('',*,*,#474,.T.);
#290=ORIENTED_EDGE('',*,*,#420,.T.);
#291=ORIENTED_EDGE('',*,*,#471,.F.);
#292=ORIENTED_EDGE('',*,*,#455,.T.);
#293=ORIENTED_EDGE('',*,*,#471,.T.);
#294=ORIENTED_EDGE('',*,*,#421,.T.);
#295=ORIENTED_EDGE('',*,*,#472,.F.);
#296=ORIENTED_EDGE('',*,*,#432,.F.);
#297=ORIENTED_EDGE('',*,*,#422,.F.);
#298=ORIENTED_EDGE('',*,*,#431,.T.);
#299=ORIENTED_EDGE('',*,*,#456,.F.);
#300=ORIENTED_EDGE('',*,*,#473,.T.);
#301=ORIENTED_EDGE('',*,*,#423,.F.);
#302=ORIENTED_EDGE('',*,*,#474,.F.);
#303=ORIENTED_EDGE('',*,*,#457,.F.);
#304=ORIENTED_EDGE('',*,*,#410,.F.);
#305=ORIENTED_EDGE('',*,*,#411,.F.);
#306=ORIENTED_EDGE('',*,*,#412,.F.);
#307=ORIENTED_EDGE('',*,*,#413,.F.);
#308=ORIENTED_EDGE('',*,*,#414,.T.);
#309=ORIENTED_EDGE('',*,*,#415,.F.);
#310=ORIENTED_EDGE('',*,*,#416,.T.);
#311=ORIENTED_EDGE('',*,*,#400,.T.);
#312=ORIENTED_EDGE('',*,*,#422,.T.);
#313=ORIENTED_EDGE('',*,*,#418,.F.);
#314=ORIENTED_EDGE('',*,*,#419,.F.);
#315=ORIENTED_EDGE('',*,*,#477,.T.);
#316=ORIENTED_EDGE('',*,*,#433,.T.);
#317=ORIENTED_EDGE('',*,*,#417,.T.);
#318=ORIENTED_EDGE('',*,*,#421,.F.);
#319=ORIENTED_EDGE('',*,*,#420,.F.);
#320=ORIENTED_EDGE('',*,*,#423,.T.);
#321=ORIENTED_EDGE('',*,*,#401,.T.);
#322=ORIENTED_EDGE('',*,*,#402,.T.);
#323=ORIENTED_EDGE('',*,*,#403,.F.);
#324=ORIENTED_EDGE('',*,*,#404,.T.);
#325=ORIENTED_EDGE('',*,*,#405,.F.);
#326=ORIENTED_EDGE('',*,*,#406,.F.);
#327=ORIENTED_EDGE('',*,*,#407,.F.);
#328=ORIENTED_EDGE('',*,*,#408,.F.);
#329=ORIENTED_EDGE('',*,*,#409,.F.);
#330=ORIENTED_EDGE('',*,*,#482,.T.);
#331=ORIENTED_EDGE('',*,*,#379,.F.);
#332=ORIENTED_EDGE('',*,*,#384,.F.);
#333=ORIENTED_EDGE('',*,*,#481,.F.);
#334=ORIENTED_EDGE('',*,*,#441,.F.);
#335=ORIENTED_EDGE('',*,*,#440,.F.);
#336=ORIENTED_EDGE('',*,*,#439,.F.);
#337=ORIENTED_EDGE('',*,*,#438,.T.);
#338=ORIENTED_EDGE('',*,*,#437,.F.);
#339=ORIENTED_EDGE('',*,*,#436,.T.);
#340=ORIENTED_EDGE('',*,*,#435,.T.);
#341=ORIENTED_EDGE('',*,*,#457,.T.);
#342=ORIENTED_EDGE('',*,*,#454,.F.);
#343=ORIENTED_EDGE('',*,*,#455,.F.);
#344=ORIENTED_EDGE('',*,*,#451,.F.);
#345=ORIENTED_EDGE('',*,*,#475,.F.);
#346=ORIENTED_EDGE('',*,*,#479,.F.);
#347=ORIENTED_EDGE('',*,*,#453,.F.);
#348=ORIENTED_EDGE('',*,*,#452,.F.);
#349=ORIENTED_EDGE('',*,*,#456,.T.);
#350=ORIENTED_EDGE('',*,*,#434,.T.);
#351=ORIENTED_EDGE('',*,*,#450,.T.);
#352=ORIENTED_EDGE('',*,*,#449,.F.);
#353=ORIENTED_EDGE('',*,*,#448,.T.);
#354=ORIENTED_EDGE('',*,*,#447,.F.);
#355=ORIENTED_EDGE('',*,*,#446,.F.);
#356=ORIENTED_EDGE('',*,*,#445,.F.);
#357=ORIENTED_EDGE('',*,*,#444,.F.);
#358=ORIENTED_EDGE('',*,*,#443,.F.);
#359=ORIENTED_EDGE('',*,*,#442,.F.);
#360=ORIENTED_EDGE('',*,*,#476,.F.);
#361=ORIENTED_EDGE('',*,*,#433,.F.);
#362=ORIENTED_EDGE('',*,*,#480,.F.);
#363=ORIENTED_EDGE('',*,*,#483,.F.);
#364=ORIENTED_EDGE('',*,*,#478,.F.);
#365=ORIENTED_EDGE('',*,*,#475,.T.);
#366=ORIENTED_EDGE('',*,*,#486,.F.);
#367=ORIENTED_EDGE('',*,*,#489,.F.);
#368=ORIENTED_EDGE('',*,*,#485,.F.);
#369=ORIENTED_EDGE('',*,*,#483,.T.);
#370=ORIENTED_EDGE('',*,*,#484,.F.);
#371=ORIENTED_EDGE('',*,*,#482,.F.);
#372=ORIENTED_EDGE('',*,*,#490,.F.);
#373=ORIENTED_EDGE('',*,*,#489,.T.);
#374=ORIENTED_EDGE('',*,*,#491,.F.);
#375=ORIENTED_EDGE('',*,*,#488,.F.);
#376=EDGE_CURVE('',#608,#680,#530,.T.);
#377=EDGE_CURVE('',#609,#608,#531,.T.);
#378=EDGE_CURVE('',#612,#613,#532,.T.);
#379=EDGE_CURVE('',#614,#676,#533,.T.);
#380=EDGE_CURVE('',#619,#620,#534,.T.);
#381=EDGE_CURVE('',#612,#620,#535,.T.);
#382=EDGE_CURVE('',#619,#613,#536,.T.);
#383=EDGE_CURVE('',#618,#619,#537,.T.);
#384=EDGE_CURVE('',#618,#614,#538,.T.);
#385=EDGE_CURVE('',#613,#614,#539,.T.);
#386=EDGE_CURVE('',#608,#610,#540,.T.);
#387=EDGE_CURVE('',#617,#609,#541,.T.);
#388=EDGE_CURVE('',#617,#610,#542,.T.);
#389=EDGE_CURVE('',#622,#623,#492,.T.);
#390=EDGE_CURVE('',#615,#622,#493,.T.);
#391=EDGE_CURVE('',#616,#615,#494,.T.);
#392=EDGE_CURVE('',#623,#616,#495,.T.);
#393=EDGE_CURVE('',#620,#621,#543,.T.);
#394=EDGE_CURVE('',#611,#612,#544,.T.);
#395=EDGE_CURVE('',#611,#621,#545,.T.);
#396=EDGE_CURVE('',#621,#617,#496,.T.);
#397=EDGE_CURVE('',#610,#611,#497,.T.);
#398=EDGE_CURVE('',#623,#622,#498,.T.);
#399=EDGE_CURVE('',#615,#616,#499,.T.);
#400=EDGE_CURVE('',#624,#625,#546,.T.);
#401=EDGE_CURVE('',#626,#627,#547,.T.);
#402=EDGE_CURVE('',#627,#630,#500,.T.);
#403=EDGE_CURVE('',#631,#630,#548,.T.);
#404=EDGE_CURVE('',#631,#632,#501,.T.);
#405=EDGE_CURVE('',#633,#632,#549,.T.);
#406=EDGE_CURVE('',#634,#633,#502,.T.);
#407=EDGE_CURVE('',#635,#634,#550,.T.);
#408=EDGE_CURVE('',#636,#635,#503,.T.);
#409=EDGE_CURVE('',#637,#636,#551,.T.);
#410=EDGE_CURVE('',#638,#637,#504,.T.);
#411=EDGE_CURVE('',#639,#638,#552,.T.);
#412=EDGE_CURVE('',#640,#639,#505,.T.);
#413=EDGE_CURVE('',#641,#640,#553,.T.);
#414=EDGE_CURVE('',#641,#642,#506,.T.);
#415=EDGE_CURVE('',#643,#642,#554,.T.);
#416=EDGE_CURVE('',#643,#624,#507,.T.);
#417=EDGE_CURVE('',#629,#644,#555,.T.);
#418=EDGE_CURVE('',#646,#647,#556,.T.);
#419=EDGE_CURVE('',#645,#646,#557,.T.);
#420=EDGE_CURVE('',#648,#649,#558,.T.);
#421=EDGE_CURVE('',#649,#644,#559,.T.);
#422=EDGE_CURVE('',#625,#647,#560,.T.);
#423=EDGE_CURVE('',#648,#626,#561,.T.);
#424=EDGE_CURVE('',#624,#651,#562,.T.);
#425=EDGE_CURVE('',#628,#654,#563,.T.);
#426=EDGE_CURVE('',#630,#656,#508,.T.);
#427=EDGE_CURVE('',#632,#658,#509,.T.);
#428=EDGE_CURVE('',#642,#668,#510,.T.);
#429=EDGE_CURVE('',#646,#673,#564,.T.);
#430=EDGE_CURVE('',#645,#671,#565,.T.);
#431=EDGE_CURVE('',#625,#650,#566,.T.);
#432=EDGE_CURVE('',#647,#672,#567,.T.);
#433=EDGE_CURVE('',#628,#629,#568,.T.);
#434=EDGE_CURVE('',#650,#651,#569,.T.);
#435=EDGE_CURVE('',#652,#653,#570,.T.);
#436=EDGE_CURVE('',#656,#652,#511,.T.);
#437=EDGE_CURVE('',#656,#657,#571,.T.);
#438=EDGE_CURVE('',#658,#657,#512,.T.);
#439=EDGE_CURVE('',#658,#659,#572,.T.);
#440=EDGE_CURVE('',#659,#660,#513,.T.);
#441=EDGE_CURVE('',#660,#661,#573,.T.);
#442=EDGE_CURVE('',#661,#662,#514,.T.);
#443=EDGE_CURVE('',#662,#663,#574,.T.);
#444=EDGE_CURVE('',#663,#664,#515,.T.);
#445=EDGE_CURVE('',#664,#665,#575,.T.);
#446=EDGE_CURVE('',#665,#666,#516,.T.);
#447=EDGE_CURVE('',#666,#667,#576,.T.);
#448=EDGE_CURVE('',#668,#667,#517,.T.);
#449=EDGE_CURVE('',#668,#669,#577,.T.);
#450=EDGE_CURVE('',#651,#669,#518,.T.);
#451=EDGE_CURVE('',#655,#670,#578,.T.);
#452=EDGE_CURVE('',#672,#673,#579,.T.);
#453=EDGE_CURVE('',#673,#671,#580,.T.);
#454=EDGE_CURVE('',#674,#675,#581,.T.);
#455=EDGE_CURVE('',#670,#674,#582,.T.);
#456=EDGE_CURVE('',#672,#650,#583,.T.);
#457=EDGE_CURVE('',#653,#675,#584,.T.);
#458=EDGE_CURVE('',#652,#627,#585,.T.);
#459=EDGE_CURVE('',#657,#631,#519,.T.);
#460=EDGE_CURVE('',#659,#633,#520,.T.);
#461=EDGE_CURVE('',#660,#634,#521,.T.);
#462=EDGE_CURVE('',#661,#635,#522,.T.);
#463=EDGE_CURVE('',#662,#636,#523,.T.);
#464=EDGE_CURVE('',#663,#637,#524,.T.);
#465=EDGE_CURVE('',#664,#638,#525,.T.);
#466=EDGE_CURVE('',#665,#639,#526,.T.);
#467=EDGE_CURVE('',#666,#640,#527,.T.);
#468=EDGE_CURVE('',#667,#641,#528,.T.);
#469=EDGE_CURVE('',#669,#643,#529,.T.);
#470=EDGE_CURVE('',#655,#629,#586,.T.);
#471=EDGE_CURVE('',#674,#649,#587,.T.);
#472=EDGE_CURVE('',#670,#644,#588,.T.);
#473=EDGE_CURVE('',#653,#626,#589,.T.);
#474=EDGE_CURVE('',#675,#648,#590,.T.);
#475=EDGE_CURVE('',#654,#655,#591,.T.);
#476=EDGE_CURVE('',#629,#678,#592,.T.);
#477=EDGE_CURVE('',#645,#628,#593,.T.);
#478=EDGE_CURVE('',#654,#681,#594,.T.);
#479=EDGE_CURVE('',#671,#654,#595,.T.);
#480=EDGE_CURVE('',#677,#628,#596,.T.);
#481=EDGE_CURVE('',#679,#618,#597,.T.);
#482=EDGE_CURVE('',#679,#676,#598,.T.);
#483=EDGE_CURVE('',#678,#677,#599,.T.);
#484=EDGE_CURVE('',#676,#677,#600,.T.);
#485=EDGE_CURVE('',#678,#679,#601,.T.);
#486=EDGE_CURVE('',#682,#655,#602,.T.);
#487=EDGE_CURVE('',#683,#609,#603,.T.);
#488=EDGE_CURVE('',#680,#683,#604,.T.);
#489=EDGE_CURVE('',#681,#682,#605,.T.);
#490=EDGE_CURVE('',#681,#680,#606,.T.);
#491=EDGE_CURVE('',#683,#682,#607,.T.);
#492=(
BOUNDED_CURVE()
B_SPLINE_CURVE(2,(#1147,#1148,#1149,#1150,#1151),.UNSPECIFIED.,.F.,.F.)
B_SPLINE_CURVE_WITH_KNOTS((3,2,3),(-4.00000000000045,-2.00000000000011,
0.),.UNSPECIFIED.)
CURVE()
GEOMETRIC_REPRESENTATION_ITEM()
RATIONAL_B_SPLINE_CURVE((1.,0.707106781186507,1.,0.707106781186507,1.))
REPRESENTATION_ITEM('')
);
#493=(
BOUNDED_CURVE()
B_SPLINE_CURVE(1,(#1152,#1153),.UNSPECIFIED.,.F.,.F.)
B_SPLINE_CURVE_WITH_KNOTS((2,2),(-5.,0.),.UNSPECIFIED.)
CURVE()
GEOMETRIC_REPRESENTATION_ITEM()
RATIONAL_B_SPLINE_CURVE((1.,1.))
REPRESENTATION_ITEM('')
);
#494=(
BOUNDED_CURVE()
B_SPLINE_CURVE(2,(#1154,#1155,#1156,#1157,#1158),.UNSPECIFIED.,.F.,.F.)
B_SPLINE_CURVE_WITH_KNOTS((3,2,3),(-4.00000000000102,-2.00000000000057,
0.),.UNSPECIFIED.)
CURVE()
GEOMETRIC_REPRESENTATION_ITEM()
RATIONAL_B_SPLINE_CURVE((1.,0.707106781186467,1.,0.707106781186467,1.))
REPRESENTATION_ITEM('')
);
#495=(
BOUNDED_CURVE()
B_SPLINE_CURVE(1,(#1159,#1160),.UNSPECIFIED.,.F.,.F.)
B_SPLINE_CURVE_WITH_KNOTS((2,2),(-5.,0.),.UNSPECIFIED.)
CURVE()
GEOMETRIC_REPRESENTATION_ITEM()
RATIONAL_B_SPLINE_CURVE((1.,1.))
REPRESENTATION_ITEM('')
);
#496=(
BOUNDED_CURVE()
B_SPLINE_CURVE(2,(#1175,#1176,#1177),.UNSPECIFIED.,.F.,.F.)
B_SPLINE_CURVE_WITH_KNOTS((3,3),(-4.17870489298787,0.),.UNSPECIFIED.)
CURVE()
GEOMETRIC_REPRESENTATION_ITEM()
RATIONAL_B_SPLINE_CURVE((1.,0.754192434206794,1.))
REPRESENTATION_ITEM('')
);
#497=(
BOUNDED_CURVE()
B_SPLINE_CURVE(2,(#1178,#1179,#1180),.UNSPECIFIED.,.F.,.F.)
B_SPLINE_CURVE_WITH_KNOTS((3,3),(-4.17870489298788,0.),.UNSPECIFIED.)
CURVE()
GEOMETRIC_REPRESENTATION_ITEM()
RATIONAL_B_SPLINE_CURVE((1.,0.75419243420678,1.))
REPRESENTATION_ITEM('')
);
#498=(
BOUNDED_CURVE()
B_SPLINE_CURVE(2,(#1181,#1182,#1183,#1184,#1185),.UNSPECIFIED.,.F.,.F.)
B_SPLINE_CURVE_WITH_KNOTS((3,2,3),(-4.,-2.,0.),.UNSPECIFIED.)
CURVE()
GEOMETRIC_REPRESENTATION_ITEM()
RATIONAL_B_SPLINE_CURVE((1.,0.707106781186548,1.,0.707106781186548,1.))
REPRESENTATION_ITEM('')
);
#499=(
BOUNDED_CURVE()
B_SPLINE_CURVE(2,(#1186,#1187,#1188,#1189,#1190),.UNSPECIFIED.,.F.,.F.)
B_SPLINE_CURVE_WITH_KNOTS((3,2,3),(-3.99999999999966,-1.99999999999977,
0.),.UNSPECIFIED.)
CURVE()
GEOMETRIC_REPRESENTATION_ITEM()
RATIONAL_B_SPLINE_CURVE((1.,0.707106781186588,1.,0.707106781186588,1.))
REPRESENTATION_ITEM('')
);
#500=(
BOUNDED_CURVE()
B_SPLINE_CURVE(2,(#1195,#1196,#1197,#1198,#1199),.UNSPECIFIED.,.F.,.F.)
B_SPLINE_CURVE_WITH_KNOTS((3,2,3),(3.14159245904289,3.92699077058882,4.71238908213475),
 .UNSPECIFIED.)
CURVE()
GEOMETRIC_REPRESENTATION_ITEM()
RATIONAL_B_SPLINE_CURVE((1.,0.923879504164313,1.,0.923879504164313,1.))
REPRESENTATION_ITEM('')
);
#501=(
BOUNDED_CURVE()
B_SPLINE_CURVE(2,(#1202,#1203,#1204),.UNSPECIFIED.,.F.,.F.)
B_SPLINE_CURVE_WITH_KNOTS((3,3),(1.57079611030685,3.14159246248879),
 .UNSPECIFIED.)
CURVE()
GEOMETRIC_REPRESENTATION_ITEM()
RATIONAL_B_SPLINE_CURVE((1.,0.707106772210601,1.))
REPRESENTATION_ITEM('')
);
#502=(
BOUNDED_CURVE()
B_SPLINE_CURVE(2,(#1207,#1208,#1209),.UNSPECIFIED.,.F.,.F.)
B_SPLINE_CURVE_WITH_KNOTS((3,3),(-3.14159265358979,-1.5707963267949),
 .UNSPECIFIED.)
CURVE()
GEOMETRIC_REPRESENTATION_ITEM()
RATIONAL_B_SPLINE_CURVE((1.,0.707106781187527,1.))
REPRESENTATION_ITEM('')
);
#503=(
BOUNDED_CURVE()
B_SPLINE_CURVE(2,(#1212,#1213,#1214),.UNSPECIFIED.,.F.,.F.)
B_SPLINE_CURVE_WITH_KNOTS((3,3),(-3.14159265358979,-1.5707963267949),
 .UNSPECIFIED.)
CURVE()
GEOMETRIC_REPRESENTATION_ITEM()
RATIONAL_B_SPLINE_CURVE((1.,0.707106781186543,1.))
REPRESENTATION_ITEM('')
);
#504=(
BOUNDED_CURVE()
B_SPLINE_CURVE(2,(#1217,#1218,#1219),.UNSPECIFIED.,.F.,.F.)
B_SPLINE_CURVE_WITH_KNOTS((3,3),(-4.71238898038469,-3.14159265358979),
 .UNSPECIFIED.)
CURVE()
GEOMETRIC_REPRESENTATION_ITEM()
RATIONAL_B_SPLINE_CURVE((1.,0.707106781186703,1.))
REPRESENTATION_ITEM('')
);
#505=(
BOUNDED_CURVE()
B_SPLINE_CURVE(2,(#1222,#1223,#1224),.UNSPECIFIED.,.F.,.F.)
B_SPLINE_CURVE_WITH_KNOTS((3,3),(-3.14159265358972,-1.57079632679486),
 .UNSPECIFIED.)
CURVE()
GEOMETRIC_REPRESENTATION_ITEM()
RATIONAL_B_SPLINE_CURVE((1.,0.707106781187955,1.))
REPRESENTATION_ITEM('')
);
#506=(
BOUNDED_CURVE()
B_SPLINE_CURVE(2,(#1227,#1228,#1229),.UNSPECIFIED.,.F.,.F.)
B_SPLINE_CURVE_WITH_KNOTS((3,3),(3.14159284469109,4.71238919687171),
 .UNSPECIFIED.)
CURVE()
GEOMETRIC_REPRESENTATION_ITEM()
RATIONAL_B_SPLINE_CURVE((1.,0.7071067722117,1.))
REPRESENTATION_ITEM('')
);
#507=(
BOUNDED_CURVE()
B_SPLINE_CURVE(2,(#1232,#1233,#1234,#1235,#1236),.UNSPECIFIED.,.F.,.F.)
B_SPLINE_CURVE_WITH_KNOTS((3,2,3),(3.14159255183995,3.92699086338572,4.71238917493148),
 .UNSPECIFIED.)
CURVE()
GEOMETRIC_REPRESENTATION_ITEM()
RATIONAL_B_SPLINE_CURVE((1.,0.923879504164347,1.,0.923879504164347,1.))
REPRESENTATION_ITEM('')
);
#508=(
BOUNDED_CURVE()
B_SPLINE_CURVE(1,(#1271,#1272),.UNSPECIFIED.,.F.,.F.)
B_SPLINE_CURVE_WITH_KNOTS((2,2),(-4.9,-0.100000000000003),.UNSPECIFIED.)
CURVE()
GEOMETRIC_REPRESENTATION_ITEM()
RATIONAL_B_SPLINE_CURVE((1.,1.))
REPRESENTATION_ITEM('')
);
#509=(
BOUNDED_CURVE()
B_SPLINE_CURVE(1,(#1273,#1274),.UNSPECIFIED.,.F.,.F.)
B_SPLINE_CURVE_WITH_KNOTS((2,2),(-4.9,-0.100000000000003),.UNSPECIFIED.)
CURVE()
GEOMETRIC_REPRESENTATION_ITEM()
RATIONAL_B_SPLINE_CURVE((1.,1.))
REPRESENTATION_ITEM('')
);
#510=(
BOUNDED_CURVE()
B_SPLINE_CURVE(1,(#1275,#1276),.UNSPECIFIED.,.F.,.F.)
B_SPLINE_CURVE_WITH_KNOTS((2,2),(-4.9,-0.100000000000003),.UNSPECIFIED.)
CURVE()
GEOMETRIC_REPRESENTATION_ITEM()
RATIONAL_B_SPLINE_CURVE((1.,1.))
REPRESENTATION_ITEM('')
);
#511=(
BOUNDED_CURVE()
B_SPLINE_CURVE(2,(#1291,#1292,#1293,#1294,#1295),.UNSPECIFIED.,.F.,.F.)
B_SPLINE_CURVE_WITH_KNOTS((3,2,3),(-4.71238908213475,-3.92699077058882,
-3.14159245904289),.UNSPECIFIED.)
CURVE()
GEOMETRIC_REPRESENTATION_ITEM()
RATIONAL_B_SPLINE_CURVE((1.,0.923879504164319,1.,0.923879504164319,1.))
REPRESENTATION_ITEM('')
);
#512=(
BOUNDED_CURVE()
B_SPLINE_CURVE(2,(#1298,#1299,#1300),.UNSPECIFIED.,.F.,.F.)
B_SPLINE_CURVE_WITH_KNOTS((3,3),(-3.14159246248879,-1.57079611030685),
 .UNSPECIFIED.)
CURVE()
GEOMETRIC_REPRESENTATION_ITEM()
RATIONAL_B_SPLINE_CURVE((1.,0.707106772210605,1.))
REPRESENTATION_ITEM('')
);
#513=(
BOUNDED_CURVE()
B_SPLINE_CURVE(2,(#1303,#1304,#1305),.UNSPECIFIED.,.F.,.F.)
B_SPLINE_CURVE_WITH_KNOTS((3,3),(1.5707963267949,3.14159265358979),
 .UNSPECIFIED.)
CURVE()
GEOMETRIC_REPRESENTATION_ITEM()
RATIONAL_B_SPLINE_CURVE((1.,0.707106781185995,1.))
REPRESENTATION_ITEM('')
);
#514=(
BOUNDED_CURVE()
B_SPLINE_CURVE(2,(#1308,#1309,#1310),.UNSPECIFIED.,.F.,.F.)
B_SPLINE_CURVE_WITH_KNOTS((3,3),(1.5707963267949,3.14159265358979),
 .UNSPECIFIED.)
CURVE()
GEOMETRIC_REPRESENTATION_ITEM()
RATIONAL_B_SPLINE_CURVE((1.,0.707106781186537,1.))
REPRESENTATION_ITEM('')
);
#515=(
BOUNDED_CURVE()
B_SPLINE_CURVE(2,(#1313,#1314,#1315),.UNSPECIFIED.,.F.,.F.)
B_SPLINE_CURVE_WITH_KNOTS((3,3),(3.14159265358979,4.71238898038469),
 .UNSPECIFIED.)
CURVE()
GEOMETRIC_REPRESENTATION_ITEM()
RATIONAL_B_SPLINE_CURVE((1.,0.707106781186703,1.))
REPRESENTATION_ITEM('')
);
#516=(
BOUNDED_CURVE()
B_SPLINE_CURVE(2,(#1318,#1319,#1320),.UNSPECIFIED.,.F.,.F.)
B_SPLINE_CURVE_WITH_KNOTS((3,3),(1.57079632679489,3.14159265358978),
 .UNSPECIFIED.)
CURVE()
GEOMETRIC_REPRESENTATION_ITEM()
RATIONAL_B_SPLINE_CURVE((1.,0.707106781184825,1.))
REPRESENTATION_ITEM('')
);
#517=(
BOUNDED_CURVE()
B_SPLINE_CURVE(2,(#1323,#1324,#1325),.UNSPECIFIED.,.F.,.F.)
B_SPLINE_CURVE_WITH_KNOTS((3,3),(-4.71238919687171,-3.14159284469109),
 .UNSPECIFIED.)
CURVE()
GEOMETRIC_REPRESENTATION_ITEM()
RATIONAL_B_SPLINE_CURVE((1.,0.707106772211705,1.))
REPRESENTATION_ITEM('')
);
#518=(
BOUNDED_CURVE()
B_SPLINE_CURVE(2,(#1328,#1329,#1330,#1331,#1332),.UNSPECIFIED.,.F.,.F.)
B_SPLINE_CURVE_WITH_KNOTS((3,2,3),(-4.71238917493206,-3.9269908633859,-3.14159255183974),
 .UNSPECIFIED.)
CURVE()
GEOMETRIC_REPRESENTATION_ITEM()
RATIONAL_B_SPLINE_CURVE((1.,0.92387950416413,1.,0.92387950416413,1.))
REPRESENTATION_ITEM('')
);
#519=(
BOUNDED_CURVE()
B_SPLINE_CURVE(1,(#1365,#1366),.UNSPECIFIED.,.F.,.F.)
B_SPLINE_CURVE_WITH_KNOTS((2,2),(0.100000000000003,4.9),.UNSPECIFIED.)
CURVE()
GEOMETRIC_REPRESENTATION_ITEM()
RATIONAL_B_SPLINE_CURVE((1.,1.))
REPRESENTATION_ITEM('')
);
#520=(
BOUNDED_CURVE()
B_SPLINE_CURVE(1,(#1367,#1368),.UNSPECIFIED.,.F.,.F.)
B_SPLINE_CURVE_WITH_KNOTS((2,2),(0.100000000000003,4.9),.UNSPECIFIED.)
CURVE()
GEOMETRIC_REPRESENTATION_ITEM()
RATIONAL_B_SPLINE_CURVE((1.,1.))
REPRESENTATION_ITEM('')
);
#521=(
BOUNDED_CURVE()
B_SPLINE_CURVE(1,(#1369,#1370),.UNSPECIFIED.,.F.,.F.)
B_SPLINE_CURVE_WITH_KNOTS((2,2),(0.100000000000003,4.9),.UNSPECIFIED.)
CURVE()
GEOMETRIC_REPRESENTATION_ITEM()
RATIONAL_B_SPLINE_CURVE((1.,1.))
REPRESENTATION_ITEM('')
);
#522=(
BOUNDED_CURVE()
B_SPLINE_CURVE(1,(#1371,#1372),.UNSPECIFIED.,.F.,.F.)
B_SPLINE_CURVE_WITH_KNOTS((2,2),(0.100000000000003,4.9),.UNSPECIFIED.)
CURVE()
GEOMETRIC_REPRESENTATION_ITEM()
RATIONAL_B_SPLINE_CURVE((1.,1.))
REPRESENTATION_ITEM('')
);
#523=(
BOUNDED_CURVE()
B_SPLINE_CURVE(1,(#1373,#1374),.UNSPECIFIED.,.F.,.F.)
B_SPLINE_CURVE_WITH_KNOTS((2,2),(0.100000000000003,4.9),.UNSPECIFIED.)
CURVE()
GEOMETRIC_REPRESENTATION_ITEM()
RATIONAL_B_SPLINE_CURVE((1.,1.))
REPRESENTATION_ITEM('')
);
#524=(
BOUNDED_CURVE()
B_SPLINE_CURVE(1,(#1375,#1376),.UNSPECIFIED.,.F.,.F.)
B_SPLINE_CURVE_WITH_KNOTS((2,2),(0.100000000000003,4.9),.UNSPECIFIED.)
CURVE()
GEOMETRIC_REPRESENTATION_ITEM()
RATIONAL_B_SPLINE_CURVE((1.,1.))
REPRESENTATION_ITEM('')
);
#525=(
BOUNDED_CURVE()
B_SPLINE_CURVE(1,(#1377,#1378),.UNSPECIFIED.,.F.,.F.)
B_SPLINE_CURVE_WITH_KNOTS((2,2),(0.100000000000003,4.9),.UNSPECIFIED.)
CURVE()
GEOMETRIC_REPRESENTATION_ITEM()
RATIONAL_B_SPLINE_CURVE((1.,1.))
REPRESENTATION_ITEM('')
);
#526=(
BOUNDED_CURVE()
B_SPLINE_CURVE(1,(#1379,#1380),.UNSPECIFIED.,.F.,.F.)
B_SPLINE_CURVE_WITH_KNOTS((2,2),(0.100000000000003,4.9),.UNSPECIFIED.)
CURVE()
GEOMETRIC_REPRESENTATION_ITEM()
RATIONAL_B_SPLINE_CURVE((1.,1.))
REPRESENTATION_ITEM('')
);
#527=(
BOUNDED_CURVE()
B_SPLINE_CURVE(1,(#1381,#1382),.UNSPECIFIED.,.F.,.F.)
B_SPLINE_CURVE_WITH_KNOTS((2,2),(0.100000000000003,4.9),.UNSPECIFIED.)
CURVE()
GEOMETRIC_REPRESENTATION_ITEM()
RATIONAL_B_SPLINE_CURVE((1.,1.))
REPRESENTATION_ITEM('')
);
#528=(
BOUNDED_CURVE()
B_SPLINE_CURVE(1,(#1383,#1384),.UNSPECIFIED.,.F.,.F.)
B_SPLINE_CURVE_WITH_KNOTS((2,2),(0.100000000000003,4.9),.UNSPECIFIED.)
CURVE()
GEOMETRIC_REPRESENTATION_ITEM()
RATIONAL_B_SPLINE_CURVE((1.,1.))
REPRESENTATION_ITEM('')
);
#529=(
BOUNDED_CURVE()
B_SPLINE_CURVE(1,(#1385,#1386),.UNSPECIFIED.,.F.,.F.)
B_SPLINE_CURVE_WITH_KNOTS((2,2),(0.100000000000001,4.9),.UNSPECIFIED.)
CURVE()
GEOMETRIC_REPRESENTATION_ITEM()
RATIONAL_B_SPLINE_CURVE((1.,1.))
REPRESENTATION_ITEM('')
);
#530=B_SPLINE_CURVE_WITH_KNOTS('',1,(#1103,#1104),.UNSPECIFIED.,.F.,.F.,
(2,2),(0.,2.45964437089571),.UNSPECIFIED.);
#531=B_SPLINE_CURVE_WITH_KNOTS('',1,(#1105,#1106),.UNSPECIFIED.,.F.,.F.,
(2,2),(0.,5.),.UNSPECIFIED.);
#532=B_SPLINE_CURVE_WITH_KNOTS('',1,(#1107,#1108,#1109),.UNSPECIFIED.,.F.,
 .F.,(2,1,2),(0.,0.0901805205799064,0.095766094038936),.UNSPECIFIED.);
#533=B_SPLINE_CURVE_WITH_KNOTS('',1,(#1110,#1111),.UNSPECIFIED.,.F.,.F.,
(2,2),(0.,2.36202723621325),.UNSPECIFIED.);
#534=B_SPLINE_CURVE_WITH_KNOTS('',1,(#1112,#1113,#1114),.UNSPECIFIED.,.F.,
 .F.,(2,1,2),(0.,0.00558557345902955,0.095766094038936),.UNSPECIFIED.);
#535=B_SPLINE_CURVE_WITH_KNOTS('',1,(#1115,#1116),.UNSPECIFIED.,.F.,.F.,
(2,2),(0.,5.),.UNSPECIFIED.);
#536=B_SPLINE_CURVE_WITH_KNOTS('',1,(#1117,#1118),.UNSPECIFIED.,.F.,.F.,
(2,2),(0.,5.),.UNSPECIFIED.);
#537=B_SPLINE_CURVE_WITH_KNOTS('',5,(#1119,#1120,#1121,#1122,#1123,#1124),
 .UNSPECIFIED.,.F.,.F.,(6,6),(-4.51882250993906,0.),.UNSPECIFIED.);
#538=B_SPLINE_CURVE_WITH_KNOTS('',1,(#1125,#1126),.UNSPECIFIED.,.F.,.F.,
(2,2),(0.,5.),.UNSPECIFIED.);
#539=B_SPLINE_CURVE_WITH_KNOTS('',5,(#1127,#1128,#1129,#1130,#1131,#1132),
 .UNSPECIFIED.,.F.,.F.,(6,6),(-4.51882250993906,0.),.UNSPECIFIED.);
#540=B_SPLINE_CURVE_WITH_KNOTS('',5,(#1133,#1134,#1135,#1136,#1137,#1138),
 .UNSPECIFIED.,.F.,.F.,(6,6),(-0.143139908175231,0.),.UNSPECIFIED.);
#541=B_SPLINE_CURVE_WITH_KNOTS('',5,(#1139,#1140,#1141,#1142,#1143,#1144),
 .UNSPECIFIED.,.F.,.F.,(6,6),(-0.143139908175231,0.),.UNSPECIFIED.);
#542=B_SPLINE_CURVE_WITH_KNOTS('',1,(#1145,#1146),.UNSPECIFIED.,.F.,.F.,
(2,2),(0.,5.),.UNSPECIFIED.);
#543=B_SPLINE_CURVE_WITH_KNOTS('',5,(#1161,#1162,#1163,#1164,#1165,#1166),
 .UNSPECIFIED.,.F.,.F.,(6,6),(-0.0998149473298293,0.),.UNSPECIFIED.);
#544=B_SPLINE_CURVE_WITH_KNOTS('',5,(#1167,#1168,#1169,#1170,#1171,#1172),
 .UNSPECIFIED.,.F.,.F.,(6,6),(-0.0998149473298293,0.),.UNSPECIFIED.);
#545=B_SPLINE_CURVE_WITH_KNOTS('',1,(#1173,#1174),.UNSPECIFIED.,.F.,.F.,
(2,2),(0.,5.),.UNSPECIFIED.);
#546=B_SPLINE_CURVE_WITH_KNOTS('',1,(#1191,#1192),.UNSPECIFIED.,.F.,.F.,
(2,2),(-2.8097443210971,-0.300000000000001),.UNSPECIFIED.);
#547=B_SPLINE_CURVE_WITH_KNOTS('',1,(#1193,#1194),.UNSPECIFIED.,.F.,.F.,
(2,2),(-2.5097443210971,0.),.UNSPECIFIED.);
#548=B_SPLINE_CURVE_WITH_KNOTS('',1,(#1200,#1201),.UNSPECIFIED.,.F.,.F.,
(2,2),(-1.11199964993898,-0.111999968176065),.UNSPECIFIED.);
#549=B_SPLINE_CURVE_WITH_KNOTS('',1,(#1205,#1206),.UNSPECIFIED.,.F.,.F.,
(2,2),(24.4855999960242,24.7953460971591),.UNSPECIFIED.);
#550=B_SPLINE_CURVE_WITH_KNOTS('',1,(#1210,#1211),.UNSPECIFIED.,.F.,.F.,
(2,2),(-1.34971121734895,-0.679064656122932),.UNSPECIFIED.);
#551=B_SPLINE_CURVE_WITH_KNOTS('',1,(#1215,#1216),.UNSPECIFIED.,.F.,.F.,
(2,2),(0.611999999999995,6.612),.UNSPECIFIED.);
#552=B_SPLINE_CURVE_WITH_KNOTS('',1,(#1220,#1221),.UNSPECIFIED.,.F.,.F.,
(2,2),(0.679064656122932,1.34971121734895),.UNSPECIFIED.);
#553=B_SPLINE_CURVE_WITH_KNOTS('',1,(#1225,#1226),.UNSPECIFIED.,.F.,.F.,
(2,2),(30.1758538948891,30.4855999960242),.UNSPECIFIED.);
#554=B_SPLINE_CURVE_WITH_KNOTS('',1,(#1230,#1231),.UNSPECIFIED.,.F.,.F.,
(2,2),(0.111999968176065,1.11199964993898),.UNSPECIFIED.);
#555=B_SPLINE_CURVE_WITH_KNOTS('',1,(#1237,#1238),.UNSPECIFIED.,.F.,.F.,
(2,2),(-24.7355999960242,-22.2856013904141),.UNSPECIFIED.);
#556=B_SPLINE_CURVE_WITH_KNOTS('',1,(#1239,#1240),.UNSPECIFIED.,.F.,.F.,
(2,2),(-1.25563558203198,-0.299999999999999),.UNSPECIFIED.);
#557=B_SPLINE_CURVE_WITH_KNOTS('',5,(#1241,#1242,#1243,#1244,#1245,#1246),
 .UNSPECIFIED.,.F.,.F.,(6,6),(-0.564852813742387,0.),.UNSPECIFIED.);
#558=B_SPLINE_CURVE_WITH_KNOTS('',1,(#1247,#1248),.UNSPECIFIED.,.F.,.F.,
(2,2),(0.3,1.25563558203198),.UNSPECIFIED.);
#559=B_SPLINE_CURVE_WITH_KNOTS('',5,(#1249,#1250,#1251,#1252,#1253,#1254),
 .UNSPECIFIED.,.F.,.F.,(6,6),(0.,0.564852813742389),.UNSPECIFIED.);
#560=B_SPLINE_CURVE_WITH_KNOTS('',5,(#1255,#1256,#1257,#1258,#1259,#1260),
 .UNSPECIFIED.,.F.,.F.,(6,6),(-0.56485281374239,0.),.UNSPECIFIED.);
#561=B_SPLINE_CURVE_WITH_KNOTS('',5,(#1261,#1262,#1263,#1264,#1265,#1266),
 .UNSPECIFIED.,.F.,.F.,(6,6),(0.,0.564852813742388),.UNSPECIFIED.);
#562=B_SPLINE_CURVE_WITH_KNOTS('',1,(#1267,#1268),.UNSPECIFIED.,.F.,.F.,
(2,2),(-12.7097443210971,-7.9097443210971),.UNSPECIFIED.);
#563=B_SPLINE_CURVE_WITH_KNOTS('',1,(#1269,#1270),.UNSPECIFIED.,.F.,.F.,
(2,2),(0.1,4.9),.UNSPECIFIED.);
#564=B_SPLINE_CURVE_WITH_KNOTS('',1,(#1277,#1278),.UNSPECIFIED.,.F.,.F.,
(2,2),(0.1,4.9),.UNSPECIFIED.);
#565=B_SPLINE_CURVE_WITH_KNOTS('',1,(#1279,#1280),.UNSPECIFIED.,.F.,.F.,
(2,2),(0.1,4.9),.UNSPECIFIED.);
#566=B_SPLINE_CURVE_WITH_KNOTS('',1,(#1281,#1282),.UNSPECIFIED.,.F.,.F.,
(2,2),(0.1,4.9),.UNSPECIFIED.);
#567=B_SPLINE_CURVE_WITH_KNOTS('',1,(#1283,#1284),.UNSPECIFIED.,.F.,.F.,
(2,2),(0.1,4.9),.UNSPECIFIED.);
#568=B_SPLINE_CURVE_WITH_KNOTS('',1,(#1285,#1286),.UNSPECIFIED.,.F.,.F.,
(2,2),(-29.7355999960242,-24.7355999960242),.UNSPECIFIED.);
#569=B_SPLINE_CURVE_WITH_KNOTS('',1,(#1287,#1288),.UNSPECIFIED.,.F.,.F.,
(2,2),(9.2856041791931,11.7953485002902),.UNSPECIFIED.);
#570=B_SPLINE_CURVE_WITH_KNOTS('',1,(#1289,#1290),.UNSPECIFIED.,.F.,.F.,
(2,2),(17.175857069317,19.6856013904141),.UNSPECIFIED.);
#571=B_SPLINE_CURVE_WITH_KNOTS('',1,(#1296,#1297),.UNSPECIFIED.,.F.,.F.,
(2,2),(0.111999968176065,1.11199964993898),.UNSPECIFIED.);
#572=B_SPLINE_CURVE_WITH_KNOTS('',1,(#1301,#1302),.UNSPECIFIED.,.F.,.F.,
(2,2),(-0.952720711248403,-0.642974610113505),.UNSPECIFIED.);
#573=B_SPLINE_CURVE_WITH_KNOTS('',1,(#1306,#1307),.UNSPECIFIED.,.F.,.F.,
(2,2),(0.679064656122932,1.34971121734895),.UNSPECIFIED.);
#574=B_SPLINE_CURVE_WITH_KNOTS('',1,(#1311,#1312),.UNSPECIFIED.,.F.,.F.,
(2,2),(-6.61199999999999,-0.611999999999994),.UNSPECIFIED.);
#575=B_SPLINE_CURVE_WITH_KNOTS('',1,(#1316,#1317),.UNSPECIFIED.,.F.,.F.,
(2,2),(-1.34971121734895,-0.679064656122932),.UNSPECIFIED.);
#576=B_SPLINE_CURVE_WITH_KNOTS('',1,(#1321,#1322),.UNSPECIFIED.,.F.,.F.,
(2,2),(-0.952720711248602,-0.642974610113498),.UNSPECIFIED.);
#577=B_SPLINE_CURVE_WITH_KNOTS('',1,(#1326,#1327),.UNSPECIFIED.,.F.,.F.,
(2,2),(-1.11199964993898,-0.111999968176065),.UNSPECIFIED.);
#578=B_SPLINE_CURVE_WITH_KNOTS('',1,(#1333,#1334),.UNSPECIFIED.,.F.,.F.,
(2,2),(17.235602784804,19.6856013904141),.UNSPECIFIED.);
#579=B_SPLINE_CURVE_WITH_KNOTS('',1,(#1335,#1336),.UNSPECIFIED.,.F.,.F.,
(2,2),(0.3,1.25563558203198),.UNSPECIFIED.);
#580=B_SPLINE_CURVE_WITH_KNOTS('',5,(#1337,#1338,#1339,#1340,#1341,#1342),
 .UNSPECIFIED.,.F.,.F.,(6,6),(0.,0.564852813742387),.UNSPECIFIED.);
#581=B_SPLINE_CURVE_WITH_KNOTS('',1,(#1343,#1344),.UNSPECIFIED.,.F.,.F.,
(2,2),(-1.25563558203198,-0.3),.UNSPECIFIED.);
#582=B_SPLINE_CURVE_WITH_KNOTS('',5,(#1345,#1346,#1347,#1348,#1349,#1350),
 .UNSPECIFIED.,.F.,.F.,(6,6),(-0.564852813742389,0.),.UNSPECIFIED.);
#583=B_SPLINE_CURVE_WITH_KNOTS('',5,(#1351,#1352,#1353,#1354,#1355,#1356),
 .UNSPECIFIED.,.F.,.F.,(6,6),(0.,0.56485281374239),.UNSPECIFIED.);
#584=B_SPLINE_CURVE_WITH_KNOTS('',5,(#1357,#1358,#1359,#1360,#1361,#1362),
 .UNSPECIFIED.,.F.,.F.,(6,6),(-0.564852813742388,0.),.UNSPECIFIED.);
#585=B_SPLINE_CURVE_WITH_KNOTS('',1,(#1363,#1364),.UNSPECIFIED.,.F.,.F.,
(2,2),(-4.9,-0.0999999999999999),.UNSPECIFIED.);
#586=B_SPLINE_CURVE_WITH_KNOTS('',1,(#1387,#1388),.UNSPECIFIED.,.F.,.F.,
(2,2),(0.100000000000001,4.9),.UNSPECIFIED.);
#587=B_SPLINE_CURVE_WITH_KNOTS('',1,(#1389,#1390),.UNSPECIFIED.,.F.,.F.,
(2,2),(0.100000000000003,4.9),.UNSPECIFIED.);
#588=B_SPLINE_CURVE_WITH_KNOTS('',1,(#1391,#1392),.UNSPECIFIED.,.F.,.F.,
(2,2),(0.100000000000003,4.9),.UNSPECIFIED.);
#589=B_SPLINE_CURVE_WITH_KNOTS('',1,(#1393,#1394),.UNSPECIFIED.,.F.,.F.,
(2,2),(0.100000000000003,4.9),.UNSPECIFIED.);
#590=B_SPLINE_CURVE_WITH_KNOTS('',1,(#1395,#1396),.UNSPECIFIED.,.F.,.F.,
(2,2),(0.100000000000003,4.9),.UNSPECIFIED.);
#591=B_SPLINE_CURVE_WITH_KNOTS('',1,(#1397,#1398),.UNSPECIFIED.,.F.,.F.,
(2,2),(12.235602784804,17.235602784804),.UNSPECIFIED.);
#592=B_SPLINE_CURVE_WITH_KNOTS('',1,(#1399,#1400),.UNSPECIFIED.,.F.,.F.,
(2,2),(0.,0.0814311752605688),.UNSPECIFIED.);
#593=B_SPLINE_CURVE_WITH_KNOTS('',1,(#1401,#1402,#1403),.UNSPECIFIED.,.F.,
 .F.,(2,1,2),(-32.6855986016351,-31.9897433508299,-29.7355999960242),
 .UNSPECIFIED.);
#594=B_SPLINE_CURVE_WITH_KNOTS('',1,(#1404,#1405),.UNSPECIFIED.,.F.,.F.,
(2,2),(-4.48558907735675,-4.42009279251242),.UNSPECIFIED.);
#595=B_SPLINE_CURVE_WITH_KNOTS('',1,(#1406,#1407,#1408),.UNSPECIFIED.,.F.,
 .F.,(2,1,2),(9.2856041791931,9.98145942999829,12.235602784804),
 .UNSPECIFIED.);
#596=B_SPLINE_CURVE_WITH_KNOTS('',1,(#1409,#1410),.UNSPECIFIED.,.F.,.F.,
(2,2),(-0.0814311752605208,0.),.UNSPECIFIED.);
#597=B_SPLINE_CURVE_WITH_KNOTS('',1,(#1411,#1412),.UNSPECIFIED.,.F.,.F.,
(2,2),(0.237972763786875,2.60000000000002),.UNSPECIFIED.);
#598=B_SPLINE_CURVE_WITH_KNOTS('',1,(#1413,#1414),.UNSPECIFIED.,.F.,.F.,
(2,2),(-1.55431223447522E-15,5.),.UNSPECIFIED.);
#599=B_SPLINE_CURVE_WITH_KNOTS('',1,(#1415,#1416),.UNSPECIFIED.,.F.,.F.,
(2,2),(-1.11022302462516E-15,5.),.UNSPECIFIED.);
#600=B_SPLINE_CURVE_WITH_KNOTS('',5,(#1417,#1418,#1419,#1420,#1421,#1422),
 .UNSPECIFIED.,.F.,.F.,(6,6),(0.,0.186133762021856),.UNSPECIFIED.);
#601=B_SPLINE_CURVE_WITH_KNOTS('',5,(#1423,#1424,#1425,#1426,#1427,#1428),
 .UNSPECIFIED.,.F.,.F.,(6,6),(-0.186133762021856,0.),.UNSPECIFIED.);
#602=B_SPLINE_CURVE_WITH_KNOTS('',1,(#1429,#1430),.UNSPECIFIED.,.F.,.F.,
(2,2),(4.42009279251241,4.48558907735675),.UNSPECIFIED.);
#603=B_SPLINE_CURVE_WITH_KNOTS('',1,(#1431,#1432),.UNSPECIFIED.,.F.,.F.,
(2,2),(0.236869574139031,2.69651394503474),.UNSPECIFIED.);
#604=B_SPLINE_CURVE_WITH_KNOTS('',1,(#1433,#1434),.UNSPECIFIED.,.F.,.F.,
(2,2),(-2.94209101525666E-15,5.),.UNSPECIFIED.);
#605=B_SPLINE_CURVE_WITH_KNOTS('',1,(#1435,#1436),.UNSPECIFIED.,.F.,.F.,
(2,2),(-4.77395900588817E-15,5.),.UNSPECIFIED.);
#606=B_SPLINE_CURVE_WITH_KNOTS('',5,(#1437,#1438,#1439,#1440,#1441,#1442),
 .UNSPECIFIED.,.F.,.F.,(6,6),(-0.198816579555849,0.),.UNSPECIFIED.);
#607=B_SPLINE_CURVE_WITH_KNOTS('',5,(#1443,#1444,#1445,#1446,#1447,#1448),
 .UNSPECIFIED.,.F.,.F.,(6,6),(0.,0.198816579555849),.UNSPECIFIED.);
#608=VERTEX_POINT('',#1027);
#609=VERTEX_POINT('',#1028);
#610=VERTEX_POINT('',#1029);
#611=VERTEX_POINT('',#1030);
#612=VERTEX_POINT('',#1031);
#613=VERTEX_POINT('',#1032);
#614=VERTEX_POINT('',#1033);
#615=VERTEX_POINT('',#1034);
#616=VERTEX_POINT('',#1035);
#617=VERTEX_POINT('',#1036);
#618=VERTEX_POINT('',#1037);
#619=VERTEX_POINT('',#1038);
#620=VERTEX_POINT('',#1039);
#621=VERTEX_POINT('',#1040);
#622=VERTEX_POINT('',#1041);
#623=VERTEX_POINT('',#1042);
#624=VERTEX_POINT('',#1043);
#625=VERTEX_POINT('',#1044);
#626=VERTEX_POINT('',#1045);
#627=VERTEX_POINT('',#1046);
#628=VERTEX_POINT('',#1047);
#629=VERTEX_POINT('',#1048);
#630=VERTEX_POINT('',#1049);
#631=VERTEX_POINT('',#1050);
#632=VERTEX_POINT('',#1051);
#633=VERTEX_POINT('',#1052);
#634=VERTEX_POINT('',#1053);
#635=VERTEX_POINT('',#1054);
#636=VERTEX_POINT('',#1055);
#637=VERTEX_POINT('',#1056);
#638=VERTEX_POINT('',#1057);
#639=VERTEX_POINT('',#1058);
#640=VERTEX_POINT('',#1059);
#641=VERTEX_POINT('',#1060);
#642=VERTEX_POINT('',#1061);
#643=VERTEX_POINT('',#1062);
#644=VERTEX_POINT('',#1063);
#645=VERTEX_POINT('',#1064);
#646=VERTEX_POINT('',#1065);
#647=VERTEX_POINT('',#1066);
#648=VERTEX_POINT('',#1067);
#649=VERTEX_POINT('',#1068);
#650=VERTEX_POINT('',#1069);
#651=VERTEX_POINT('',#1070);
#652=VERTEX_POINT('',#1071);
#653=VERTEX_POINT('',#1072);
#654=VERTEX_POINT('',#1073);
#655=VERTEX_POINT('',#1074);
#656=VERTEX_POINT('',#1075);
#657=VERTEX_POINT('',#1076);
#658=VERTEX_POINT('',#1077);
#659=VERTEX_POINT('',#1078);
#660=VERTEX_POINT('',#1079);
#661=VERTEX_POINT('',#1080);
#662=VERTEX_POINT('',#1081);
#663=VERTEX_POINT('',#1082);
#664=VERTEX_POINT('',#1083);
#665=VERTEX_POINT('',#1084);
#666=VERTEX_POINT('',#1085);
#667=VERTEX_POINT('',#1086);
#668=VERTEX_POINT('',#1087);
#669=VERTEX_POINT('',#1088);
#670=VERTEX_POINT('',#1089);
#671=VERTEX_POINT('',#1090);
#672=VERTEX_POINT('',#1091);
#673=VERTEX_POINT('',#1092);
#674=VERTEX_POINT('',#1093);
#675=VERTEX_POINT('',#1094);
#676=VERTEX_POINT('',#1095);
#677=VERTEX_POINT('',#1096);
#678=VERTEX_POINT('',#1097);
#679=VERTEX_POINT('',#1098);
#680=VERTEX_POINT('',#1099);
#681=VERTEX_POINT('',#1100);
#682=VERTEX_POINT('',#1101);
#683=VERTEX_POINT('',#1102);
#684=CYLINDRICAL_SURFACE('',#820,1.);
#685=CYLINDRICAL_SURFACE('',#822,0.999999999999886);
#686=CYLINDRICAL_SURFACE('',#824,0.499999999999901);
#687=CYLINDRICAL_SURFACE('',#826,0.500000000000004);
#688=CYLINDRICAL_SURFACE('',#828,0.500000000000002);
#689=CYLINDRICAL_SURFACE('',#830,0.500000000000114);
#690=CYLINDRICAL_SURFACE('',#832,0.999999999999659);
#691=CYLINDRICAL_SURFACE('',#834,0.999999999999915);
#692=CYLINDRICAL_SURFACE('',#835,0.999999999999886);
#693=CYLINDRICAL_SURFACE('',#836,2.39970379079944);
#694=CYLINDRICAL_SURFACE('',#837,1.00000000000011);
#695=B_SPLINE_SURFACE_WITH_KNOTS('',5,1,((#892,#893),(#894,#895),(#896,
#897),(#898,#899),(#900,#901),(#902,#903)),.UNSPECIFIED.,.F.,.F.,.F.,(6,
6),(2,2),(-2.55351295663786E-15,4.51882250993921),(-2.4,7.4),
 .UNSPECIFIED.);
#696=B_SPLINE_SURFACE_WITH_KNOTS('',5,1,((#904,#905),(#906,#907),(#908,
#909),(#910,#911),(#912,#913),(#914,#915)),.UNSPECIFIED.,.F.,.F.,.F.,(6,
6),(2,2),(0.,4.3571113972201),(-2.4,7.4),.UNSPECIFIED.);
#697=B_SPLINE_SURFACE_WITH_KNOTS('',5,1,((#932,#933),(#934,#935),(#936,
#937),(#938,#939),(#940,#941),(#942,#943)),.UNSPECIFIED.,.F.,.F.,.F.,(6,
6),(2,2),(0.,4.35711139721995),(-2.4,7.4),.UNSPECIFIED.);
#698=B_SPLINE_SURFACE_WITH_KNOTS('',1,5,((#949,#950,#951,#952,#953,#954),
(#955,#956,#957,#958,#959,#960)),.UNSPECIFIED.,.F.,.F.,.F.,(2,2),(6,6),
(-0.299999999999997,5.3),(0.,0.564852813742387),.UNSPECIFIED.);
#699=B_SPLINE_SURFACE_WITH_KNOTS('',1,5,((#962,#963,#964,#965,#966,#967),
(#968,#969,#970,#971,#972,#973)),.UNSPECIFIED.,.F.,.F.,.F.,(2,2),(6,6),
(-0.300000000000004,5.29999999999999),(0.,0.564852813742389),
 .UNSPECIFIED.);
#700=B_SPLINE_SURFACE_WITH_KNOTS('',5,1,((#974,#975),(#976,#977),(#978,
#979),(#980,#981),(#982,#983),(#984,#985)),.UNSPECIFIED.,.F.,.F.,.F.,(6,
6),(2,2),(0.,0.56485281374239),(-0.300000000000003,5.3),.UNSPECIFIED.);
#701=B_SPLINE_SURFACE_WITH_KNOTS('',5,1,((#986,#987),(#988,#989),(#990,
#991),(#992,#993),(#994,#995),(#996,#997)),.UNSPECIFIED.,.F.,.F.,.F.,(6,
6),(2,2),(0.,0.564852813742388),(-0.300000000000004,5.3),.UNSPECIFIED.);
#702=B_SPLINE_SURFACE_WITH_KNOTS('',5,1,((#1003,#1004),(#1005,#1006),(#1007,
#1008),(#1009,#1010),(#1011,#1012),(#1013,#1014)),.UNSPECIFIED.,.F.,.F.,
 .F.,(6,6),(2,2),(0.,0.186133762021856),(-0.299999999999995,5.30000000000001),
 .UNSPECIFIED.);
#703=B_SPLINE_SURFACE_WITH_KNOTS('',5,1,((#1015,#1016),(#1017,#1018),(#1019,
#1020),(#1021,#1022),(#1023,#1024),(#1025,#1026)),.UNSPECIFIED.,.F.,.F.,
 .F.,(6,6),(2,2),(0.,0.198816579555849),(-0.299999999999998,5.30000000000001),
 .UNSPECIFIED.);
#704=PLANE('',#814);
#705=PLANE('',#815);
#706=PLANE('',#816);
#707=PLANE('',#817);
#708=PLANE('',#818);
#709=PLANE('',#819);
#710=PLANE('',#821);
#711=PLANE('',#823);
#712=PLANE('',#825);
#713=PLANE('',#827);
#714=PLANE('',#829);
#715=PLANE('',#831);
#716=PLANE('',#833);
#717=PLANE('',#838);
#718=PLANE('',#839);
#719=PLANE('',#840);
#720=PLANE('',#841);
#721=PLANE('',#842);
#722=PLANE('',#843);
#723=PLANE('',#844);
#724=PLANE('',#845);
#725=PLANE('',#846);
#726=SHAPE_DEFINITION_REPRESENTATION(#727,#812);
#727=PRODUCT_DEFINITION_SHAPE('Document','',#729);
#728=PRODUCT_DEFINITION_CONTEXT('3D Mechanical Parts',#801,'design');
#729=PRODUCT_DEFINITION('A','First version',#771,#728);
#730=DATE_TIME_ROLE('classification_date');
#731=DATE_TIME_ROLE('creation_date');
#732=APPLIED_DATE_AND_TIME_ASSIGNMENT(#756,#730,(#735));
#733=APPLIED_DATE_AND_TIME_ASSIGNMENT(#758,#731,(#729));
#734=SECURITY_CLASSIFICATION_LEVEL('unclassified');
#735=SECURITY_CLASSIFICATION('A','Security for version',#734);
#736=APPLIED_SECURITY_CLASSIFICATION_ASSIGNMENT(#735,(#771));
#737=APPROVAL_ROLE('Version approval');
#738=APPROVAL_ROLE('Version Security approval');
#739=APPROVAL_ROLE('Definition approval');
#740=APPROVAL_PERSON_ORGANIZATION(#789,#765,#737);
#741=APPROVAL_PERSON_ORGANIZATION(#790,#766,#738);
#742=APPROVAL_PERSON_ORGANIZATION(#793,#767,#739);
#743=COORDINATED_UNIVERSAL_TIME_OFFSET(5,0,.BEHIND.);
#744=LOCAL_TIME(0,0,0.,#743);
#745=LOCAL_TIME(0,0,0.,#743);
#746=LOCAL_TIME(0,0,0.,#743);
#747=LOCAL_TIME(0,0,0.,#743);
#748=LOCAL_TIME(0,0,0.,#743);
#749=CALENDAR_DATE(1999,1,1);
#750=CALENDAR_DATE(1999,1,1);
#751=CALENDAR_DATE(1999,1,1);
#752=CALENDAR_DATE(1999,1,1);
#753=CALENDAR_DATE(1999,1,1);
#754=DATE_AND_TIME(#749,#744);
#755=DATE_AND_TIME(#750,#745);
#756=DATE_AND_TIME(#751,#746);
#757=DATE_AND_TIME(#752,#747);
#758=DATE_AND_TIME(#753,#748);
#759=APPROVAL_DATE_TIME(#754,#765);
#760=APPROVAL_DATE_TIME(#755,#766);
#761=APPROVAL_DATE_TIME(#757,#767);
#762=APPROVAL_STATUS('not_yet_approved');
#763=APPROVAL_STATUS('not_yet_approved');
#764=APPROVAL_STATUS('approved');
#765=APPROVAL(#762,'Version approval');
#766=APPROVAL(#763,'Version Security approval');
#767=APPROVAL(#764,'Definition approval');
#768=APPLIED_APPROVAL_ASSIGNMENT(#765,(#771));
#769=APPLIED_APPROVAL_ASSIGNMENT(#766,(#735));
#770=APPLIED_APPROVAL_ASSIGNMENT(#767,(#729));
#771=PRODUCT_DEFINITION_FORMATION_WITH_SPECIFIED_SOURCE('A',
'First version',#803,.MADE.);
#772=PERSON_AND_ORGANIZATION_ROLE('design_owner');
#773=PERSON_AND_ORGANIZATION_ROLE('creator');
#774=PERSON_AND_ORGANIZATION_ROLE('design_supplier');
#775=PERSON_AND_ORGANIZATION_ROLE('classification_officer');
#776=PERSON_AND_ORGANIZATION_ROLE('creator');
#777=ORGANIZATION('STI','lab','lab');
#778=ORGANIZATION('STI','unknown','unknown');
#779=ORGANIZATION('STI','unknown','unknown');
#780=ORGANIZATION('STI','unknown','unknown');
#781=ORGANIZATION('STI','unknown','unknown');
#782=ORGANIZATION('STI','unknown','unknown');
#783=ORGANIZATION('STI','unknown','unknown');
#784=PERSON('1','Box','vc60',$,$,$);
#785=PERSON('2','last','first',$,$,$);
#786=PERSON('3','President','Mr.',$,$,$);
#787=PERSON_AND_ORGANIZATION(#784,#777);
#788=PERSON_AND_ORGANIZATION(#785,#778);
#789=PERSON_AND_ORGANIZATION(#786,#779);
#790=PERSON_AND_ORGANIZATION(#786,#780);
#791=PERSON_AND_ORGANIZATION(#786,#781);
#792=PERSON_AND_ORGANIZATION(#785,#782);
#793=PERSON_AND_ORGANIZATION(#786,#783);
#794=APPLIED_PERSON_AND_ORGANIZATION_ASSIGNMENT(#787,#772,(#803));
#795=APPLIED_PERSON_AND_ORGANIZATION_ASSIGNMENT(#788,#773,(#771));
#796=APPLIED_PERSON_AND_ORGANIZATION_ASSIGNMENT(#788,#774,(#771));
#797=APPLIED_PERSON_AND_ORGANIZATION_ASSIGNMENT(#791,#775,(#735));
#798=APPLIED_PERSON_AND_ORGANIZATION_ASSIGNMENT(#792,#776,(#729));
#799=PRODUCT_RELATED_PRODUCT_CATEGORY('detail','detail',(#803));
#800=APPLICATION_PROTOCOL_DEFINITION('International Standard',
'config_control_design',1994,#801);
#801=APPLICATION_CONTEXT(
'configuration controlled 3d designs of mechanical parts and assemblie
s');
#802=PRODUCT_CONTEXT('3D Mechanical Parts',#801,'mechanical');
#803=PRODUCT('Document','Document','',(#802));
#804=(
LENGTH_UNIT()
NAMED_UNIT(*)
SI_UNIT(.MILLI.,.METRE.)
);
#805=(
NAMED_UNIT(*)
PLANE_ANGLE_UNIT()
SI_UNIT($,.RADIAN.)
);
#806=DIMENSIONAL_EXPONENTS(0.,0.,0.,0.,0.,0.,0.);
#807=PLANE_ANGLE_MEASURE_WITH_UNIT(PLANE_ANGLE_MEASURE(0.01745329252),#805);
#808=(
CONVERSION_BASED_UNIT('DEGREES',#807)
NAMED_UNIT(#806)
PLANE_ANGLE_UNIT()
);
#809=(
NAMED_UNIT(*)
SI_UNIT($,.STERADIAN.)
SOLID_ANGLE_UNIT()
);
#810=UNCERTAINTY_MEASURE_WITH_UNIT(LENGTH_MEASURE(0.001),#804,
'DISTANCE_ACCURACY_VALUE',
'Maximum model space distance between geometric entities at asserted c
onnectivities');
#811=(
GEOMETRIC_REPRESENTATION_CONTEXT(3)
GLOBAL_UNCERTAINTY_ASSIGNED_CONTEXT((#810))
GLOBAL_UNIT_ASSIGNED_CONTEXT((#809,#808,#804))
REPRESENTATION_CONTEXT('ID1','3D')
);
#812=SHAPE_REPRESENTATION('Document',(#813,#847),#811);
#813=AXIS2_PLACEMENT_3D('',#885,#848,#849);
#814=AXIS2_PLACEMENT_3D('',#886,#850,$);
#815=AXIS2_PLACEMENT_3D('',#887,#851,$);
#816=AXIS2_PLACEMENT_3D('',#888,#852,$);
#817=AXIS2_PLACEMENT_3D('',#889,#853,$);
#818=AXIS2_PLACEMENT_3D('',#890,#854,$);
#819=AXIS2_PLACEMENT_3D('',#891,#855,$);
#820=AXIS2_PLACEMENT_3D('',#916,#856,$);
#821=AXIS2_PLACEMENT_3D('',#917,#857,$);
#822=AXIS2_PLACEMENT_3D('',#918,#858,$);
#823=AXIS2_PLACEMENT_3D('',#919,#859,$);
#824=AXIS2_PLACEMENT_3D('',#920,#860,$);
#825=AXIS2_PLACEMENT_3D('',#921,#861,$);
#826=AXIS2_PLACEMENT_3D('',#922,#862,$);
#827=AXIS2_PLACEMENT_3D('',#923,#863,$);
#828=AXIS2_PLACEMENT_3D('',#924,#864,$);
#829=AXIS2_PLACEMENT_3D('',#925,#865,$);
#830=AXIS2_PLACEMENT_3D('',#926,#866,$);
#831=AXIS2_PLACEMENT_3D('',#927,#867,$);
#832=AXIS2_PLACEMENT_3D('',#928,#868,$);
#833=AXIS2_PLACEMENT_3D('',#929,#869,$);
#834=AXIS2_PLACEMENT_3D('',#930,#870,$);
#835=AXIS2_PLACEMENT_3D('',#931,#871,$);
#836=AXIS2_PLACEMENT_3D('',#944,#872,$);
#837=AXIS2_PLACEMENT_3D('',#945,#873,$);
#838=AXIS2_PLACEMENT_3D('',#946,#874,$);
#839=AXIS2_PLACEMENT_3D('',#947,#875,$);
#840=AXIS2_PLACEMENT_3D('',#948,#876,$);
#841=AXIS2_PLACEMENT_3D('',#961,#877,$);
#842=AXIS2_PLACEMENT_3D('',#998,#878,$);
#843=AXIS2_PLACEMENT_3D('',#999,#879,$);
#844=AXIS2_PLACEMENT_3D('',#1000,#880,$);
#845=AXIS2_PLACEMENT_3D('',#1001,#881,$);
#846=AXIS2_PLACEMENT_3D('',#1002,#882,$);
#847=AXIS2_PLACEMENT_3D('',#1449,#883,#884);
#848=DIRECTION('',(0.,0.,1.));
#849=DIRECTION('',(1.,0.,0.));
#850=DIRECTION('',(0.,1.,0.));
#851=DIRECTION('',(0.,1.,0.));
#852=DIRECTION('',(0.999225717195516,-0.0393442002728044,5.24170044339969E-17));
#853=DIRECTION('',(0.,0.,-1.));
#854=DIRECTION('',(0.,0.,1.));
#855=DIRECTION('',(0.,-1.,0.));
#856=DIRECTION('',(1.,0.,0.));
#857=DIRECTION('',(0.,0.,1.));
#858=DIRECTION('',(1.,0.,0.));
#859=DIRECTION('',(0.,-1.,0.));
#860=DIRECTION('',(-1.,-1.6155871338933E-27,-2.27373675443279E-13));
#861=DIRECTION('',(0.,0.,1.));
#862=DIRECTION('',(-1.,0.,0.));
#863=DIRECTION('',(0.,1.,0.));
#864=DIRECTION('',(-1.,0.,0.));
#865=DIRECTION('',(0.,0.,-1.));
#866=DIRECTION('',(-1.,2.2737367544318E-13,2.27373675443184E-13));
#867=DIRECTION('',(0.,-1.,0.));
#868=DIRECTION('',(1.,0.,0.));
#869=DIRECTION('',(0.,0.,-1.));
#870=DIRECTION('',(1.,-1.13686837721626E-13,1.13686837721626E-13));
#871=DIRECTION('',(0.,0.,1.));
#872=DIRECTION('',(0.,0.,1.));
#873=DIRECTION('',(0.,0.,1.));
#874=DIRECTION('',(0.,-1.,0.));
#875=DIRECTION('',(0.,-1.,0.));
#876=DIRECTION('',(0.,0.,-1.));
#877=DIRECTION('',(0.,0.,1.));
#878=DIRECTION('',(-1.,0.,0.));
#879=DIRECTION('',(-1.,0.,0.));
#880=DIRECTION('',(1.,0.,0.));
#881=DIRECTION('',(-0.82145866246505,0.570268064914327,-1.18786308497781E-15));
#882=DIRECTION('',(0.82145866246505,0.570268064914327,-8.23062156639215E-16));
#883=DIRECTION('',(0.,0.,1.));
#884=DIRECTION('',(1.,0.,0.));
#885=CARTESIAN_POINT('',(0.,0.,0.));
#886=CARTESIAN_POINT('',(66.902355399387,-3.85443324831648,36.0221963429763));
#887=CARTESIAN_POINT('',(66.902355399387,-3.85443324831647,44.2124492331002));
#888=CARTESIAN_POINT('',(71.7851636557918,-8.38639070831666,38.7601949485872));
#889=CARTESIAN_POINT('',(72.414355399387,-10.9220688303484,39.2721949485872));
#890=CARTESIAN_POINT('',(66.390355399387,-10.9220688303484,44.2721949485872));
#891=CARTESIAN_POINT('',(68.6807787899831,-10.4100688303485,44.7841949485872));
#892=CARTESIAN_POINT('',(69.3023553993872,-10.4100688303484,46.6721949485872));
#893=CARTESIAN_POINT('',(69.3023553993873,-10.4100688303485,36.8721949485872));
#894=CARTESIAN_POINT('',(68.3423553993868,-10.4100688303483,46.6721949485872));
#895=CARTESIAN_POINT('',(68.3423553993868,-10.4100688303482,36.8721949485872));
#896=CARTESIAN_POINT('',(67.3823553993864,-10.4100688303484,46.6721949485872));
#897=CARTESIAN_POINT('',(67.3823553993864,-10.4100688303485,36.8721949485872));
#898=CARTESIAN_POINT('',(66.9023553993871,-9.93006883034819,46.6721949485872));
#899=CARTESIAN_POINT('',(66.9023553993871,-9.9300688303482,36.8721949485872));
#900=CARTESIAN_POINT('',(66.902355399387,-8.97006883034838,46.6721949485872));
#901=CARTESIAN_POINT('',(66.902355399387,-8.9700688303484,36.8721949485872));
#902=CARTESIAN_POINT('',(66.902355399387,-8.01006883034835,46.6721949485872));
#903=CARTESIAN_POINT('',(66.902355399387,-8.01006883034847,36.8721949485872));
#904=CARTESIAN_POINT('',(69.3981214934258,-10.4100688303485,36.8721949485872));
#905=CARTESIAN_POINT('',(69.3981214934258,-10.4100688303484,46.6721949485872));
#906=CARTESIAN_POINT('',(70.321065680978,-10.4100688303483,36.8721949485872));
#907=CARTESIAN_POINT('',(70.321065680978,-10.4100688303484,46.6721949485872));
#908=CARTESIAN_POINT('',(71.2440098685301,-10.4100688303485,36.8721949485872));
#909=CARTESIAN_POINT('',(71.2440098685301,-10.4100688303484,46.6721949485872));
#910=CARTESIAN_POINT('',(71.723638212784,-9.94895404647912,36.8721949485872));
#911=CARTESIAN_POINT('',(71.7236382127841,-9.9489540464791,46.6721949485872));
#912=CARTESIAN_POINT('',(71.7599507137398,-9.02672447874113,36.8721949485872));
#913=CARTESIAN_POINT('',(71.7599507137398,-9.02672447874123,46.6721949485872));
#914=CARTESIAN_POINT('',(71.7962632146952,-8.10449491100348,36.8721949485872));
#915=CARTESIAN_POINT('',(71.7962632146952,-8.10449491100347,46.6721949485872));
#916=CARTESIAN_POINT('',(69.402355399387,-2.85443324831647,44.2124490385533));
#917=CARTESIAN_POINT('',(66.390355399387,-2.96643311474269,43.2124490385533));
#918=CARTESIAN_POINT('',(69.402355399387,-1.85443324831544,44.2124490385533));
#919=CARTESIAN_POINT('',(66.390355399387,-0.854433248316468,45.1651695587007));
#920=CARTESIAN_POINT('',(69.402355399387,-0.354433248316475,44.5221949485872));
#921=CARTESIAN_POINT('',(66.390355399387,-1.03349790443906,45.0221949485873));
#922=CARTESIAN_POINT('',(69.4023553993871,0.316213312909558,44.5221949485872));
#923=CARTESIAN_POINT('',(66.390355399387,0.816213312909554,37.9101949485872));
#924=CARTESIAN_POINT('',(69.4023553993871,0.316213312909556,38.5221949485873));
#925=CARTESIAN_POINT('',(72.414355399387,-1.03349790443906,38.0221949485873));
#926=CARTESIAN_POINT('',(69.4023553993871,-0.354433248316468,38.5221949485872));
#927=CARTESIAN_POINT('',(66.390355399387,-0.854433248316468,39.4749156598358));
#928=CARTESIAN_POINT('',(69.4023553993872,-1.85443324831647,38.831940858621));
#929=CARTESIAN_POINT('',(72.414355399387,-2.96643311474269,39.8319408586213));
#930=CARTESIAN_POINT('',(69.4023553993872,-2.85443324831648,38.8319408586213));
#931=CARTESIAN_POINT('',(69.402355399387,-7.91006886866546,41.7721949485872));
#932=CARTESIAN_POINT('',(69.3981214934258,-10.4100688303485,36.8721949485872));
#933=CARTESIAN_POINT('',(69.3981214934259,-10.4100688303484,46.6721949485872));
#934=CARTESIAN_POINT('',(70.321065680978,-10.4100688303483,36.8721949485872));
#935=CARTESIAN_POINT('',(70.321065680978,-10.4100688303484,46.6721949485872));
#936=CARTESIAN_POINT('',(71.24400986853,-10.4100688303483,36.8721949485872));
#937=CARTESIAN_POINT('',(71.2440098685301,-10.4100688303483,46.6721949485872));
#938=CARTESIAN_POINT('',(71.723638212784,-9.94895404647934,36.8721949485872));
#939=CARTESIAN_POINT('',(71.7236382127841,-9.94895404647933,46.6721949485872));
#940=CARTESIAN_POINT('',(71.7599507137397,-9.02672447874136,36.8721949485872));
#941=CARTESIAN_POINT('',(71.7599507137398,-9.02672447874146,46.6721949485872));
#942=CARTESIAN_POINT('',(71.7962632146952,-8.1044949110036,36.8721949485872));
#943=CARTESIAN_POINT('',(71.7962632146952,-8.10449491100358,46.6721949485872));
#944=CARTESIAN_POINT('',(69.402355399387,-8.01222308893045,41.7721949485872));
#945=CARTESIAN_POINT('',(69.402355399387,-7.91006886866546,41.7721949485872));
#946=CARTESIAN_POINT('',(66.902355399387,-5.41006883034845,44.2124492331002));
#947=CARTESIAN_POINT('',(66.402355399387,-5.41006883034846,36.0221963429763));
#948=CARTESIAN_POINT('',(66.902355399387,-3.85443324831648,36.0221963429763));
#949=CARTESIAN_POINT('',(66.602355399387,-5.11006883034845,36.0221963429763));
#950=CARTESIAN_POINT('',(66.602355399387,-5.23006883034846,36.0221963429763));
#951=CARTESIAN_POINT('',(66.602355399387,-5.35006883034846,36.0221963429763));
#952=CARTESIAN_POINT('',(66.602355399387,-5.41006883034846,36.0821963429763));
#953=CARTESIAN_POINT('',(66.602355399387,-5.41006883034846,36.2021963429763));
#954=CARTESIAN_POINT('',(66.602355399387,-5.41006883034846,36.3221963429763));
#955=CARTESIAN_POINT('',(72.202355399387,-5.11006883034845,36.0221963429763));
#956=CARTESIAN_POINT('',(72.202355399387,-5.23006883034846,36.0221963429763));
#957=CARTESIAN_POINT('',(72.202355399387,-5.35006883034846,36.0221963429763));
#958=CARTESIAN_POINT('',(72.202355399387,-5.41006883034846,36.0821963429763));
#959=CARTESIAN_POINT('',(72.202355399387,-5.41006883034846,36.2021963429763));
#960=CARTESIAN_POINT('',(72.202355399387,-5.41006883034846,36.3221963429763));
#961=CARTESIAN_POINT('',(71.902355399387,-3.85443324831645,47.0221935541973));
#962=CARTESIAN_POINT('',(72.202355399387,-5.11006883034844,47.0221935541973));
#963=CARTESIAN_POINT('',(72.202355399387,-5.23006883034844,47.0221935541973));
#964=CARTESIAN_POINT('',(72.202355399387,-5.35006883034845,47.0221935541973));
#965=CARTESIAN_POINT('',(72.202355399387,-5.41006883034844,46.9621935541973));
#966=CARTESIAN_POINT('',(72.202355399387,-5.41006883034844,46.8421935541973));
#967=CARTESIAN_POINT('',(72.202355399387,-5.41006883034844,46.7221935541973));
#968=CARTESIAN_POINT('',(66.602355399387,-5.11006883034844,47.0221935541973));
#969=CARTESIAN_POINT('',(66.602355399387,-5.23006883034844,47.0221935541973));
#970=CARTESIAN_POINT('',(66.602355399387,-5.35006883034845,47.0221935541973));
#971=CARTESIAN_POINT('',(66.602355399387,-5.41006883034844,46.9621935541973));
#972=CARTESIAN_POINT('',(66.602355399387,-5.41006883034844,46.8421935541973));
#973=CARTESIAN_POINT('',(66.602355399387,-5.41006883034844,46.7221935541973));
#974=CARTESIAN_POINT('',(66.602355399387,-4.15443324831648,36.0221963429763));
#975=CARTESIAN_POINT('',(72.202355399387,-4.15443324831648,36.0221963429763));
#976=CARTESIAN_POINT('',(66.602355399387,-4.03443324831647,36.0221963429763));
#977=CARTESIAN_POINT('',(72.202355399387,-4.03443324831647,36.0221963429763));
#978=CARTESIAN_POINT('',(66.602355399387,-3.91443324831648,36.0221963429763));
#979=CARTESIAN_POINT('',(72.202355399387,-3.91443324831647,36.0221963429763));
#980=CARTESIAN_POINT('',(66.602355399387,-3.85443324831648,36.0821963429763));
#981=CARTESIAN_POINT('',(72.202355399387,-3.85443324831648,36.0821963429763));
#982=CARTESIAN_POINT('',(66.602355399387,-3.85443324831648,36.2021963429763));
#983=CARTESIAN_POINT('',(72.202355399387,-3.85443324831648,36.2021963429763));
#984=CARTESIAN_POINT('',(66.602355399387,-3.85443324831648,36.3221963429763));
#985=CARTESIAN_POINT('',(72.202355399387,-3.85443324831648,36.3221963429763));
#986=CARTESIAN_POINT('',(72.202355399387,-4.15443324831647,47.0221935541973));
#987=CARTESIAN_POINT('',(66.602355399387,-4.15443324831647,47.0221935541973));
#988=CARTESIAN_POINT('',(72.202355399387,-4.03443324831646,47.0221935541973));
#989=CARTESIAN_POINT('',(66.602355399387,-4.03443324831646,47.0221935541973));
#990=CARTESIAN_POINT('',(72.202355399387,-3.91443324831646,47.0221935541973));
#991=CARTESIAN_POINT('',(66.602355399387,-3.91443324831647,47.0221935541973));
#992=CARTESIAN_POINT('',(72.202355399387,-3.85443324831645,46.9621935541973));
#993=CARTESIAN_POINT('',(66.602355399387,-3.85443324831645,46.9621935541973));
#994=CARTESIAN_POINT('',(72.202355399387,-3.85443324831645,46.8421935541973));
#995=CARTESIAN_POINT('',(66.602355399387,-3.85443324831645,46.8421935541973));
#996=CARTESIAN_POINT('',(72.202355399387,-3.85443324831645,46.7221935541973));
#997=CARTESIAN_POINT('',(66.602355399387,-3.85443324831645,46.7221935541973));
#998=CARTESIAN_POINT('',(67.002355399387,-5.41006883034844,48.0221935541973));
#999=CARTESIAN_POINT('',(66.902355399387,1.69884152723536,47.0331936643237));
#1000=CARTESIAN_POINT('',(71.802355399387,-5.41006883034846,34.4676736635996));
#1001=CARTESIAN_POINT('',(66.667918827772,-5.89181738984315,37.0180515937815));
#1002=CARTESIAN_POINT('',(71.802355399387,-5.41006883034856,37.0180515937815));
#1003=CARTESIAN_POINT('',(66.902355399387,-5.64804159413532,44.5721949485872));
#1004=CARTESIAN_POINT('',(66.902355399387,-5.64804159413534,38.9721949485872));
#1005=CARTESIAN_POINT('',(66.902355399387,-5.61047161288903,44.5721949485872));
#1006=CARTESIAN_POINT('',(66.902355399387,-5.61047161288903,38.9721949485872));
#1007=CARTESIAN_POINT('',(66.902355399387,-5.57290163164272,44.5721949485872));
#1008=CARTESIAN_POINT('',(66.902355399387,-5.57290163164274,38.9721949485872));
#1009=CARTESIAN_POINT('',(66.9130678796391,-5.53868554774786,44.5721949485872));
#1010=CARTESIAN_POINT('',(66.9130678796391,-5.53868554774787,38.9721949485872));
#1011=CARTESIAN_POINT('',(66.9344928401433,-5.50782336120444,44.5721949485872));
#1012=CARTESIAN_POINT('',(66.9344928401433,-5.50782336120446,38.9721949485872));
#1013=CARTESIAN_POINT('',(66.9559178006475,-5.47696117466103,44.5721949485872));
#1014=CARTESIAN_POINT('',(66.9559178006475,-5.47696117466103,38.9721949485872));
#1015=CARTESIAN_POINT('',(71.8930359554234,-5.64675500044932,38.9721949485872));
#1016=CARTESIAN_POINT('',(71.8930359554234,-5.6467550004493,44.5721949485872));
#1017=CARTESIAN_POINT('',(71.8946167702412,-5.6066070038148,38.9721949485872));
#1018=CARTESIAN_POINT('',(71.8946167702412,-5.60660700381479,44.5721949485872));
#1019=CARTESIAN_POINT('',(71.8961975850591,-5.56645900718027,38.9721949485872));
#1020=CARTESIAN_POINT('',(71.8961975850591,-5.56645900718027,44.5721949485872));
#1021=CARTESIAN_POINT('',(71.8855315617753,-5.52988227126905,38.9721949485872));
#1022=CARTESIAN_POINT('',(71.8855315617753,-5.52988227126905,44.5721949485872));
#1023=CARTESIAN_POINT('',(71.8626187003897,-5.49687679608111,38.9721949485872));
#1024=CARTESIAN_POINT('',(71.8626187003897,-5.49687679608111,44.5721949485872));
#1025=CARTESIAN_POINT('',(71.8397058390042,-5.46387132089318,38.9721949485872));
#1026=CARTESIAN_POINT('',(71.8397058390042,-5.46387132089318,44.5721949485872));
#1027=CARTESIAN_POINT('',(71.7962632146949,-8.10449491100348,39.2721949485872));
#1028=CARTESIAN_POINT('',(71.7962632146949,-8.10449491100348,44.2721949485872));
#1029=CARTESIAN_POINT('',(71.790495754338,-8.2475184960914,39.2721949485872));
#1030=CARTESIAN_POINT('',(69.49793641622,-10.4100226119924,39.2721949485872));
#1031=CARTESIAN_POINT('',(69.3981214934259,-10.4100688303486,39.2721949485872));
#1032=CARTESIAN_POINT('',(69.302355399387,-10.4100688303486,39.2721949485872));
#1033=CARTESIAN_POINT('',(66.902355399387,-8.01006883034847,39.2721949485872));
#1034=CARTESIAN_POINT('',(70.402355399387,-7.91006886866558,39.2721949485872));
#1035=CARTESIAN_POINT('',(68.402355399387,-7.91006886866558,39.2721949485872));
#1036=CARTESIAN_POINT('',(71.790495754338,-8.2475184960914,44.2721949485872));
#1037=CARTESIAN_POINT('',(66.902355399387,-8.01006883034847,44.2721949485872));
#1038=CARTESIAN_POINT('',(69.302355399387,-10.4100688303486,44.2721949485872));
#1039=CARTESIAN_POINT('',(69.3981214934259,-10.4100688303486,44.2721949485872));
#1040=CARTESIAN_POINT('',(69.49793641622,-10.4100226119924,44.2721949485872));
#1041=CARTESIAN_POINT('',(70.402355399387,-7.91006886866558,44.2721949485872));
#1042=CARTESIAN_POINT('',(68.402355399387,-7.91006886866558,44.2721949485872));
#1043=CARTESIAN_POINT('',(67.002355399387,-3.85443324831647,38.8319406640734));
#1044=CARTESIAN_POINT('',(67.002355399387,-3.85443324831648,36.3221963429763));
#1045=CARTESIAN_POINT('',(67.002355399387,-3.85443324831645,46.7221935541973));
#1046=CARTESIAN_POINT('',(67.002355399387,-3.85443324831647,44.2124492331002));
#1047=CARTESIAN_POINT('',(67.002355399387,-5.41006883034856,39.2721949485872));
#1048=CARTESIAN_POINT('',(67.002355399387,-5.41006883034845,44.2721949485872));
#1049=CARTESIAN_POINT('',(67.002355399387,-2.85443314656652,43.2124490385533));
#1050=CARTESIAN_POINT('',(67.002355399387,-1.85443346480349,43.2124490385533));
#1051=CARTESIAN_POINT('',(67.002355399387,-0.854433248316468,44.2124488474523));
#1052=CARTESIAN_POINT('',(67.002355399387,-0.854433248316468,44.5221949485872));
#1053=CARTESIAN_POINT('',(67.002355399387,-0.354433248316468,45.0221949485873));
#1054=CARTESIAN_POINT('',(67.002355399387,0.316213312909554,45.0221949485872));
#1055=CARTESIAN_POINT('',(67.002355399387,0.816213312909568,44.5221949485872));
#1056=CARTESIAN_POINT('',(67.002355399387,0.816213312909554,38.5221949485872));
#1057=CARTESIAN_POINT('',(67.002355399387,0.316213312909554,38.0221949485872));
#1058=CARTESIAN_POINT('',(67.002355399387,-0.354433248316468,38.0221949485872));
#1059=CARTESIAN_POINT('',(67.002355399387,-0.854433248316468,38.5221949485872));
#1060=CARTESIAN_POINT('',(67.002355399387,-0.854433248316468,38.8319410497223));
#1061=CARTESIAN_POINT('',(67.002355399387,-1.85443346480349,39.8319408586213));
#1062=CARTESIAN_POINT('',(67.002355399387,-2.85443314656652,39.8319408586213));
#1063=CARTESIAN_POINT('',(67.002355399387,-5.41006883034844,46.7221935541973));
#1064=CARTESIAN_POINT('',(67.002355399387,-5.41006883034846,36.3221963429763));
#1065=CARTESIAN_POINT('',(67.002355399387,-5.11006883034845,36.0221963429763));
#1066=CARTESIAN_POINT('',(67.002355399387,-4.15443324831648,36.0221963429763));
#1067=CARTESIAN_POINT('',(67.002355399387,-4.15443324831647,47.0221935541973));
#1068=CARTESIAN_POINT('',(67.002355399387,-5.11006883034844,47.0221935541973));
#1069=CARTESIAN_POINT('',(71.802355399387,-3.85443324831648,36.3221963429763));
#1070=CARTESIAN_POINT('',(71.802355399387,-3.85443324831647,38.8319406640734));
#1071=CARTESIAN_POINT('',(71.802355399387,-3.85443324831647,44.2124492331002));
#1072=CARTESIAN_POINT('',(71.802355399387,-3.85443324831645,46.7221935541973));
#1073=CARTESIAN_POINT('',(71.802355399387,-5.41006883034845,39.2721949485872));
#1074=CARTESIAN_POINT('',(71.802355399387,-5.41006883034845,44.2721949485872));
#1075=CARTESIAN_POINT('',(71.802355399387,-2.85443314656652,43.2124490385533));
#1076=CARTESIAN_POINT('',(71.802355399387,-1.85443346480349,43.2124490385533));
#1077=CARTESIAN_POINT('',(71.802355399387,-0.854433248316468,44.2124488474523));
#1078=CARTESIAN_POINT('',(71.802355399387,-0.854433248316468,44.5221949485872));
#1079=CARTESIAN_POINT('',(71.802355399387,-0.354433248316468,45.0221949485873));
#1080=CARTESIAN_POINT('',(71.802355399387,0.316213312909554,45.0221949485872));
#1081=CARTESIAN_POINT('',(71.802355399387,0.816213312909568,44.5221949485872));
#1082=CARTESIAN_POINT('',(71.802355399387,0.816213312909554,38.5221949485872));
#1083=CARTESIAN_POINT('',(71.802355399387,0.316213312909554,38.0221949485872));
#1084=CARTESIAN_POINT('',(71.802355399387,-0.354433248316468,38.0221949485872));
#1085=CARTESIAN_POINT('',(71.802355399387,-0.854433248316468,38.5221949485872));
#1086=CARTESIAN_POINT('',(71.802355399387,-0.854433248316468,38.8319410497223));
#1087=CARTESIAN_POINT('',(71.802355399387,-1.85443346480349,39.8319408586213));
#1088=CARTESIAN_POINT('',(71.802355399387,-2.85443314656652,39.8319408586213));
#1089=CARTESIAN_POINT('',(71.802355399387,-5.41006883034844,46.7221935541973));
#1090=CARTESIAN_POINT('',(71.802355399387,-5.41006883034846,36.3221963429763));
#1091=CARTESIAN_POINT('',(71.802355399387,-4.15443324831648,36.0221963429763));
#1092=CARTESIAN_POINT('',(71.802355399387,-5.11006883034845,36.0221963429763));
#1093=CARTESIAN_POINT('',(71.802355399387,-5.11006883034844,47.0221935541973));
#1094=CARTESIAN_POINT('',(71.802355399387,-4.15443324831647,47.0221935541973));
#1095=CARTESIAN_POINT('',(66.902355399387,-5.64804159413534,39.2721949485872));
#1096=CARTESIAN_POINT('',(66.9559178006475,-5.47696117466103,39.2721949485872));
#1097=CARTESIAN_POINT('',(66.9559178006475,-5.47696117466101,44.2721949485872));
#1098=CARTESIAN_POINT('',(66.902355399387,-5.64804159413532,44.2721949485872));
#1099=CARTESIAN_POINT('',(71.8930359554235,-5.64675500044932,39.2721949485872));
#1100=CARTESIAN_POINT('',(71.8397058390042,-5.46387132089316,39.2721949485872));
#1101=CARTESIAN_POINT('',(71.8397058390042,-5.46387132089316,44.2721949485872));
#1102=CARTESIAN_POINT('',(71.8930359554235,-5.64675500044932,44.2721949485872));
#1103=CARTESIAN_POINT('',(71.7962632146949,-8.10449491100348,39.2721949485872));
#1104=CARTESIAN_POINT('',(71.8930359554235,-5.64675500044932,39.2721949485872));
#1105=CARTESIAN_POINT('',(71.7962632146949,-8.10449491100348,44.2721949485872));
#1106=CARTESIAN_POINT('',(71.7962632146949,-8.10449491100348,39.2721949485872));
#1107=CARTESIAN_POINT('',(69.3981214934259,-10.4100688303486,39.2721949485872));
#1108=CARTESIAN_POINT('',(69.307940972846,-10.4100688303486,39.2721949485872));
#1109=CARTESIAN_POINT('',(69.302355399387,-10.4100688303486,39.2721949485872));
#1110=CARTESIAN_POINT('',(66.902355399387,-8.01006883034847,39.2721949485872));
#1111=CARTESIAN_POINT('',(66.902355399387,-5.64804159413534,39.2721949485872));
#1112=CARTESIAN_POINT('',(69.302355399387,-10.4100688303486,44.2721949485872));
#1113=CARTESIAN_POINT('',(69.307940972846,-10.4100688303486,44.2721949485872));
#1114=CARTESIAN_POINT('',(69.3981214934259,-10.4100688303486,44.2721949485872));
#1115=CARTESIAN_POINT('',(69.3981214934259,-10.4100688303486,39.2721949485872));
#1116=CARTESIAN_POINT('',(69.3981214934259,-10.4100688303486,44.2721949485872));
#1117=CARTESIAN_POINT('',(69.302355399387,-10.4100688303486,44.2721949485872));
#1118=CARTESIAN_POINT('',(69.302355399387,-10.4100688303486,39.2721949485872));
#1119=CARTESIAN_POINT('',(66.902355399387,-8.01006883034847,44.2721949485872));
#1120=CARTESIAN_POINT('',(66.902355399387,-8.97006883034852,44.2721949485872));
#1121=CARTESIAN_POINT('',(66.902355399387,-9.93006883034847,44.2721949485872));
#1122=CARTESIAN_POINT('',(67.3823553993869,-10.4100688303485,44.2721949485872));
#1123=CARTESIAN_POINT('',(68.3423553993869,-10.4100688303485,44.2721949485872));
#1124=CARTESIAN_POINT('',(69.302355399387,-10.4100688303486,44.2721949485872));
#1125=CARTESIAN_POINT('',(66.902355399387,-8.01006883034847,44.2721949485872));
#1126=CARTESIAN_POINT('',(66.902355399387,-8.01006883034847,39.2721949485872));
#1127=CARTESIAN_POINT('',(69.302355399387,-10.4100688303486,39.2721949485872));
#1128=CARTESIAN_POINT('',(68.3423553993869,-10.4100688303485,39.2721949485872));
#1129=CARTESIAN_POINT('',(67.3823553993869,-10.4100688303485,39.2721949485872));
#1130=CARTESIAN_POINT('',(66.902355399387,-9.93006883034847,39.2721949485872));
#1131=CARTESIAN_POINT('',(66.902355399387,-8.97006883034854,39.2721949485872));
#1132=CARTESIAN_POINT('',(66.902355399387,-8.01006883034847,39.2721949485872));
#1133=CARTESIAN_POINT('',(71.7962632146949,-8.10449491100348,39.2721949485872));
#1134=CARTESIAN_POINT('',(71.7951358431239,-8.13312679724845,39.2721949485872));
#1135=CARTESIAN_POINT('',(71.794008471553,-8.16175868349251,39.2721949485872));
#1136=CARTESIAN_POINT('',(71.7928678337981,-8.19037677092251,39.2721949485872));
#1137=CARTESIAN_POINT('',(71.791701075543,-8.2189676891245,39.2721949485872));
#1138=CARTESIAN_POINT('',(71.790495754338,-8.2475184960914,39.2721949485872));
#1139=CARTESIAN_POINT('',(71.790495754338,-8.2475184960914,44.2721949485872));
#1140=CARTESIAN_POINT('',(71.791701075543,-8.2189676891245,44.2721949485872));
#1141=CARTESIAN_POINT('',(71.7928678337981,-8.19037677092251,44.2721949485872));
#1142=CARTESIAN_POINT('',(71.794008471553,-8.16175868349251,44.2721949485872));
#1143=CARTESIAN_POINT('',(71.7951358431239,-8.13312679724845,44.2721949485872));
#1144=CARTESIAN_POINT('',(71.7962632146949,-8.10449491100348,44.2721949485872));
#1145=CARTESIAN_POINT('',(71.790495754338,-8.2475184960914,44.2721949485872));
#1146=CARTESIAN_POINT('',(71.790495754338,-8.2475184960914,39.2721949485872));
#1147=CARTESIAN_POINT('',(70.402355399387,-7.91006886866558,44.2721949485872));
#1148=CARTESIAN_POINT('',(70.4023553993871,-8.91006886866577,44.2721949485872));
#1149=CARTESIAN_POINT('',(69.402355399387,-8.91006886866569,44.2721949485872));
#1150=CARTESIAN_POINT('',(68.4023553993868,-8.91006886866545,44.2721949485872));
#1151=CARTESIAN_POINT('',(68.402355399387,-7.91006886866558,44.2721949485872));
#1152=CARTESIAN_POINT('',(70.402355399387,-7.91006886866558,39.2721949485872));
#1153=CARTESIAN_POINT('',(70.402355399387,-7.91006886866558,44.2721949485872));
#1154=CARTESIAN_POINT('',(68.402355399387,-7.91006886866558,39.2721949485872));
#1155=CARTESIAN_POINT('',(68.4023553993867,-8.91006886866584,39.2721949485872));
#1156=CARTESIAN_POINT('',(69.402355399387,-8.9100688686658,39.2721949485872));
#1157=CARTESIAN_POINT('',(70.4023553993871,-8.910068868666,39.2721949485872));
#1158=CARTESIAN_POINT('',(70.402355399387,-7.91006886866558,39.2721949485872));
#1159=CARTESIAN_POINT('',(68.402355399387,-7.91006886866558,44.2721949485872));
#1160=CARTESIAN_POINT('',(68.402355399387,-7.91006886866558,39.2721949485872));
#1161=CARTESIAN_POINT('',(69.3981214934259,-10.4100688303486,44.2721949485872));
#1162=CARTESIAN_POINT('',(69.4180933648519,-10.4100688303485,44.2721949485872));
#1163=CARTESIAN_POINT('',(69.438065236278,-10.4100688303485,44.2721949485872));
#1164=CARTESIAN_POINT('',(69.458032615668,-10.4100641579595,44.2721949485872));
#1165=CARTESIAN_POINT('',(69.4779911081909,-10.4100502418985,44.2721949485872));
#1166=CARTESIAN_POINT('',(69.49793641622,-10.4100226119924,44.2721949485872));
#1167=CARTESIAN_POINT('',(69.49793641622,-10.4100226119924,39.2721949485872));
#1168=CARTESIAN_POINT('',(69.4779911081909,-10.4100502418985,39.2721949485872));
#1169=CARTESIAN_POINT('',(69.458032615668,-10.4100641579595,39.2721949485872));
#1170=CARTESIAN_POINT('',(69.438065236278,-10.4100688303485,39.2721949485872));
#1171=CARTESIAN_POINT('',(69.4180933648519,-10.4100688303485,39.2721949485872));
#1172=CARTESIAN_POINT('',(69.3981214934259,-10.4100688303486,39.2721949485872));
#1173=CARTESIAN_POINT('',(69.49793641622,-10.4100226119924,39.2721949485872));
#1174=CARTESIAN_POINT('',(69.49793641622,-10.4100226119924,44.2721949485872));
#1175=CARTESIAN_POINT('',(69.49793641622,-10.4100226119924,44.2721949485872));
#1176=CARTESIAN_POINT('',(71.585630872061,-10.3268029945859,44.2721949485872));
#1177=CARTESIAN_POINT('',(71.790495754338,-8.2475184960914,44.2721949485872));
#1178=CARTESIAN_POINT('',(71.790495754338,-8.2475184960914,39.2721949485872));
#1179=CARTESIAN_POINT('',(71.585630872061,-10.326802994586,39.2721949485873));
#1180=CARTESIAN_POINT('',(69.49793641622,-10.4100226119924,39.2721949485872));
#1181=CARTESIAN_POINT('',(68.402355399387,-7.91006886866558,44.2721949485872));
#1182=CARTESIAN_POINT('',(68.402355399387,-6.91006886866553,44.2721949485872));
#1183=CARTESIAN_POINT('',(69.402355399387,-6.91006886866558,44.2721949485872));
#1184=CARTESIAN_POINT('',(70.402355399387,-6.91006886866553,44.2721949485872));
#1185=CARTESIAN_POINT('',(70.402355399387,-7.91006886866558,44.2721949485872));
#1186=CARTESIAN_POINT('',(70.402355399387,-7.91006886866558,39.2721949485872));
#1187=CARTESIAN_POINT('',(70.4023553993869,-6.91006886866573,39.2721949485872));
#1188=CARTESIAN_POINT('',(69.402355399387,-6.91006886866569,39.2721949485872));
#1189=CARTESIAN_POINT('',(68.4023553993872,-6.91006886866557,39.2721949485872));
#1190=CARTESIAN_POINT('',(68.402355399387,-7.91006886866558,39.2721949485872));
#1191=CARTESIAN_POINT('',(67.002355399387,-3.85443324831647,38.8319406640734));
#1192=CARTESIAN_POINT('',(67.002355399387,-3.85443324831648,36.3221963429763));
#1193=CARTESIAN_POINT('',(67.002355399387,-3.85443324831645,46.7221935541973));
#1194=CARTESIAN_POINT('',(67.002355399387,-3.85443324831647,44.2124492331002));
#1195=CARTESIAN_POINT('',(67.002355399387,-3.85443324831646,44.2124492331002));
#1196=CARTESIAN_POINT('',(67.002355399387,-3.85443332890043,43.7982355839438));
#1197=CARTESIAN_POINT('',(67.002355399387,-3.56154006231169,43.5053422901754));
#1198=CARTESIAN_POINT('',(67.002355399387,-3.26864679572295,43.2124489964071));
#1199=CARTESIAN_POINT('',(67.002355399387,-2.85443314656651,43.2124490385533));
#1200=CARTESIAN_POINT('',(67.002355399387,-1.85443346480349,43.2124490385533));
#1201=CARTESIAN_POINT('',(67.002355399387,-2.85443314656652,43.2124490385533));
#1202=CARTESIAN_POINT('',(67.002355399387,-1.85443346480349,43.2124490385533));
#1203=CARTESIAN_POINT('',(67.002355399387,-0.85443343941658,43.2124488220654));
#1204=CARTESIAN_POINT('',(67.002355399387,-0.854433248316468,44.2124488474523));
#1205=CARTESIAN_POINT('',(67.002355399387,-0.854433248316468,44.5221949485872));
#1206=CARTESIAN_POINT('',(67.002355399387,-0.854433248316468,44.2124488474523));
#1207=CARTESIAN_POINT('',(67.002355399387,-0.35443324831646,45.0221949485873));
#1208=CARTESIAN_POINT('',(67.002355399387,-0.854433248315821,45.0221949485865));
#1209=CARTESIAN_POINT('',(67.002355399387,-0.854433248316461,44.5221949485872));
#1210=CARTESIAN_POINT('',(67.002355399387,0.316213312909554,45.0221949485872));
#1211=CARTESIAN_POINT('',(67.002355399387,-0.354433248316468,45.0221949485873));
#1212=CARTESIAN_POINT('',(67.002355399387,0.816213312909568,44.5221949485872));
#1213=CARTESIAN_POINT('',(67.002355399387,0.816213312909569,45.0221949485872));
#1214=CARTESIAN_POINT('',(67.002355399387,0.316213312909562,45.0221949485872));
#1215=CARTESIAN_POINT('',(67.002355399387,0.816213312909554,38.5221949485872));
#1216=CARTESIAN_POINT('',(67.002355399387,0.816213312909568,44.5221949485872));
#1217=CARTESIAN_POINT('',(67.002355399387,0.316213312909546,38.0221949485872));
#1218=CARTESIAN_POINT('',(67.002355399387,0.816213312909439,38.0221949485873));
#1219=CARTESIAN_POINT('',(67.002355399387,0.816213312909554,38.5221949485872));
#1220=CARTESIAN_POINT('',(67.002355399387,-0.354433248316468,38.0221949485872));
#1221=CARTESIAN_POINT('',(67.002355399387,0.316213312909554,38.0221949485872));
#1222=CARTESIAN_POINT('',(67.002355399387,-0.854433248316468,38.5221949485872));
#1223=CARTESIAN_POINT('',(67.0023553993869,-0.854433248315474,38.0221949485882));
#1224=CARTESIAN_POINT('',(67.002355399387,-0.35443324831647,38.0221949485872));
#1225=CARTESIAN_POINT('',(67.002355399387,-0.854433248316468,38.8319410497223));
#1226=CARTESIAN_POINT('',(67.002355399387,-0.854433248316468,38.5221949485872));
#1227=CARTESIAN_POINT('',(67.002355399387,-0.854433248316474,38.8319410497223));
#1228=CARTESIAN_POINT('',(67.002355399387,-0.854433439418139,39.8319410751077));
#1229=CARTESIAN_POINT('',(67.002355399387,-1.8544334648035,39.8319408586213));
#1230=CARTESIAN_POINT('',(67.002355399387,-2.85443314656652,39.8319408586213));
#1231=CARTESIAN_POINT('',(67.002355399387,-1.85443346480349,39.8319408586213));
#1232=CARTESIAN_POINT('',(67.002355399387,-2.85443314656653,39.8319408586213));
#1233=CARTESIAN_POINT('',(67.002355399387,-3.26864679572315,39.8319409007672));
#1234=CARTESIAN_POINT('',(67.0023553993869,-3.56154006231187,39.5390476069986));
#1235=CARTESIAN_POINT('',(67.002355399387,-3.85443332890059,39.24615431323));
#1236=CARTESIAN_POINT('',(67.002355399387,-3.85443324831648,38.8319406640734));
#1237=CARTESIAN_POINT('',(67.002355399387,-5.41006883034845,44.2721949485872));
#1238=CARTESIAN_POINT('',(67.002355399387,-5.41006883034844,46.7221935541973));
#1239=CARTESIAN_POINT('',(67.002355399387,-5.11006883034845,36.0221963429763));
#1240=CARTESIAN_POINT('',(67.002355399387,-4.15443324831648,36.0221963429763));
#1241=CARTESIAN_POINT('',(67.002355399387,-5.41006883034846,36.3221963429763));
#1242=CARTESIAN_POINT('',(67.002355399387,-5.41006883034845,36.2021963429763));
#1243=CARTESIAN_POINT('',(67.002355399387,-5.41006883034845,36.0821963429763));
#1244=CARTESIAN_POINT('',(67.002355399387,-5.35006883034846,36.0221963429763));
#1245=CARTESIAN_POINT('',(67.002355399387,-5.23006883034846,36.0221963429763));
#1246=CARTESIAN_POINT('',(67.002355399387,-5.11006883034845,36.0221963429763));
#1247=CARTESIAN_POINT('',(67.002355399387,-4.15443324831647,47.0221935541973));
#1248=CARTESIAN_POINT('',(67.002355399387,-5.11006883034844,47.0221935541973));
#1249=CARTESIAN_POINT('',(67.002355399387,-5.11006883034844,47.0221935541973));
#1250=CARTESIAN_POINT('',(67.002355399387,-5.23006883034844,47.0221935541973));
#1251=CARTESIAN_POINT('',(67.002355399387,-5.35006883034845,47.0221935541973));
#1252=CARTESIAN_POINT('',(67.002355399387,-5.41006883034844,46.9621935541973));
#1253=CARTESIAN_POINT('',(67.002355399387,-5.41006883034844,46.8421935541973));
#1254=CARTESIAN_POINT('',(67.002355399387,-5.41006883034844,46.7221935541973));
#1255=CARTESIAN_POINT('',(67.002355399387,-3.85443324831648,36.3221963429763));
#1256=CARTESIAN_POINT('',(67.002355399387,-3.85443324831648,36.2021963429763));
#1257=CARTESIAN_POINT('',(67.002355399387,-3.85443324831648,36.0821963429763));
#1258=CARTESIAN_POINT('',(67.002355399387,-3.91443324831648,36.0221963429763));
#1259=CARTESIAN_POINT('',(67.002355399387,-4.03443324831647,36.0221963429763));
#1260=CARTESIAN_POINT('',(67.002355399387,-4.15443324831648,36.0221963429763));
#1261=CARTESIAN_POINT('',(67.002355399387,-4.15443324831647,47.0221935541973));
#1262=CARTESIAN_POINT('',(67.002355399387,-4.03443324831646,47.0221935541973));
#1263=CARTESIAN_POINT('',(67.002355399387,-3.91443324831647,47.0221935541973));
#1264=CARTESIAN_POINT('',(67.002355399387,-3.85443324831645,46.9621935541973));
#1265=CARTESIAN_POINT('',(67.002355399387,-3.85443324831645,46.8421935541973));
#1266=CARTESIAN_POINT('',(67.002355399387,-3.85443324831645,46.7221935541973));
#1267=CARTESIAN_POINT('',(67.002355399387,-3.85443324831647,38.8319406640734));
#1268=CARTESIAN_POINT('',(71.802355399387,-3.85443324831647,38.8319406640734));
#1269=CARTESIAN_POINT('',(67.002355399387,-5.41006883034856,39.2721949485872));
#1270=CARTESIAN_POINT('',(71.802355399387,-5.41006883034845,39.2721949485872));
#1271=CARTESIAN_POINT('',(67.002355399387,-2.85443314656652,43.2124490385533));
#1272=CARTESIAN_POINT('',(71.802355399387,-2.85443314656652,43.2124490385533));
#1273=CARTESIAN_POINT('',(67.002355399387,-0.854433248316468,44.2124488474523));
#1274=CARTESIAN_POINT('',(71.802355399387,-0.854433248316468,44.2124488474523));
#1275=CARTESIAN_POINT('',(67.002355399387,-1.85443346480349,39.8319408586213));
#1276=CARTESIAN_POINT('',(71.802355399387,-1.85443346480349,39.8319408586213));
#1277=CARTESIAN_POINT('',(67.002355399387,-5.11006883034845,36.0221963429763));
#1278=CARTESIAN_POINT('',(71.802355399387,-5.11006883034845,36.0221963429763));
#1279=CARTESIAN_POINT('',(67.002355399387,-5.41006883034846,36.3221963429763));
#1280=CARTESIAN_POINT('',(71.802355399387,-5.41006883034846,36.3221963429763));
#1281=CARTESIAN_POINT('',(67.002355399387,-3.85443324831648,36.3221963429763));
#1282=CARTESIAN_POINT('',(71.802355399387,-3.85443324831648,36.3221963429763));
#1283=CARTESIAN_POINT('',(67.002355399387,-4.15443324831648,36.0221963429763));
#1284=CARTESIAN_POINT('',(71.802355399387,-4.15443324831648,36.0221963429763));
#1285=CARTESIAN_POINT('',(67.002355399387,-5.41006883034856,39.2721949485872));
#1286=CARTESIAN_POINT('',(67.002355399387,-5.41006883034845,44.2721949485872));
#1287=CARTESIAN_POINT('',(71.802355399387,-3.85443324831648,36.3221963429763));
#1288=CARTESIAN_POINT('',(71.802355399387,-3.85443324831647,38.8319406640734));
#1289=CARTESIAN_POINT('',(71.802355399387,-3.85443324831647,44.2124492331002));
#1290=CARTESIAN_POINT('',(71.802355399387,-3.85443324831645,46.7221935541973));
#1291=CARTESIAN_POINT('',(71.802355399387,-2.85443314656652,43.2124490385532));
#1292=CARTESIAN_POINT('',(71.802355399387,-3.26864679572296,43.2124489964071));
#1293=CARTESIAN_POINT('',(71.802355399387,-3.5615400623117,43.5053422901754));
#1294=CARTESIAN_POINT('',(71.802355399387,-3.85443332890043,43.7982355839438));
#1295=CARTESIAN_POINT('',(71.802355399387,-3.85443324831646,44.2124492331002));
#1296=CARTESIAN_POINT('',(71.802355399387,-2.85443314656652,43.2124490385533));
#1297=CARTESIAN_POINT('',(71.802355399387,-1.85443346480349,43.2124490385533));
#1298=CARTESIAN_POINT('',(71.802355399387,-0.854433248316473,44.2124488474523));
#1299=CARTESIAN_POINT('',(71.802355399387,-0.85443343941659,43.2124488220654));
#1300=CARTESIAN_POINT('',(71.802355399387,-1.8544334648035,43.2124490385533));
#1301=CARTESIAN_POINT('',(71.802355399387,-0.854433248316468,44.2124488474523));
#1302=CARTESIAN_POINT('',(71.802355399387,-0.854433248316468,44.5221949485872));
#1303=CARTESIAN_POINT('',(71.802355399387,-0.854433248316457,44.5221949485872));
#1304=CARTESIAN_POINT('',(71.802355399387,-0.854433248316901,45.0221949485876));
#1305=CARTESIAN_POINT('',(71.802355399387,-0.354433248316457,45.0221949485873));
#1306=CARTESIAN_POINT('',(71.802355399387,-0.354433248316468,45.0221949485873));
#1307=CARTESIAN_POINT('',(71.802355399387,0.316213312909554,45.0221949485872));
#1308=CARTESIAN_POINT('',(71.802355399387,0.316213312909554,45.0221949485872));
#1309=CARTESIAN_POINT('',(71.802355399387,0.816213312909561,45.0221949485872));
#1310=CARTESIAN_POINT('',(71.802355399387,0.816213312909561,44.5221949485872));
#1311=CARTESIAN_POINT('',(71.802355399387,0.816213312909568,44.5221949485872));
#1312=CARTESIAN_POINT('',(71.802355399387,0.816213312909554,38.5221949485872));
#1313=CARTESIAN_POINT('',(71.802355399387,0.816213312909554,38.5221949485872));
#1314=CARTESIAN_POINT('',(71.802355399387,0.816213312909439,38.0221949485873));
#1315=CARTESIAN_POINT('',(71.802355399387,0.316213312909546,38.0221949485872));
#1316=CARTESIAN_POINT('',(71.802355399387,0.316213312909554,38.0221949485872));
#1317=CARTESIAN_POINT('',(71.802355399387,-0.354433248316468,38.0221949485872));
#1318=CARTESIAN_POINT('',(71.802355399387,-0.354433248316466,38.0221949485872));
#1319=CARTESIAN_POINT('',(71.8023553993869,-0.854433248317677,38.022194948586));
#1320=CARTESIAN_POINT('',(71.802355399387,-0.854433248316464,38.5221949485872));
#1321=CARTESIAN_POINT('',(71.802355399387,-0.854433248316468,38.5221949485872));
#1322=CARTESIAN_POINT('',(71.802355399387,-0.854433248316468,38.8319410497223));
#1323=CARTESIAN_POINT('',(71.802355399387,-1.8544334648035,39.8319408586213));
#1324=CARTESIAN_POINT('',(71.802355399387,-0.85443343941814,39.8319410751077));
#1325=CARTESIAN_POINT('',(71.802355399387,-0.854433248316477,38.8319410497223));
#1326=CARTESIAN_POINT('',(71.802355399387,-1.85443346480349,39.8319408586213));
#1327=CARTESIAN_POINT('',(71.802355399387,-2.85443314656652,39.8319408586213));
#1328=CARTESIAN_POINT('',(71.802355399387,-3.85443324831647,38.8319406640734));
#1329=CARTESIAN_POINT('',(71.802355399387,-3.85443332890104,39.2461543132302));
#1330=CARTESIAN_POINT('',(71.8023553993869,-3.56154006231219,39.5390476069989));
#1331=CARTESIAN_POINT('',(71.802355399387,-3.26864679572333,39.8319409007677));
#1332=CARTESIAN_POINT('',(71.802355399387,-2.85443314656652,39.8319408586213));
#1333=CARTESIAN_POINT('',(71.802355399387,-5.41006883034845,44.2721949485872));
#1334=CARTESIAN_POINT('',(71.802355399387,-5.41006883034844,46.7221935541973));
#1335=CARTESIAN_POINT('',(71.802355399387,-4.15443324831648,36.0221963429763));
#1336=CARTESIAN_POINT('',(71.802355399387,-5.11006883034845,36.0221963429763));
#1337=CARTESIAN_POINT('',(71.802355399387,-5.11006883034845,36.0221963429763));
#1338=CARTESIAN_POINT('',(71.802355399387,-5.23006883034846,36.0221963429763));
#1339=CARTESIAN_POINT('',(71.802355399387,-5.35006883034846,36.0221963429763));
#1340=CARTESIAN_POINT('',(71.802355399387,-5.41006883034846,36.0821963429763));
#1341=CARTESIAN_POINT('',(71.802355399387,-5.41006883034846,36.2021963429763));
#1342=CARTESIAN_POINT('',(71.802355399387,-5.41006883034846,36.3221963429763));
#1343=CARTESIAN_POINT('',(71.802355399387,-5.11006883034844,47.0221935541973));
#1344=CARTESIAN_POINT('',(71.802355399387,-4.15443324831647,47.0221935541973));
#1345=CARTESIAN_POINT('',(71.802355399387,-5.41006883034844,46.7221935541973));
#1346=CARTESIAN_POINT('',(71.802355399387,-5.41006883034844,46.8421935541973));
#1347=CARTESIAN_POINT('',(71.802355399387,-5.41006883034844,46.9621935541973));
#1348=CARTESIAN_POINT('',(71.802355399387,-5.35006883034845,47.0221935541973));
#1349=CARTESIAN_POINT('',(71.802355399387,-5.23006883034844,47.0221935541973));
#1350=CARTESIAN_POINT('',(71.802355399387,-5.11006883034844,47.0221935541973));
#1351=CARTESIAN_POINT('',(71.802355399387,-4.15443324831648,36.0221963429763));
#1352=CARTESIAN_POINT('',(71.802355399387,-4.03443324831647,36.0221963429763));
#1353=CARTESIAN_POINT('',(71.802355399387,-3.91443324831647,36.0221963429763));
#1354=CARTESIAN_POINT('',(71.802355399387,-3.85443324831648,36.0821963429763));
#1355=CARTESIAN_POINT('',(71.802355399387,-3.85443324831648,36.2021963429763));
#1356=CARTESIAN_POINT('',(71.802355399387,-3.85443324831648,36.3221963429763));
#1357=CARTESIAN_POINT('',(71.802355399387,-3.85443324831645,46.7221935541973));
#1358=CARTESIAN_POINT('',(71.802355399387,-3.85443324831645,46.8421935541973));
#1359=CARTESIAN_POINT('',(71.802355399387,-3.85443324831645,46.9621935541973));
#1360=CARTESIAN_POINT('',(71.802355399387,-3.91443324831646,47.0221935541973));
#1361=CARTESIAN_POINT('',(71.802355399387,-4.03443324831646,47.0221935541973));
#1362=CARTESIAN_POINT('',(71.802355399387,-4.15443324831647,47.0221935541973));
#1363=CARTESIAN_POINT('',(71.802355399387,-3.85443324831647,44.2124492331002));
#1364=CARTESIAN_POINT('',(67.002355399387,-3.85443324831647,44.2124492331002));
#1365=CARTESIAN_POINT('',(71.802355399387,-1.85443346480349,43.2124490385533));
#1366=CARTESIAN_POINT('',(67.002355399387,-1.85443346480349,43.2124490385533));
#1367=CARTESIAN_POINT('',(71.802355399387,-0.854433248316468,44.5221949485872));
#1368=CARTESIAN_POINT('',(67.002355399387,-0.854433248316468,44.5221949485872));
#1369=CARTESIAN_POINT('',(71.802355399387,-0.354433248316468,45.0221949485873));
#1370=CARTESIAN_POINT('',(67.002355399387,-0.354433248316468,45.0221949485873));
#1371=CARTESIAN_POINT('',(71.802355399387,0.316213312909554,45.0221949485872));
#1372=CARTESIAN_POINT('',(67.002355399387,0.316213312909554,45.0221949485872));
#1373=CARTESIAN_POINT('',(71.802355399387,0.816213312909568,44.5221949485872));
#1374=CARTESIAN_POINT('',(67.002355399387,0.816213312909568,44.5221949485872));
#1375=CARTESIAN_POINT('',(71.802355399387,0.816213312909554,38.5221949485872));
#1376=CARTESIAN_POINT('',(67.002355399387,0.816213312909554,38.5221949485872));
#1377=CARTESIAN_POINT('',(71.802355399387,0.316213312909554,38.0221949485872));
#1378=CARTESIAN_POINT('',(67.002355399387,0.316213312909554,38.0221949485872));
#1379=CARTESIAN_POINT('',(71.802355399387,-0.354433248316468,38.0221949485872));
#1380=CARTESIAN_POINT('',(67.002355399387,-0.354433248316468,38.0221949485872));
#1381=CARTESIAN_POINT('',(71.802355399387,-0.854433248316468,38.5221949485872));
#1382=CARTESIAN_POINT('',(67.002355399387,-0.854433248316468,38.5221949485872));
#1383=CARTESIAN_POINT('',(71.802355399387,-0.854433248316468,38.8319410497223));
#1384=CARTESIAN_POINT('',(67.002355399387,-0.854433248316468,38.8319410497223));
#1385=CARTESIAN_POINT('',(71.802355399387,-2.85443314656652,39.8319408586213));
#1386=CARTESIAN_POINT('',(67.002355399387,-2.85443314656652,39.8319408586213));
#1387=CARTESIAN_POINT('',(71.802355399387,-5.41006883034845,44.2721949485872));
#1388=CARTESIAN_POINT('',(67.002355399387,-5.41006883034845,44.2721949485872));
#1389=CARTESIAN_POINT('',(71.802355399387,-5.11006883034844,47.0221935541973));
#1390=CARTESIAN_POINT('',(67.002355399387,-5.11006883034844,47.0221935541973));
#1391=CARTESIAN_POINT('',(71.802355399387,-5.41006883034844,46.7221935541973));
#1392=CARTESIAN_POINT('',(67.002355399387,-5.41006883034844,46.7221935541973));
#1393=CARTESIAN_POINT('',(71.802355399387,-3.85443324831645,46.7221935541973));
#1394=CARTESIAN_POINT('',(67.002355399387,-3.85443324831645,46.7221935541973));
#1395=CARTESIAN_POINT('',(71.802355399387,-4.15443324831647,47.0221935541973));
#1396=CARTESIAN_POINT('',(67.002355399387,-4.15443324831647,47.0221935541973));
#1397=CARTESIAN_POINT('',(71.802355399387,-5.41006883034845,39.2721949485872));
#1398=CARTESIAN_POINT('',(71.802355399387,-5.41006883034845,44.2721949485872));
#1399=CARTESIAN_POINT('',(67.002355399387,-5.41006883034845,44.2721949485872));
#1400=CARTESIAN_POINT('',(66.9559178006475,-5.47696117466101,44.2721949485872));
#1401=CARTESIAN_POINT('',(67.002355399387,-5.41006883034846,36.3221963429763));
#1402=CARTESIAN_POINT('',(67.002355399387,-5.41006883034848,37.0180515937815));
#1403=CARTESIAN_POINT('',(67.002355399387,-5.41006883034856,39.2721949485872));
#1404=CARTESIAN_POINT('',(71.802355399387,-5.41006883034845,39.2721949485872));
#1405=CARTESIAN_POINT('',(71.8397058390042,-5.46387132089316,39.2721949485872));
#1406=CARTESIAN_POINT('',(71.802355399387,-5.41006883034846,36.3221963429763));
#1407=CARTESIAN_POINT('',(71.802355399387,-5.41006883034846,37.0180515937815));
#1408=CARTESIAN_POINT('',(71.802355399387,-5.41006883034845,39.2721949485872));
#1409=CARTESIAN_POINT('',(66.9559178006475,-5.47696117466103,39.2721949485872));
#1410=CARTESIAN_POINT('',(67.002355399387,-5.41006883034856,39.2721949485872));
#1411=CARTESIAN_POINT('',(66.902355399387,-5.64804159413532,44.2721949485872));
#1412=CARTESIAN_POINT('',(66.902355399387,-8.01006883034847,44.2721949485872));
#1413=CARTESIAN_POINT('',(66.902355399387,-5.64804159413532,44.2721949485872));
#1414=CARTESIAN_POINT('',(66.902355399387,-5.64804159413534,39.2721949485872));
#1415=CARTESIAN_POINT('',(66.9559178006475,-5.47696117466101,44.2721949485872));
#1416=CARTESIAN_POINT('',(66.9559178006475,-5.47696117466103,39.2721949485872));
#1417=CARTESIAN_POINT('',(66.902355399387,-5.64804159413534,39.2721949485872));
#1418=CARTESIAN_POINT('',(66.902355399387,-5.61047161288903,39.2721949485872));
#1419=CARTESIAN_POINT('',(66.902355399387,-5.57290163164274,39.2721949485872));
#1420=CARTESIAN_POINT('',(66.9130678796391,-5.53868554774787,39.2721949485872));
#1421=CARTESIAN_POINT('',(66.9344928401433,-5.50782336120446,39.2721949485872));
#1422=CARTESIAN_POINT('',(66.9559178006475,-5.47696117466103,39.2721949485872));
#1423=CARTESIAN_POINT('',(66.9559178006475,-5.47696117466101,44.2721949485872));
#1424=CARTESIAN_POINT('',(66.9344928401433,-5.50782336120443,44.2721949485872));
#1425=CARTESIAN_POINT('',(66.9130678796391,-5.53868554774786,44.2721949485872));
#1426=CARTESIAN_POINT('',(66.902355399387,-5.57290163164272,44.2721949485872));
#1427=CARTESIAN_POINT('',(66.902355399387,-5.61047161288901,44.2721949485872));
#1428=CARTESIAN_POINT('',(66.902355399387,-5.64804159413532,44.2721949485872));
#1429=CARTESIAN_POINT('',(71.8397058390042,-5.46387132089316,44.2721949485872));
#1430=CARTESIAN_POINT('',(71.802355399387,-5.41006883034845,44.2721949485872));
#1431=CARTESIAN_POINT('',(71.8930359554235,-5.64675500044932,44.2721949485872));
#1432=CARTESIAN_POINT('',(71.7962632146949,-8.10449491100348,44.2721949485872));
#1433=CARTESIAN_POINT('',(71.8930359554235,-5.64675500044932,39.2721949485872));
#1434=CARTESIAN_POINT('',(71.8930359554235,-5.64675500044932,44.2721949485872));
#1435=CARTESIAN_POINT('',(71.8397058390042,-5.46387132089316,39.2721949485872));
#1436=CARTESIAN_POINT('',(71.8397058390042,-5.46387132089316,44.2721949485872));
#1437=CARTESIAN_POINT('',(71.8397058390042,-5.46387132089316,39.2721949485872));
#1438=CARTESIAN_POINT('',(71.8626187003898,-5.4968767960811,39.2721949485872));
#1439=CARTESIAN_POINT('',(71.8855315617753,-5.52988227126905,39.2721949485872));
#1440=CARTESIAN_POINT('',(71.8961975850592,-5.56645900718027,39.2721949485872));
#1441=CARTESIAN_POINT('',(71.8946167702413,-5.6066070038148,39.2721949485872));
#1442=CARTESIAN_POINT('',(71.8930359554235,-5.64675500044932,39.2721949485872));
#1443=CARTESIAN_POINT('',(71.8930359554235,-5.64675500044932,44.2721949485872));
#1444=CARTESIAN_POINT('',(71.8946167702413,-5.60660700381479,44.2721949485872));
#1445=CARTESIAN_POINT('',(71.8961975850592,-5.56645900718027,44.2721949485872));
#1446=CARTESIAN_POINT('',(71.8855315617753,-5.52988227126903,44.2721949485872));
#1447=CARTESIAN_POINT('',(71.8626187003898,-5.4968767960811,44.2721949485872));
#1448=CARTESIAN_POINT('',(71.8397058390042,-5.46387132089316,44.2721949485872));
#1449=CARTESIAN_POINT('',(0.,0.,0.));
ENDSEC;
END-ISO-10303-21;
