  0
SECTION
  2
HEADER
  9
$ACADVER
  1
AC1009
  9
$DWGCODEPAGE
  3
ansi_1252
  9
$INSBASE
 10
0.0
 20
0.0
 30
0.0
  9
$EXTMIN
 10
1.000000000000000E+20
 20
1.000000000000000E+20
 30
1.000000000000000E+20
  9
$EXTMAX
 10
-1.000000000000000E+20
 20
-1.000000000000000E+20
 30
-1.000000000000000E+20
  9
$LIMMIN
 10
0.0
 20
0.0
  9
$LIMMAX
 10
12.0
 20
9.0
  9
$ORTHOMODE
 70
     0
  9
$REGENMODE
 70
     1
  9
$FILLMODE
 70
     1
  9
$QTEXTMODE
 70
     0
  9
$MIRRTEXT
 70
     1
  9
$DRAGMODE
 70
     2
  9
$LTSCALE
 40
1.0
  9
$OSMODE
 70
    37
  9
$ATTMODE
 70
     1
  9
$TEXTSIZE
 40
0.2
  9
$TRACEWID
 40
0.05
  9
$TEXTSTYLE
  7
STANDARD
  9
$CLAYER
  8
LAYER_01
  9
$CELTYPE
  6
BYLAYER
  9
$CECOLOR
 62
   256
  9
$DIMSCALE
 40
1.0
  9
$DIMASZ
 40
0.18
  9
$DIMEXO
 40
0.0625
  9
$DIMDLI
 40
0.38
  9
$DIMRND
 40
0.0
  9
$DIMDLE
 40
0.0
  9
$DIMEXE
 40
0.18
  9
$DIMTP
 40
0.0
  9
$DIMTM
 40
0.0
  9
$DIMTXT
 40
0.18
  9
$DIMCEN
 40
0.09
  9
$DIMTSZ
 40
0.0
  9
$DIMTOL
 70
     0
  9
$DIMLIM
 70
     0
  9
$DIMTIH
 70
     1
  9
$DIMTOH
 70
     1
  9
$DIMSE1
 70
     0
  9
$DIMSE2
 70
     0
  9
$DIMTAD
 70
     0
  9
$DIMZIN
 70
     0
  9
$DIMBLK
  1

  9
$DIMASO
 70
     1
  9
$DIMSHO
 70
     1
  9
$DIMPOST
  1

  9
$DIMAPOST
  1

  9
$DIMALT
 70
     0
  9
$DIMALTD
 70
     2
  9
$DIMALTF
 40
25.4
  9
$DIMLFAC
 40
1.0
  9
$DIMTOFL
 70
     0
  9
$DIMTVP
 40
0.0
  9
$DIMTIX
 70
     0
  9
$DIMSOXD
 70
     0
  9
$DIMSAH
 70
     0
  9
$DIMBLK1
  1

  9
$DIMBLK2
  1

  9
$DIMSTYLE
  2
STANDARD_ACAD
  9
$DIMCLRD
 70
     0
  9
$DIMCLRE
 70
     0
  9
$DIMCLRT
 70
     0
  9
$DIMTFAC
 40
1.0
  9
$DIMGAP
 40
0.09
  9
$LUNITS
 70
     2
  9
$LUPREC
 70
     3
  9
$SKETCHINC
 40
0.1
  9
$FILLETRAD
 40
0.5
  9
$AUNITS
 70
     0
  9
$AUPREC
 70
     0
  9
$MENU
  1
.
  9
$ELEVATION
 40
0.0
  9
$PELEVATION
 40
0.0
  9
$THICKNESS
 40
0.0
  9
$LIMCHECK
 70
     0
  9
$CHAMFERA
 40
0.0
  9
$CHAMFERB
 40
0.0
  9
$SKPOLY
 70
     0
  9
$TDCREATE
 40
2461116.018762164
  9
$TDUPDATE
 40
2461116.018798866
  9
$TDINDWG
 40
0.0000000116
  9
$TDUSRTIMER
 40
0.0000000116
  9
$USRTIMER
 70
     1
  9
$ANGBASE
 50
0.0
  9
$ANGDIR
 70
     0
  9
$PDMODE
 70
     0
  9
$PDSIZE
 40
0.0
  9
$PLINEWID
 40
0.0
  9
$COORDS
 70
     1
  9
$SPLFRAME
 70
     0
  9
$SPLINETYPE
 70
     6
  9
$SPLINESEGS
 70
     8
  9
$ATTDIA
 70
     0
  9
$ATTREQ
 70
     1
  9
$HANDLING
 70
     1
  9
$HANDSEED
  5
B3
  9
$SURFTAB1
 70
     6
  9
$SURFTAB2
 70
     6
  9
$SURFTYPE
 70
     6
  9
$SURFU
 70
     6
  9
$SURFV
 70
     6
  9
$UCSNAME
  2

  9
$UCSORG
 10
0.0
 20
0.0
 30
0.0
  9
$UCSXDIR
 10
1.0
 20
0.0
 30
0.0
  9
$UCSYDIR
 10
0.0
 20
1.0
 30
0.0
  9
$PUCSNAME
  2

  9
$PUCSORG
 10
0.0
 20
0.0
 30
0.0
  9
$PUCSXDIR
 10
1.0
 20
0.0
 30
0.0
  9
$PUCSYDIR
 10
0.0
 20
1.0
 30
0.0
  9
$USERI1
 70
     0
  9
$USERI2
 70
     0
  9
$USERI3
 70
     0
  9
$USERI4
 70
     0
  9
$USERI5
 70
     0
  9
$USERR1
 40
0.0
  9
$USERR2
 40
0.0
  9
$USERR3
 40
0.0
  9
$USERR4
 40
0.0
  9
$USERR5
 40
0.0
  9
$WORLDVIEW
 70
     1
  9
$SHADEDGE
 70
     3
  9
$SHADEDIF
 70
    70
  9
$TILEMODE
 70
     1
  9
$MAXACTVP
 70
    64
  9
$PLIMCHECK
 70
     0
  9
$PEXTMIN
 10
1.000000000000000E+20
 20
1.000000000000000E+20
 30
1.000000000000000E+20
  9
$PEXTMAX
 10
-1.000000000000000E+20
 20
-1.000000000000000E+20
 30
-1.000000000000000E+20
  9
$PLIMMIN
 10
0.0
 20
0.0
  9
$PLIMMAX
 10
12.0
 20
9.0
  9
$UNITMODE
 70
     0
  9
$VISRETAIN
 70
     1
  9
$PLINEGEN
 70
     0
  9
$PSLTSCALE
 70
     1
  0
ENDSEC
  0
SECTION
  2
TABLES
  0
TABLE
  2
VPORT
 70
     1
  0
VPORT
  2
*ACTIVE
 70
     0
 10
0.0
 20
0.0
 11
1.0
 21
1.0
 12
10.42990654205607
 22
4.5
 13
0.0
 23
0.0
 14
0.5
 24
0.5
 15
0.5
 25
0.5
 16
0.0
 26
0.0
 36
1.0
 17
0.0
 27
0.0
 37
0.0
 40
9.0
 41
1.972972972850329
 42
50.0
 43
0.0
 44
0.0
 50
0.0
 51
0.0
 71
     0
 72
   100
 73
     1
 74
     3
 75
     0
 76
     0
 77
     0
 78
     0
  0
ENDTAB
  0
TABLE
  2
LTYPE
 70
     1
  0
LTYPE
  2
CONTINUOUS
 70
     0
  3
Solid line
 72
    65
 73
     0
 40
0.0
  0
ENDTAB
  0
TABLE
  2
LAYER
 70
     2
  0
LAYER
  2
0
 70
     0
 62
     7
  6
CONTINUOUS
  0
LAYER
  2
LAYER_01
 70
     0
 62
     7
  6
CONTINUOUS
  0
ENDTAB
  0
TABLE
  2
STYLE
 70
     1
  0
STYLE
  2
STANDARD
 70
     0
 40
0.0
 41
1.0
 50
0.0
 71
     0
 42
0.2
  3
txt
  4

  0
ENDTAB
  0
TABLE
  2
VIEW
 70
     0
  0
ENDTAB
  0
TABLE
  2
UCS
 70
     0
  0
ENDTAB
  0
TABLE
  2
APPID
 70
     2
  0
APPID
  2
ACAD
 70
     0
  0
APPID
  2
RHINO
 70
     0
  0
ENDTAB
  0
TABLE
  2
DIMSTYLE
 70
     1
  0
DIMSTYLE
  2
STANDARD_ACAD
 70
     0
  3

  4

  5

  6

  7

 40
1.0
 41
0.18
 42
0.0625
 43
0.38
 44
0.18
 45
0.0
 46
0.0
 47
0.0
 48
0.0
140
0.18
141
0.09
142
0.0
143
25.4
144
1.0
145
0.0
146
1.0
147
0.09
 71
     0
 72
     0
 73
     1
 74
     1
 75
     0
 76
     0
 77
     0
 78
     0
170
     0
171
     2
172
     0
173
     0
174
     0
175
     0
176
     0
177
     0
178
     0
  0
ENDTAB
  0
ENDSEC
  0
SECTION
  2
BLOCKS
  0
BLOCK
  8
0
  2
$MODEL_SPACE
 70
     0
 10
0.0
 20
0.0
 30
0.0
  3
$MODEL_SPACE
  1

  0
ENDBLK
  5
21
  8
0
  0
BLOCK
 67
     1
  8
0
  2
$PAPER_SPACE
 70
     0
 10
0.0
 20
0.0
 30
0.0
  3
$PAPER_SPACE
  1

  0
ENDBLK
  5
1D
 67
     1
  8
0
  0
ENDSEC
  0
SECTION
  2
ENTITIES
  0
CIRCLE
  5
70
  8
LAYER_01
 10
48.86297113694218
 20
-136.0
 30
-2.357654637071434
 40
3.050000000000026
210
0.0
220
0.0
230
-1.0
  0
CIRCLE
  5
71
  8
LAYER_01
 10
48.86297113694218
 20
-184.0
 30
-2.357654637071434
 40
3.050000000000026
210
0.0
220
0.0
230
-1.0
  0
CIRCLE
  5
72
  8
LAYER_01
 10
-65.13702886305785
 20
-136.0
 30
-2.357654637071434
 40
3.049999999999997
210
0.0
220
0.0
230
-1.0
  0
CIRCLE
  5
73
  8
LAYER_01
 10
-65.13702886305785
 20
-184.0
 30
-2.357654637071434
 40
3.049999999999997
210
0.0
220
0.0
230
-1.0
  0
LINE
  5
74
  8
LAYER_01
 10
71.27405772611577
 20
-184.0
 30
2.357654637071434
 11
71.2740577261157
 21
-136.0000000000001
 31
2.357654637071434
  0
ARC
  5
75
  8
LAYER_01
 10
65.2740577261157
 20
-136.0
 30
2.357654637071434
 40
6.0
 50
359.9999999999998
 51
89.99999999999947
  0
LINE
  5
76
  8
LAYER_01
 10
65.27405772611576
 20
-130.0
 30
2.357654637071434
 11
-48.99999999999999
 21
-130.0
 31
2.357654637071434
  0
ARC
  5
77
  8
LAYER_01
 10
-49.0
 20
-136.0
 30
2.357654637071434
 40
6.0
 50
89.99999999999987
 51
179.9999999999997
  0
LINE
  5
78
  8
LAYER_01
 10
-54.99999999999999
 20
-136.0
 30
2.357654637071434
 11
-55.0
 21
-184.0
 31
2.357654637071434
  0
ARC
  5
79
  8
LAYER_01
 10
-48.9999999999999
 20
-183.9999999999999
 30
2.357654637071434
 40
6.000000000000099
 50
180.0000000000008
 51
269.9999999999992
  0
LINE
  5
7A
  8
LAYER_01
 10
-48.99999999999999
 20
-190.0
 30
2.357654637071434
 11
65.27405772611574
 21
-190.0
 31
2.357654637071434
  0
ARC
  5
7B
  8
LAYER_01
 10
65.2740577261157
 20
-183.9999999999999
 30
2.357654637071435
 40
6.000000000000085
 50
270.0000000000004
 51
359.9999999999989
  0
LINE
  5
7C
  8
LAYER_01
 10
-39.69168204184179
 20
-176.5202499023458
 30
2.357654637071434
 11
-36.03426023202272
 21
-176.5202499023344
 31
2.357654637071435
  0
ARC
  5
7D
  8
LAYER_01
 10
-33.77594227387772
 20
-174.4702499023539
 30
2.357654637071434
 40
3.050000000000012
 50
222.2317616380259
 51
47.76823836147715
  0
LINE
  5
7E
  8
LAYER_01
 10
-31.7259422738777
 20
-172.2119319442267
 30
2.357654637071434
 11
-31.72594227387769
 21
-147.3083179581272
 31
2.357654637071434
  0
ARC
  5
7F
  8
LAYER_01
 10
-33.77594227388193
 20
-145.0499999999954
 30
2.357654637071434
 40
3.050000000006274
 50
312.2317616385225
 51
137.7682383619113
  0
LINE
  5
80
  8
LAYER_01
 10
-36.03426023202933
 20
-143.0000000000082
 30
2.357654637071434
 11
-39.69168204184837
 21
-143.0000000000196
 31
2.357654637071434
  0
ARC
  5
81
  8
LAYER_01
 10
-41.94999999999339
 20
-145.05
 30
2.357654637071434
 40
3.050000000000014
 50
42.23176163802512
 51
227.7682383618937
  0
LINE
  5
82
  8
LAYER_01
 10
-43.99999999997701
 20
-147.3083179581421
 30
2.357654637071434
 11
-43.99999999999341
 21
-172.2119319442267
 31
2.357654637071433
  0
ARC
  5
83
  8
LAYER_01
 10
-41.94999999998918
 20
-174.4702499023586
 30
2.357654637071434
 40
3.050000000006265
 50
132.2317616385222
 51
317.7682383619106
  0
LINE
  5
84
  8
LAYER_01
 10
-21.69168204184179
 20
-176.5202499023458
 30
2.357654637071434
 11
-18.03426023202272
 21
-176.5202499023344
 31
2.357654637071435
  0
ARC
  5
85
  8
LAYER_01
 10
-15.77594227387773
 20
-174.4702499023539
 30
2.357654637071434
 40
3.050000000000025
 50
222.2317616380264
 51
47.76823836147715
  0
LINE
  5
86
  8
LAYER_01
 10
-13.7259422738777
 20
-172.2119319442267
 30
2.357654637071434
 11
-13.72594227387771
 21
-147.3083179581272
 31
2.357654637071434
  0
ARC
  5
87
  8
LAYER_01
 10
-15.77594227388193
 20
-145.0499999999953
 30
2.357654637071434
 40
3.050000000006286
 50
312.2317616385219
 51
137.7682383619116
  0
LINE
  5
88
  8
LAYER_01
 10
-18.03426023202934
 20
-143.0000000000082
 30
2.357654637071434
 11
-21.69168204184837
 21
-143.0000000000196
 31
2.357654637071434
  0
ARC
  5
89
  8
LAYER_01
 10
-23.94999999999339
 20
-145.05
 30
2.357654637071434
 40
3.049999999999995
 50
42.23176163802473
 51
227.7682383618942
  0
LINE
  5
8A
  8
LAYER_01
 10
-25.99999999997699
 20
-147.3083179581421
 30
2.357654637071434
 11
-25.99999999999341
 21
-172.2119319442267
 31
2.357654637071433
  0
ARC
  5
8B
  8
LAYER_01
 10
-23.94999999998916
 20
-174.4702499023586
 30
2.357654637071434
 40
3.050000000006298
 50
132.2317616385222
 51
317.768238361911
  0
ARC
  5
8C
  8
LAYER_01
 10
-12.05
 20
-174.4702499023539
 30
-2.357654637071434
 40
3.050000000000015
 50
222.2317616380258
 51
47.76823836147766
210
0.0
220
0.0
230
-1.0
  0
LINE
  5
8D
  8
LAYER_01
 10
10.0
 20
-172.2119319442267
 30
2.357654637071434
 11
10.0
 21
-147.3083179581272
 31
2.357654637071434
  0
ARC
  5
8E
  8
LAYER_01
 10
-12.05000000000422
 20
-145.0499999999953
 30
-2.357654637071434
 40
3.050000000006302
 50
312.2317616385214
 51
137.7682383619119
210
0.0
220
0.0
230
-1.0
  0
LINE
  5
8F
  8
LAYER_01
 10
14.30831795815163
 20
-143.0000000000082
 30
2.357654637071434
 11
17.96573976797066
 21
-143.0000000000196
 31
2.357654637071434
  0
ARC
  5
90
  8
LAYER_01
 10
-20.22405772611569
 20
-145.05
 30
-2.357654637071434
 40
3.049999999999992
 50
42.23176163802477
 51
227.7682383618941
210
0.0
220
0.0
230
-1.0
  0
LINE
  5
91
  8
LAYER_01
 10
22.27405772609929
 20
-147.3083179581421
 30
2.357654637071434
 11
22.27405772611569
 21
-172.2119319442267
 31
2.357654637071433
  0
ARC
  5
92
  8
LAYER_01
 10
-20.22405772611146
 20
-174.4702499023586
 30
-2.357654637071434
 40
3.05000000000629
 50
132.231761638522
 51
317.7682383619109
210
0.0
220
0.0
230
-1.0
  0
LINE
  5
93
  8
LAYER_01
 10
17.96573976796408
 20
-176.5202499023458
 30
2.357654637071434
 11
14.308317958145
 21
-176.5202499023344
 31
2.357654637071434
  0
ARC
  5
94
  8
LAYER_01
 10
5.949999999999992
 20
-174.4702499023539
 30
-2.357654637071434
 40
3.050000000000013
 50
222.2317616380259
 51
47.76823836147722
210
0.0
220
0.0
230
-1.0
  0
LINE
  5
95
  8
LAYER_01
 10
-8.0
 20
-172.2119319442267
 30
2.357654637071434
 11
-7.999999999999999
 21
-147.3083179581272
 31
2.357654637071434
  0
ARC
  5
96
  8
LAYER_01
 10
5.94999999999578
 20
-145.0499999999953
 30
-2.357654637071434
 40
3.050000000006303
 50
312.2317616385215
 51
137.7682383619119
210
0.0
220
0.0
230
-1.0
  0
LINE
  5
97
  8
LAYER_01
 10
-3.691682041848377
 20
-143.0000000000082
 30
2.357654637071434
 11
-0.0342602320293344
 21
-143.0000000000196
 31
2.357654637071434
  0
ARC
  5
98
  8
LAYER_01
 10
-2.224057726115692
 20
-145.05
 30
-2.357654637071434
 40
3.049999999999994
 50
42.23176163802475
 51
227.7682383618942
210
0.0
220
0.0
230
-1.0
  0
LINE
  5
99
  8
LAYER_01
 10
4.274057726099295
 20
-147.3083179581421
 30
2.357654637071434
 11
4.2740577261157
 21
-172.2119319442267
 31
2.357654637071433
  0
ARC
  5
9A
  8
LAYER_01
 10
-2.224057726111458
 20
-174.4702499023586
 30
-2.357654637071434
 40
3.050000000006318
 50
132.2317616385218
 51
317.7682383619113
210
0.0
220
0.0
230
-1.0
  0
LINE
  5
9B
  8
LAYER_01
 10
-0.0342602320359158
 20
-176.5202499023458
 30
2.357654637071434
 11
-3.691682041854992
 21
-176.5202499023344
 31
2.357654637071435
  0
LINE
  5
9C
  8
LAYER_01
 10
32.30831795815821
 20
-176.5202499023458
 30
2.357654637071434
 11
35.9657397679773
 21
-176.5202499023344
 31
2.357654637071435
  0
ARC
  5
9D
  8
LAYER_01
 10
38.22405772612229
 20
-174.4702499023539
 30
2.357654637071434
 40
3.050000000000007
 50
222.231761638026
 51
47.76823836147766
  0
LINE
  5
9E
  8
LAYER_01
 10
40.27405772612229
 20
-172.2119319442267
 30
2.357654637071434
 11
40.27405772612228
 21
-147.3083179581272
 31
2.357654637071434
  0
ARC
  5
9F
  8
LAYER_01
 10
38.22405772611806
 20
-145.0499999999953
 30
2.357654637071434
 40
3.050000000006281
 50
312.2317616385218
 51
137.7682383619114
  0
LINE
  5
A0
  8
LAYER_01
 10
35.96573976797067
 20
-143.0000000000082
 30
2.357654637071434
 11
32.30831795815164
 21
-143.0000000000196
 31
2.357654637071434
  0
ARC
  5
A1
  8
LAYER_01
 10
30.05000000000662
 20
-145.05
 30
2.357654637071434
 40
3.050000000000011
 50
42.23176163802516
 51
227.7682383618937
  0
LINE
  5
A2
  8
LAYER_01
 10
28.000000000023
 20
-147.3083179581421
 30
2.357654637071434
 11
28.00000000000659
 21
-172.2119319442267
 31
2.357654637071433
  0
ARC
  5
A3
  8
LAYER_01
 10
30.05000000001083
 20
-174.4702499023586
 30
2.357654637071434
 40
3.0500000000063
 50
132.2317616385222
 51
317.768238361911
  0
LINE
  5
A4
  8
LAYER_01
 10
50.30831795815821
 20
-176.5202499023458
 30
2.357654637071434
 11
53.96573976797727
 21
-176.5202499023344
 31
2.357654637071434
  0
ARC
  5
A5
  8
LAYER_01
 10
56.22405772612232
 20
-174.470249902354
 30
2.357654637071434
 40
3.050000000000011
 50
222.2317616380245
 51
47.7682383614785
  0
LINE
  5
A6
  8
LAYER_01
 10
58.2740577261223
 20
-172.2119319442267
 30
2.357654637071434
 11
58.2740577261223
 21
-147.3083179581272
 31
2.357654637071434
  0
ARC
  5
A7
  8
LAYER_01
 10
56.22405772611808
 20
-145.0499999999953
 30
2.357654637071434
 40
3.050000000006286
 50
312.2317616385219
 51
137.7682383619117
  0
LINE
  5
A8
  8
LAYER_01
 10
53.96573976797066
 20
-143.0000000000082
 30
2.357654637071434
 11
50.30831795815163
 21
-143.0000000000196
 31
2.357654637071434
  0
ARC
  5
A9
  8
LAYER_01
 10
48.05000000000663
 20
-145.05
 30
2.357654637071434
 40
3.050000000000018
 50
42.23176163802579
 51
227.7682383618936
  0
LINE
  5
AA
  8
LAYER_01
 10
46.000000000023
 20
-147.3083179581421
 30
2.357654637071434
 11
46.00000000000661
 21
-172.2119319442267
 31
2.357654637071433
  0
ARC
  5
AB
  8
LAYER_01
 10
48.05000000001085
 20
-174.4702499023586
 30
2.357654637071434
 40
3.0500000000063
 50
132.2317616385222
 51
317.7682383619105
  0
ENDSEC
  0
EOF
